G04 #@! TF.FileFunction,Copper,L2,Bot,Signal*
%FSLAX46Y46*%
G04 Gerber Fmt 4.6, Leading zero omitted, Abs format (unit mm)*
G04 Created by KiCad (PCBNEW (2015-01-16 BZR 5376)-product) date 27.11.2015 11:03:22*
%MOMM*%
G01*
G04 APERTURE LIST*
%ADD10C,0.100000*%
%ADD11R,2.032000X2.032000*%
%ADD12O,2.032000X2.032000*%
%ADD13R,1.727200X1.727200*%
%ADD14O,1.727200X1.727200*%
%ADD15R,2.032000X1.727200*%
%ADD16O,2.032000X1.727200*%
%ADD17C,2.500000*%
%ADD18C,0.889000*%
%ADD19C,1.000000*%
%ADD20C,0.250000*%
%ADD21C,0.254000*%
%ADD22C,0.151000*%
G04 APERTURE END LIST*
D10*
D11*
X122174000Y-38989000D03*
D12*
X124714000Y-38989000D03*
D11*
X122174000Y-41910000D03*
D12*
X124714000Y-41910000D03*
D13*
X135500000Y-41798240D03*
D14*
X132960000Y-41798240D03*
X135500000Y-39258240D03*
X132960000Y-39258240D03*
X135500000Y-36718240D03*
X132960000Y-36718240D03*
D13*
X135400000Y-64587120D03*
D14*
X132860000Y-64587120D03*
X135400000Y-62047120D03*
X132860000Y-62047120D03*
X135400000Y-59507120D03*
X132860000Y-59507120D03*
D13*
X135427720Y-86207600D03*
D14*
X132887720Y-86207600D03*
X135427720Y-83667600D03*
X132887720Y-83667600D03*
X135427720Y-81127600D03*
X132887720Y-81127600D03*
D13*
X135360000Y-107792520D03*
D14*
X132820000Y-107792520D03*
X135360000Y-105252520D03*
X132820000Y-105252520D03*
X135360000Y-102712520D03*
X132820000Y-102712520D03*
D15*
X145623280Y-32486600D03*
D16*
X145623280Y-35026600D03*
X145623280Y-37566600D03*
X145623280Y-40106600D03*
D15*
X145481040Y-55199280D03*
D16*
X145481040Y-57739280D03*
X145481040Y-60279280D03*
X145481040Y-62819280D03*
D15*
X145379440Y-76850240D03*
D16*
X145379440Y-79390240D03*
X145379440Y-81930240D03*
X145379440Y-84470240D03*
D15*
X145399760Y-98435160D03*
D16*
X145399760Y-100975160D03*
X145399760Y-103515160D03*
X145399760Y-106055160D03*
D15*
X117983000Y-63119000D03*
D16*
X117983000Y-65659000D03*
X117983000Y-68199000D03*
X117983000Y-70739000D03*
X117983000Y-73279000D03*
X117983000Y-75819000D03*
X117983000Y-78359000D03*
X117983000Y-80899000D03*
X117983000Y-83439000D03*
X117983000Y-85979000D03*
D15*
X118110000Y-110998000D03*
D16*
X118110000Y-108458000D03*
X118110000Y-105918000D03*
D13*
X122301000Y-50419000D03*
D14*
X124841000Y-50419000D03*
X122301000Y-52959000D03*
X124841000Y-52959000D03*
X122301000Y-55499000D03*
X124841000Y-55499000D03*
X122301000Y-58039000D03*
X124841000Y-58039000D03*
X122301000Y-60579000D03*
X124841000Y-60579000D03*
X122301000Y-63119000D03*
X124841000Y-63119000D03*
X122301000Y-65659000D03*
X124841000Y-65659000D03*
X122301000Y-68199000D03*
X124841000Y-68199000D03*
X122301000Y-70739000D03*
X124841000Y-70739000D03*
X122301000Y-73279000D03*
X124841000Y-73279000D03*
X122301000Y-75819000D03*
X124841000Y-75819000D03*
X122301000Y-78359000D03*
X124841000Y-78359000D03*
X122301000Y-80899000D03*
X124841000Y-80899000D03*
X122301000Y-83439000D03*
X124841000Y-83439000D03*
X122301000Y-85979000D03*
X124841000Y-85979000D03*
X122301000Y-88519000D03*
X124841000Y-88519000D03*
X122301000Y-91059000D03*
X124841000Y-91059000D03*
X122301000Y-93599000D03*
X124841000Y-93599000D03*
X122301000Y-96139000D03*
X124841000Y-96139000D03*
X122301000Y-98679000D03*
X124841000Y-98679000D03*
X122301000Y-101219000D03*
X124841000Y-101219000D03*
X122301000Y-103759000D03*
X124841000Y-103759000D03*
X122301000Y-106299000D03*
X124841000Y-106299000D03*
X122301000Y-108839000D03*
X124841000Y-108839000D03*
X122301000Y-111379000D03*
X124841000Y-111379000D03*
D15*
X129286000Y-27305000D03*
D16*
X129286000Y-29845000D03*
X129286000Y-32385000D03*
X129286000Y-34925000D03*
X129286000Y-37465000D03*
X129286000Y-40005000D03*
X129286000Y-42545000D03*
X129286000Y-45085000D03*
D15*
X142113000Y-27178000D03*
D16*
X142113000Y-29718000D03*
X142113000Y-32258000D03*
X142113000Y-34798000D03*
X142113000Y-37338000D03*
X142113000Y-39878000D03*
X142113000Y-42418000D03*
X142113000Y-44958000D03*
D15*
X129159000Y-50038000D03*
D16*
X129159000Y-52578000D03*
X129159000Y-55118000D03*
X129159000Y-57658000D03*
X129159000Y-60198000D03*
X129159000Y-62738000D03*
X129159000Y-65278000D03*
X129159000Y-67818000D03*
D15*
X141986000Y-50038000D03*
D16*
X141986000Y-52578000D03*
X141986000Y-55118000D03*
X141986000Y-57658000D03*
X141986000Y-60198000D03*
X141986000Y-62738000D03*
X141986000Y-65278000D03*
X141986000Y-67818000D03*
D15*
X129159000Y-71755000D03*
D16*
X129159000Y-74295000D03*
X129159000Y-76835000D03*
X129159000Y-79375000D03*
X129159000Y-81915000D03*
X129159000Y-84455000D03*
X129159000Y-86995000D03*
X129159000Y-89535000D03*
D15*
X141859000Y-71755000D03*
D16*
X141859000Y-74295000D03*
X141859000Y-76835000D03*
X141859000Y-79375000D03*
X141859000Y-81915000D03*
X141859000Y-84455000D03*
X141859000Y-86995000D03*
X141859000Y-89535000D03*
D15*
X129159000Y-93345000D03*
D16*
X129159000Y-95885000D03*
X129159000Y-98425000D03*
X129159000Y-100965000D03*
X129159000Y-103505000D03*
X129159000Y-106045000D03*
X129159000Y-108585000D03*
X129159000Y-111125000D03*
D15*
X141859000Y-93345000D03*
D16*
X141859000Y-95885000D03*
X141859000Y-98425000D03*
X141859000Y-100965000D03*
X141859000Y-103505000D03*
X141859000Y-106045000D03*
X141859000Y-108585000D03*
X141859000Y-111125000D03*
D17*
X119674000Y-32385000D03*
X124674000Y-32385000D03*
D18*
X119888000Y-35941000D03*
X124460000Y-35941000D03*
X124079000Y-45847000D03*
X118618000Y-45847000D03*
X119380000Y-104394000D03*
X125857000Y-51689000D03*
X126365000Y-48514000D03*
X127317500Y-66611500D03*
X126809500Y-71818500D03*
X126682500Y-86995000D03*
X126809500Y-89662000D03*
X127381000Y-105981500D03*
X136779000Y-37973000D03*
X136461500Y-60769500D03*
X136525000Y-82423000D03*
X136296400Y-103987600D03*
X120396000Y-106172000D03*
D19*
X120332500Y-40449500D02*
X122174000Y-38608000D01*
D20*
X119253000Y-68199000D02*
X120396000Y-67056000D01*
X120396000Y-67056000D02*
X120396000Y-53848000D01*
X117983000Y-68199000D02*
X119253000Y-68199000D01*
D19*
X120332500Y-52006500D02*
X120332500Y-40449500D01*
D20*
X120396000Y-53848000D02*
X121295160Y-52948840D01*
D19*
X121274840Y-52948840D02*
X120332500Y-52006500D01*
X141859000Y-108585000D02*
X148018500Y-108585000D01*
X148018500Y-108585000D02*
X148399500Y-108204000D01*
X148399500Y-108204000D02*
X148399500Y-88582500D01*
X148399500Y-88582500D02*
X146827240Y-87010240D01*
X141997133Y-65334000D02*
X146868000Y-65334000D01*
X141884400Y-87010240D02*
X146827240Y-87010240D01*
X146827240Y-87010240D02*
X148463000Y-85374480D01*
X148463000Y-66929000D02*
X146868000Y-65334000D01*
X148463000Y-85374480D02*
X148463000Y-66929000D01*
X142026640Y-42519600D02*
X146469100Y-42519600D01*
X146868000Y-65334000D02*
X148321000Y-63881000D01*
X148321000Y-44371500D02*
X146469100Y-42519600D01*
X148321000Y-63881000D02*
X148321000Y-44371500D01*
X146469100Y-42519600D02*
X148463000Y-40525700D01*
X148463000Y-40525700D02*
X148463000Y-30035500D01*
X143891000Y-25463500D02*
X123507500Y-25463500D01*
X148463000Y-30035500D02*
X143891000Y-25463500D01*
X121274840Y-52948840D02*
X122240040Y-52948840D01*
X122240040Y-52948840D02*
X121274840Y-52948840D01*
D20*
X121295160Y-52948840D02*
X122240040Y-52948840D01*
D19*
X122174000Y-26797000D02*
X123507500Y-25463500D01*
X122174000Y-38989000D02*
X122174000Y-26797000D01*
D20*
X124674000Y-32385000D02*
X124674000Y-35727000D01*
X124674000Y-35727000D02*
X124460000Y-35941000D01*
X129286000Y-42545000D02*
X128905000Y-42545000D01*
X128905000Y-42545000D02*
X125476000Y-45974000D01*
X125476000Y-45974000D02*
X125476000Y-48895000D01*
X125476000Y-48895000D02*
X126238000Y-49657000D01*
X126238000Y-49657000D02*
X126238000Y-51308000D01*
X126238000Y-51308000D02*
X125857000Y-51689000D01*
X129286000Y-45085000D02*
X129286000Y-47879000D01*
X128651000Y-48514000D02*
X126365000Y-48514000D01*
X129286000Y-47879000D02*
X128651000Y-48514000D01*
X126517400Y-48361600D02*
X126365000Y-48514000D01*
X127317500Y-66611500D02*
X128595000Y-65334000D01*
X128595000Y-65334000D02*
X129271113Y-65334000D01*
X126809500Y-71818500D02*
X127698500Y-70929500D01*
X127698500Y-70929500D02*
X127698500Y-69446613D01*
X127698500Y-69446613D02*
X129271113Y-67874000D01*
D21*
X126682500Y-86995000D02*
X126697740Y-87010240D01*
X126697740Y-87010240D02*
X129184400Y-87010240D01*
D20*
X126809500Y-89662000D02*
X126921260Y-89550240D01*
X126921260Y-89550240D02*
X129184400Y-89550240D01*
D21*
X129159000Y-111125000D02*
X127381000Y-111125000D01*
X126428500Y-107937300D02*
X124780040Y-106288840D01*
X126428500Y-110172500D02*
X126428500Y-107937300D01*
X127381000Y-111125000D02*
X126428500Y-110172500D01*
X122240040Y-108828840D02*
X122374660Y-108828840D01*
X122374660Y-108828840D02*
X123507500Y-107696000D01*
X123507500Y-107696000D02*
X123507500Y-105727500D01*
X123507500Y-105727500D02*
X124206000Y-105029000D01*
X124206000Y-105029000D02*
X126428500Y-105029000D01*
X126428500Y-105029000D02*
X127381000Y-105981500D01*
D20*
X134239000Y-37973000D02*
X136779000Y-37973000D01*
X132984240Y-36718240D02*
X134239000Y-37973000D01*
X132960000Y-36718240D02*
X132984240Y-36718240D01*
X134112000Y-60769500D02*
X136461500Y-60769500D01*
X132860000Y-59517500D02*
X134112000Y-60769500D01*
X132860000Y-59507120D02*
X132860000Y-59517500D01*
X134239000Y-82423000D02*
X136525000Y-82423000D01*
X132943600Y-81127600D02*
X134239000Y-82423000D01*
X132887720Y-81127600D02*
X132943600Y-81127600D01*
X133896100Y-103987600D02*
X136296400Y-103987600D01*
X132820000Y-102911500D02*
X133896100Y-103987600D01*
X132820000Y-102712520D02*
X132820000Y-102911500D01*
X119824500Y-70739000D02*
X120967500Y-69596000D01*
X117983000Y-70739000D02*
X119824500Y-70739000D01*
X123507500Y-59296300D02*
X122240040Y-58028840D01*
X123507500Y-64008000D02*
X123507500Y-59296300D01*
X123126500Y-64389000D02*
X123507500Y-64008000D01*
X121539000Y-64389000D02*
X123126500Y-64389000D01*
X120967500Y-64960500D02*
X121539000Y-64389000D01*
X120967500Y-69596000D02*
X120967500Y-64960500D01*
X118110000Y-108458000D02*
X120396000Y-106172000D01*
D22*
G36*
X149252500Y-29834406D02*
X149229358Y-29718064D01*
X149049545Y-29448955D01*
X144477545Y-24876955D01*
X144208436Y-24697142D01*
X143891000Y-24634000D01*
X123507500Y-24634000D01*
X123190064Y-24697142D01*
X122920955Y-24876955D01*
X121587455Y-26210455D01*
X121407642Y-26479564D01*
X121344500Y-26797000D01*
X121344500Y-37637045D01*
X121253773Y-37637045D01*
X121253773Y-32072196D01*
X121013816Y-31491454D01*
X120569883Y-31046746D01*
X119989560Y-30805775D01*
X119361196Y-30805227D01*
X118780454Y-31045184D01*
X118335746Y-31489117D01*
X118094775Y-32069440D01*
X118094227Y-32697804D01*
X118334184Y-33278546D01*
X118778117Y-33723254D01*
X119358440Y-33964225D01*
X119986804Y-33964773D01*
X120567546Y-33724816D01*
X121012254Y-33280883D01*
X121253225Y-32700560D01*
X121253773Y-32072196D01*
X121253773Y-37637045D01*
X121158000Y-37637045D01*
X121032363Y-37661421D01*
X120921939Y-37733958D01*
X120848023Y-37843462D01*
X120822045Y-37973000D01*
X120822045Y-38786865D01*
X119745955Y-39862955D01*
X119566142Y-40132064D01*
X119503000Y-40449500D01*
X119503000Y-52006500D01*
X119566142Y-52323936D01*
X119745955Y-52593045D01*
X120377075Y-53224165D01*
X120074620Y-53526620D01*
X119976097Y-53674070D01*
X119941500Y-53848000D01*
X119941500Y-66867740D01*
X119185045Y-67624194D01*
X119005409Y-67355351D01*
X118618340Y-67096719D01*
X118161760Y-67005900D01*
X117804240Y-67005900D01*
X117347660Y-67096719D01*
X116960591Y-67355351D01*
X116939500Y-67386915D01*
X116939500Y-66471084D01*
X116960591Y-66502649D01*
X117347660Y-66761281D01*
X117804240Y-66852100D01*
X118161760Y-66852100D01*
X118618340Y-66761281D01*
X119005409Y-66502649D01*
X119264041Y-66115580D01*
X119354860Y-65659000D01*
X119264041Y-65202420D01*
X119005409Y-64815351D01*
X118632379Y-64566100D01*
X119115065Y-64566100D01*
X119329526Y-64477268D01*
X119493667Y-64313126D01*
X119582500Y-64098666D01*
X119582500Y-63866535D01*
X119582500Y-63443375D01*
X119582500Y-62794625D01*
X119582500Y-62371465D01*
X119582500Y-62139334D01*
X119493667Y-61924874D01*
X119329526Y-61760732D01*
X119115065Y-61671900D01*
X118307375Y-61671900D01*
X118161500Y-61817775D01*
X118161500Y-62940500D01*
X119436625Y-62940500D01*
X119582500Y-62794625D01*
X119582500Y-63443375D01*
X119436625Y-63297500D01*
X118161500Y-63297500D01*
X118161500Y-63317500D01*
X117804500Y-63317500D01*
X117804500Y-63297500D01*
X117784500Y-63297500D01*
X117784500Y-62940500D01*
X117804500Y-62940500D01*
X117804500Y-61817775D01*
X117658625Y-61671900D01*
X116939500Y-61671900D01*
X116939500Y-25146000D01*
X116939500Y-24926818D01*
X117015663Y-24543920D01*
X117212832Y-24248834D01*
X117507919Y-24051663D01*
X117890818Y-23975500D01*
X118618000Y-23975500D01*
X148301181Y-23975500D01*
X148684079Y-24051663D01*
X148979165Y-24248832D01*
X149176336Y-24543919D01*
X149252500Y-24926818D01*
X149252500Y-29834406D01*
X149252500Y-29834406D01*
G37*
X149252500Y-29834406D02*
X149229358Y-29718064D01*
X149049545Y-29448955D01*
X144477545Y-24876955D01*
X144208436Y-24697142D01*
X143891000Y-24634000D01*
X123507500Y-24634000D01*
X123190064Y-24697142D01*
X122920955Y-24876955D01*
X121587455Y-26210455D01*
X121407642Y-26479564D01*
X121344500Y-26797000D01*
X121344500Y-37637045D01*
X121253773Y-37637045D01*
X121253773Y-32072196D01*
X121013816Y-31491454D01*
X120569883Y-31046746D01*
X119989560Y-30805775D01*
X119361196Y-30805227D01*
X118780454Y-31045184D01*
X118335746Y-31489117D01*
X118094775Y-32069440D01*
X118094227Y-32697804D01*
X118334184Y-33278546D01*
X118778117Y-33723254D01*
X119358440Y-33964225D01*
X119986804Y-33964773D01*
X120567546Y-33724816D01*
X121012254Y-33280883D01*
X121253225Y-32700560D01*
X121253773Y-32072196D01*
X121253773Y-37637045D01*
X121158000Y-37637045D01*
X121032363Y-37661421D01*
X120921939Y-37733958D01*
X120848023Y-37843462D01*
X120822045Y-37973000D01*
X120822045Y-38786865D01*
X119745955Y-39862955D01*
X119566142Y-40132064D01*
X119503000Y-40449500D01*
X119503000Y-52006500D01*
X119566142Y-52323936D01*
X119745955Y-52593045D01*
X120377075Y-53224165D01*
X120074620Y-53526620D01*
X119976097Y-53674070D01*
X119941500Y-53848000D01*
X119941500Y-66867740D01*
X119185045Y-67624194D01*
X119005409Y-67355351D01*
X118618340Y-67096719D01*
X118161760Y-67005900D01*
X117804240Y-67005900D01*
X117347660Y-67096719D01*
X116960591Y-67355351D01*
X116939500Y-67386915D01*
X116939500Y-66471084D01*
X116960591Y-66502649D01*
X117347660Y-66761281D01*
X117804240Y-66852100D01*
X118161760Y-66852100D01*
X118618340Y-66761281D01*
X119005409Y-66502649D01*
X119264041Y-66115580D01*
X119354860Y-65659000D01*
X119264041Y-65202420D01*
X119005409Y-64815351D01*
X118632379Y-64566100D01*
X119115065Y-64566100D01*
X119329526Y-64477268D01*
X119493667Y-64313126D01*
X119582500Y-64098666D01*
X119582500Y-63866535D01*
X119582500Y-63443375D01*
X119582500Y-62794625D01*
X119582500Y-62371465D01*
X119582500Y-62139334D01*
X119493667Y-61924874D01*
X119329526Y-61760732D01*
X119115065Y-61671900D01*
X118307375Y-61671900D01*
X118161500Y-61817775D01*
X118161500Y-62940500D01*
X119436625Y-62940500D01*
X119582500Y-62794625D01*
X119582500Y-63443375D01*
X119436625Y-63297500D01*
X118161500Y-63297500D01*
X118161500Y-63317500D01*
X117804500Y-63317500D01*
X117804500Y-63297500D01*
X117784500Y-63297500D01*
X117784500Y-62940500D01*
X117804500Y-62940500D01*
X117804500Y-61817775D01*
X117658625Y-61671900D01*
X116939500Y-61671900D01*
X116939500Y-25146000D01*
X116939500Y-24926818D01*
X117015663Y-24543920D01*
X117212832Y-24248834D01*
X117507919Y-24051663D01*
X117890818Y-23975500D01*
X118618000Y-23975500D01*
X148301181Y-23975500D01*
X148684079Y-24051663D01*
X148979165Y-24248832D01*
X149176336Y-24543919D01*
X149252500Y-24926818D01*
X149252500Y-29834406D01*
G36*
X149252500Y-112995181D02*
X149176336Y-113378080D01*
X148979165Y-113673167D01*
X148684079Y-113870336D01*
X148301181Y-113946500D01*
X143401845Y-113946500D01*
X143401845Y-111525950D01*
X143300324Y-111303500D01*
X142037500Y-111303500D01*
X142037500Y-112424616D01*
X142263303Y-112548612D01*
X142788921Y-112343847D01*
X143196168Y-111953523D01*
X143401845Y-111525950D01*
X143401845Y-113946500D01*
X141680500Y-113946500D01*
X141680500Y-112424616D01*
X141680500Y-111303500D01*
X140417676Y-111303500D01*
X140316155Y-111525950D01*
X140521832Y-111953523D01*
X140929079Y-112343847D01*
X141454697Y-112548612D01*
X141680500Y-112424616D01*
X141680500Y-113946500D01*
X137553134Y-113946500D01*
X137553134Y-37819717D01*
X137435548Y-37535137D01*
X137218008Y-37317217D01*
X136933634Y-37199134D01*
X136625717Y-37198866D01*
X136603436Y-37208072D01*
X136625655Y-37174820D01*
X136716474Y-36718240D01*
X136625655Y-36261660D01*
X136367023Y-35874591D01*
X135979954Y-35615959D01*
X135523374Y-35525140D01*
X135476626Y-35525140D01*
X135020046Y-35615959D01*
X134632977Y-35874591D01*
X134374345Y-36261660D01*
X134283526Y-36718240D01*
X134374345Y-37174820D01*
X134603985Y-37518500D01*
X134427260Y-37518500D01*
X134084823Y-37176063D01*
X134085655Y-37174820D01*
X134176474Y-36718240D01*
X134085655Y-36261660D01*
X133827023Y-35874591D01*
X133439954Y-35615959D01*
X132983374Y-35525140D01*
X132936626Y-35525140D01*
X132480046Y-35615959D01*
X132092977Y-35874591D01*
X131834345Y-36261660D01*
X131743526Y-36718240D01*
X131834345Y-37174820D01*
X132092977Y-37561889D01*
X132480046Y-37820521D01*
X132936626Y-37911340D01*
X132983374Y-37911340D01*
X133439954Y-37820521D01*
X133442236Y-37818996D01*
X133917620Y-38294380D01*
X134065070Y-38392903D01*
X134065071Y-38392904D01*
X134239000Y-38427500D01*
X134624351Y-38427500D01*
X134374345Y-38801660D01*
X134283526Y-39258240D01*
X134374345Y-39714820D01*
X134632977Y-40101889D01*
X135020046Y-40360521D01*
X135476626Y-40451340D01*
X135523374Y-40451340D01*
X135979954Y-40360521D01*
X136367023Y-40101889D01*
X136625655Y-39714820D01*
X136716474Y-39258240D01*
X136625655Y-38801660D01*
X136575478Y-38726566D01*
X136624366Y-38746866D01*
X136932283Y-38747134D01*
X137216863Y-38629548D01*
X137434783Y-38412008D01*
X137552866Y-38127634D01*
X137553134Y-37819717D01*
X137553134Y-113946500D01*
X137299134Y-113946500D01*
X137299134Y-82269717D01*
X137235634Y-82116035D01*
X137235634Y-60616217D01*
X137118048Y-60331637D01*
X136900508Y-60113717D01*
X136699555Y-60030273D01*
X136699555Y-42661840D01*
X136699555Y-40934640D01*
X136675179Y-40809003D01*
X136602642Y-40698579D01*
X136493138Y-40624663D01*
X136363600Y-40598685D01*
X134636400Y-40598685D01*
X134510763Y-40623061D01*
X134400339Y-40695598D01*
X134326423Y-40805102D01*
X134300445Y-40934640D01*
X134300445Y-42661840D01*
X134324821Y-42787477D01*
X134397358Y-42897901D01*
X134506862Y-42971817D01*
X134636400Y-42997795D01*
X136363600Y-42997795D01*
X136489237Y-42973419D01*
X136599661Y-42900882D01*
X136673577Y-42791378D01*
X136699555Y-42661840D01*
X136699555Y-60030273D01*
X136616134Y-59995634D01*
X136504382Y-59995536D01*
X136525655Y-59963700D01*
X136616474Y-59507120D01*
X136525655Y-59050540D01*
X136267023Y-58663471D01*
X135879954Y-58404839D01*
X135423374Y-58314020D01*
X135376626Y-58314020D01*
X134920046Y-58404839D01*
X134532977Y-58663471D01*
X134274345Y-59050540D01*
X134183526Y-59507120D01*
X134274345Y-59963700D01*
X134509076Y-60315000D01*
X134300260Y-60315000D01*
X134176474Y-60191214D01*
X134176474Y-41798240D01*
X134176474Y-39258240D01*
X134085655Y-38801660D01*
X133827023Y-38414591D01*
X133439954Y-38155959D01*
X132983374Y-38065140D01*
X132936626Y-38065140D01*
X132480046Y-38155959D01*
X132092977Y-38414591D01*
X131834345Y-38801660D01*
X131743526Y-39258240D01*
X131834345Y-39714820D01*
X132092977Y-40101889D01*
X132480046Y-40360521D01*
X132936626Y-40451340D01*
X132983374Y-40451340D01*
X133439954Y-40360521D01*
X133827023Y-40101889D01*
X134085655Y-39714820D01*
X134176474Y-39258240D01*
X134176474Y-41798240D01*
X134085655Y-41341660D01*
X133827023Y-40954591D01*
X133439954Y-40695959D01*
X132983374Y-40605140D01*
X132936626Y-40605140D01*
X132480046Y-40695959D01*
X132092977Y-40954591D01*
X131834345Y-41341660D01*
X131743526Y-41798240D01*
X131834345Y-42254820D01*
X132092977Y-42641889D01*
X132480046Y-42900521D01*
X132936626Y-42991340D01*
X132983374Y-42991340D01*
X133439954Y-42900521D01*
X133827023Y-42641889D01*
X134085655Y-42254820D01*
X134176474Y-41798240D01*
X134176474Y-60191214D01*
X133970957Y-59985697D01*
X133985655Y-59963700D01*
X134076474Y-59507120D01*
X133985655Y-59050540D01*
X133727023Y-58663471D01*
X133339954Y-58404839D01*
X132883374Y-58314020D01*
X132836626Y-58314020D01*
X132380046Y-58404839D01*
X131992977Y-58663471D01*
X131734345Y-59050540D01*
X131643526Y-59507120D01*
X131734345Y-59963700D01*
X131992977Y-60350769D01*
X132380046Y-60609401D01*
X132836626Y-60700220D01*
X132883374Y-60700220D01*
X133314253Y-60614513D01*
X133790620Y-61090880D01*
X133938070Y-61189403D01*
X133938071Y-61189403D01*
X134112000Y-61224000D01*
X134519259Y-61224000D01*
X134274345Y-61590540D01*
X134183526Y-62047120D01*
X134274345Y-62503700D01*
X134532977Y-62890769D01*
X134920046Y-63149401D01*
X135376626Y-63240220D01*
X135423374Y-63240220D01*
X135879954Y-63149401D01*
X136267023Y-62890769D01*
X136525655Y-62503700D01*
X136616474Y-62047120D01*
X136525655Y-61590540D01*
X136494243Y-61543529D01*
X136614783Y-61543634D01*
X136899363Y-61426048D01*
X137117283Y-61208508D01*
X137235366Y-60924134D01*
X137235634Y-60616217D01*
X137235634Y-82116035D01*
X137181548Y-81985137D01*
X136964008Y-81767217D01*
X136679634Y-81649134D01*
X136510072Y-81648986D01*
X136553375Y-81584180D01*
X136644194Y-81127600D01*
X136599555Y-80903183D01*
X136599555Y-65450720D01*
X136599555Y-63723520D01*
X136575179Y-63597883D01*
X136502642Y-63487459D01*
X136393138Y-63413543D01*
X136263600Y-63387565D01*
X134536400Y-63387565D01*
X134410763Y-63411941D01*
X134300339Y-63484478D01*
X134226423Y-63593982D01*
X134200445Y-63723520D01*
X134200445Y-65450720D01*
X134224821Y-65576357D01*
X134297358Y-65686781D01*
X134406862Y-65760697D01*
X134536400Y-65786675D01*
X136263600Y-65786675D01*
X136389237Y-65762299D01*
X136499661Y-65689762D01*
X136573577Y-65580258D01*
X136599555Y-65450720D01*
X136599555Y-80903183D01*
X136553375Y-80671020D01*
X136294743Y-80283951D01*
X135907674Y-80025319D01*
X135451094Y-79934500D01*
X135404346Y-79934500D01*
X134947766Y-80025319D01*
X134560697Y-80283951D01*
X134302065Y-80671020D01*
X134211246Y-81127600D01*
X134302065Y-81584180D01*
X134558860Y-81968500D01*
X134427260Y-81968500D01*
X134018280Y-81559520D01*
X134104194Y-81127600D01*
X134076474Y-80988241D01*
X134076474Y-64587120D01*
X134076474Y-62047120D01*
X133985655Y-61590540D01*
X133727023Y-61203471D01*
X133339954Y-60944839D01*
X132883374Y-60854020D01*
X132836626Y-60854020D01*
X132380046Y-60944839D01*
X131992977Y-61203471D01*
X131734345Y-61590540D01*
X131643526Y-62047120D01*
X131734345Y-62503700D01*
X131992977Y-62890769D01*
X132380046Y-63149401D01*
X132836626Y-63240220D01*
X132883374Y-63240220D01*
X133339954Y-63149401D01*
X133727023Y-62890769D01*
X133985655Y-62503700D01*
X134076474Y-62047120D01*
X134076474Y-64587120D01*
X133985655Y-64130540D01*
X133727023Y-63743471D01*
X133339954Y-63484839D01*
X132883374Y-63394020D01*
X132836626Y-63394020D01*
X132380046Y-63484839D01*
X131992977Y-63743471D01*
X131734345Y-64130540D01*
X131643526Y-64587120D01*
X131734345Y-65043700D01*
X131992977Y-65430769D01*
X132380046Y-65689401D01*
X132836626Y-65780220D01*
X132883374Y-65780220D01*
X133339954Y-65689401D01*
X133727023Y-65430769D01*
X133985655Y-65043700D01*
X134076474Y-64587120D01*
X134076474Y-80988241D01*
X134013375Y-80671020D01*
X133754743Y-80283951D01*
X133367674Y-80025319D01*
X132911094Y-79934500D01*
X132864346Y-79934500D01*
X132407766Y-80025319D01*
X132020697Y-80283951D01*
X131762065Y-80671020D01*
X131671246Y-81127600D01*
X131762065Y-81584180D01*
X132020697Y-81971249D01*
X132407766Y-82229881D01*
X132864346Y-82320700D01*
X132911094Y-82320700D01*
X133367674Y-82229881D01*
X133388922Y-82215682D01*
X133917620Y-82744380D01*
X134065070Y-82842903D01*
X134065071Y-82842903D01*
X134239000Y-82877500D01*
X134524916Y-82877500D01*
X134302065Y-83211020D01*
X134211246Y-83667600D01*
X134302065Y-84124180D01*
X134560697Y-84511249D01*
X134947766Y-84769881D01*
X135404346Y-84860700D01*
X135451094Y-84860700D01*
X135907674Y-84769881D01*
X136294743Y-84511249D01*
X136553375Y-84124180D01*
X136644194Y-83667600D01*
X136553375Y-83211020D01*
X136544018Y-83197017D01*
X136678283Y-83197134D01*
X136962863Y-83079548D01*
X137180783Y-82862008D01*
X137298866Y-82577634D01*
X137299134Y-82269717D01*
X137299134Y-113946500D01*
X137070534Y-113946500D01*
X137070534Y-103834317D01*
X136952948Y-103549737D01*
X136735408Y-103331817D01*
X136627275Y-103286915D01*
X136627275Y-87071200D01*
X136627275Y-85344000D01*
X136602899Y-85218363D01*
X136530362Y-85107939D01*
X136420858Y-85034023D01*
X136291320Y-85008045D01*
X134564120Y-85008045D01*
X134438483Y-85032421D01*
X134328059Y-85104958D01*
X134254143Y-85214462D01*
X134228165Y-85344000D01*
X134228165Y-87071200D01*
X134252541Y-87196837D01*
X134325078Y-87307261D01*
X134434582Y-87381177D01*
X134564120Y-87407155D01*
X136291320Y-87407155D01*
X136416957Y-87382779D01*
X136527381Y-87310242D01*
X136601297Y-87200738D01*
X136627275Y-87071200D01*
X136627275Y-103286915D01*
X136454789Y-103215293D01*
X136485655Y-103169100D01*
X136576474Y-102712520D01*
X136485655Y-102255940D01*
X136227023Y-101868871D01*
X135839954Y-101610239D01*
X135383374Y-101519420D01*
X135336626Y-101519420D01*
X134880046Y-101610239D01*
X134492977Y-101868871D01*
X134234345Y-102255940D01*
X134143526Y-102712520D01*
X134234345Y-103169100D01*
X134477562Y-103533100D01*
X134104194Y-103533100D01*
X134104194Y-86207600D01*
X134104194Y-83667600D01*
X134013375Y-83211020D01*
X133754743Y-82823951D01*
X133367674Y-82565319D01*
X132911094Y-82474500D01*
X132864346Y-82474500D01*
X132407766Y-82565319D01*
X132020697Y-82823951D01*
X131762065Y-83211020D01*
X131671246Y-83667600D01*
X131762065Y-84124180D01*
X132020697Y-84511249D01*
X132407766Y-84769881D01*
X132864346Y-84860700D01*
X132911094Y-84860700D01*
X133367674Y-84769881D01*
X133754743Y-84511249D01*
X134013375Y-84124180D01*
X134104194Y-83667600D01*
X134104194Y-86207600D01*
X134013375Y-85751020D01*
X133754743Y-85363951D01*
X133367674Y-85105319D01*
X132911094Y-85014500D01*
X132864346Y-85014500D01*
X132407766Y-85105319D01*
X132020697Y-85363951D01*
X131762065Y-85751020D01*
X131671246Y-86207600D01*
X131762065Y-86664180D01*
X132020697Y-87051249D01*
X132407766Y-87309881D01*
X132864346Y-87400700D01*
X132911094Y-87400700D01*
X133367674Y-87309881D01*
X133754743Y-87051249D01*
X134013375Y-86664180D01*
X134104194Y-86207600D01*
X134104194Y-103533100D01*
X134084360Y-103533100D01*
X133855414Y-103304154D01*
X133945655Y-103169100D01*
X134036474Y-102712520D01*
X133945655Y-102255940D01*
X133687023Y-101868871D01*
X133299954Y-101610239D01*
X132843374Y-101519420D01*
X132796626Y-101519420D01*
X132340046Y-101610239D01*
X131952977Y-101868871D01*
X131694345Y-102255940D01*
X131603526Y-102712520D01*
X131694345Y-103169100D01*
X131952977Y-103556169D01*
X132340046Y-103814801D01*
X132796626Y-103905620D01*
X132843374Y-103905620D01*
X133116943Y-103851203D01*
X133574720Y-104308980D01*
X133722170Y-104407503D01*
X133722171Y-104407503D01*
X133896100Y-104442100D01*
X134470774Y-104442100D01*
X134234345Y-104795940D01*
X134143526Y-105252520D01*
X134234345Y-105709100D01*
X134492977Y-106096169D01*
X134880046Y-106354801D01*
X135336626Y-106445620D01*
X135383374Y-106445620D01*
X135839954Y-106354801D01*
X136227023Y-106096169D01*
X136485655Y-105709100D01*
X136576474Y-105252520D01*
X136485655Y-104795940D01*
X136459961Y-104757487D01*
X136734263Y-104644148D01*
X136952183Y-104426608D01*
X137070266Y-104142234D01*
X137070534Y-103834317D01*
X137070534Y-113946500D01*
X136559555Y-113946500D01*
X136559555Y-108656120D01*
X136559555Y-106928920D01*
X136535179Y-106803283D01*
X136462642Y-106692859D01*
X136353138Y-106618943D01*
X136223600Y-106592965D01*
X134496400Y-106592965D01*
X134370763Y-106617341D01*
X134260339Y-106689878D01*
X134186423Y-106799382D01*
X134160445Y-106928920D01*
X134160445Y-108656120D01*
X134184821Y-108781757D01*
X134257358Y-108892181D01*
X134366862Y-108966097D01*
X134496400Y-108992075D01*
X136223600Y-108992075D01*
X136349237Y-108967699D01*
X136459661Y-108895162D01*
X136533577Y-108785658D01*
X136559555Y-108656120D01*
X136559555Y-113946500D01*
X134036474Y-113946500D01*
X134036474Y-107792520D01*
X134036474Y-105252520D01*
X133945655Y-104795940D01*
X133687023Y-104408871D01*
X133299954Y-104150239D01*
X132843374Y-104059420D01*
X132796626Y-104059420D01*
X132340046Y-104150239D01*
X131952977Y-104408871D01*
X131694345Y-104795940D01*
X131603526Y-105252520D01*
X131694345Y-105709100D01*
X131952977Y-106096169D01*
X132340046Y-106354801D01*
X132796626Y-106445620D01*
X132843374Y-106445620D01*
X133299954Y-106354801D01*
X133687023Y-106096169D01*
X133945655Y-105709100D01*
X134036474Y-105252520D01*
X134036474Y-107792520D01*
X133945655Y-107335940D01*
X133687023Y-106948871D01*
X133299954Y-106690239D01*
X132843374Y-106599420D01*
X132796626Y-106599420D01*
X132340046Y-106690239D01*
X131952977Y-106948871D01*
X131694345Y-107335940D01*
X131603526Y-107792520D01*
X131694345Y-108249100D01*
X131952977Y-108636169D01*
X132340046Y-108894801D01*
X132796626Y-108985620D01*
X132843374Y-108985620D01*
X133299954Y-108894801D01*
X133687023Y-108636169D01*
X133945655Y-108249100D01*
X134036474Y-107792520D01*
X134036474Y-113946500D01*
X130657860Y-113946500D01*
X126057474Y-113946500D01*
X126057474Y-111379000D01*
X125966655Y-110922420D01*
X125708023Y-110535351D01*
X125320954Y-110276719D01*
X124864374Y-110185900D01*
X124817626Y-110185900D01*
X124361046Y-110276719D01*
X123973977Y-110535351D01*
X123715345Y-110922420D01*
X123624526Y-111379000D01*
X123715345Y-111835580D01*
X123973977Y-112222649D01*
X124361046Y-112481281D01*
X124817626Y-112572100D01*
X124864374Y-112572100D01*
X125320954Y-112481281D01*
X125708023Y-112222649D01*
X125966655Y-111835580D01*
X126057474Y-111379000D01*
X126057474Y-113946500D01*
X123517474Y-113946500D01*
X123517474Y-111379000D01*
X123426655Y-110922420D01*
X123168023Y-110535351D01*
X122780954Y-110276719D01*
X122324374Y-110185900D01*
X122277626Y-110185900D01*
X121821046Y-110276719D01*
X121433977Y-110535351D01*
X121175345Y-110922420D01*
X121084526Y-111379000D01*
X121175345Y-111835580D01*
X121433977Y-112222649D01*
X121821046Y-112481281D01*
X122277626Y-112572100D01*
X122324374Y-112572100D01*
X122780954Y-112481281D01*
X123168023Y-112222649D01*
X123426655Y-111835580D01*
X123517474Y-111379000D01*
X123517474Y-113946500D01*
X119709500Y-113946500D01*
X119709500Y-111977666D01*
X119709500Y-111745535D01*
X119709500Y-111322375D01*
X119563625Y-111176500D01*
X118288500Y-111176500D01*
X118288500Y-112299225D01*
X118434375Y-112445100D01*
X119242065Y-112445100D01*
X119456526Y-112356268D01*
X119620667Y-112192126D01*
X119709500Y-111977666D01*
X119709500Y-113946500D01*
X117890818Y-113946500D01*
X117507919Y-113870336D01*
X117212832Y-113673165D01*
X117015663Y-113378079D01*
X116939500Y-112995181D01*
X116939500Y-112429179D01*
X116977935Y-112445100D01*
X117785625Y-112445100D01*
X117931500Y-112299225D01*
X117931500Y-111176500D01*
X117911500Y-111176500D01*
X117911500Y-110819500D01*
X117931500Y-110819500D01*
X117931500Y-110799500D01*
X118288500Y-110799500D01*
X118288500Y-110819500D01*
X119563625Y-110819500D01*
X119709500Y-110673625D01*
X119709500Y-110250465D01*
X119709500Y-110018334D01*
X119620667Y-109803874D01*
X119456526Y-109639732D01*
X119242065Y-109550900D01*
X118759379Y-109550900D01*
X119132409Y-109301649D01*
X119391041Y-108914580D01*
X119481860Y-108458000D01*
X119391041Y-108001420D01*
X119318261Y-107892498D01*
X120264873Y-106945886D01*
X120549283Y-106946134D01*
X120833863Y-106828548D01*
X121051783Y-106611008D01*
X121115882Y-106456640D01*
X121175345Y-106755580D01*
X121433977Y-107142649D01*
X121821046Y-107401281D01*
X122277626Y-107492100D01*
X122324374Y-107492100D01*
X122780954Y-107401281D01*
X123051000Y-107220841D01*
X123051000Y-107506912D01*
X122805075Y-107752836D01*
X122780954Y-107736719D01*
X122324374Y-107645900D01*
X122277626Y-107645900D01*
X121821046Y-107736719D01*
X121433977Y-107995351D01*
X121175345Y-108382420D01*
X121084526Y-108839000D01*
X121175345Y-109295580D01*
X121433977Y-109682649D01*
X121821046Y-109941281D01*
X122277626Y-110032100D01*
X122324374Y-110032100D01*
X122780954Y-109941281D01*
X123168023Y-109682649D01*
X123426655Y-109295580D01*
X123517474Y-108839000D01*
X123433293Y-108415794D01*
X123830294Y-108018794D01*
X123929251Y-107870695D01*
X123964000Y-107696000D01*
X123964000Y-107127717D01*
X123973977Y-107142649D01*
X124361046Y-107401281D01*
X124817626Y-107492100D01*
X124864374Y-107492100D01*
X125259180Y-107413568D01*
X125972000Y-108126388D01*
X125972000Y-108409291D01*
X125966655Y-108382420D01*
X125708023Y-107995351D01*
X125320954Y-107736719D01*
X124864374Y-107645900D01*
X124817626Y-107645900D01*
X124361046Y-107736719D01*
X123973977Y-107995351D01*
X123715345Y-108382420D01*
X123624526Y-108839000D01*
X123715345Y-109295580D01*
X123973977Y-109682649D01*
X124361046Y-109941281D01*
X124817626Y-110032100D01*
X124864374Y-110032100D01*
X125320954Y-109941281D01*
X125708023Y-109682649D01*
X125966655Y-109295580D01*
X125972000Y-109268708D01*
X125972000Y-110172500D01*
X126006749Y-110347195D01*
X126105706Y-110495294D01*
X127058205Y-111447794D01*
X127058206Y-111447794D01*
X127206305Y-111546751D01*
X127381000Y-111581500D01*
X127877943Y-111581500D01*
X127877959Y-111581580D01*
X128136591Y-111968649D01*
X128523660Y-112227281D01*
X128980240Y-112318100D01*
X129337760Y-112318100D01*
X129794340Y-112227281D01*
X130181409Y-111968649D01*
X130440041Y-111581580D01*
X130530860Y-111125000D01*
X130530860Y-108585000D01*
X130440041Y-108128420D01*
X130181409Y-107741351D01*
X129794340Y-107482719D01*
X129337760Y-107391900D01*
X128980240Y-107391900D01*
X128523660Y-107482719D01*
X128136591Y-107741351D01*
X127877959Y-108128420D01*
X127787140Y-108585000D01*
X127877959Y-109041580D01*
X128136591Y-109428649D01*
X128523660Y-109687281D01*
X128980240Y-109778100D01*
X129337760Y-109778100D01*
X129794340Y-109687281D01*
X130181409Y-109428649D01*
X130440041Y-109041580D01*
X130530860Y-108585000D01*
X130530860Y-111125000D01*
X130440041Y-110668420D01*
X130181409Y-110281351D01*
X129794340Y-110022719D01*
X129337760Y-109931900D01*
X128980240Y-109931900D01*
X128523660Y-110022719D01*
X128136591Y-110281351D01*
X127877959Y-110668420D01*
X127877943Y-110668500D01*
X127570088Y-110668500D01*
X126885000Y-109983411D01*
X126885000Y-107937300D01*
X126850251Y-107762605D01*
X126751294Y-107614506D01*
X126751294Y-107614505D01*
X125936899Y-106800111D01*
X125966655Y-106755580D01*
X126057474Y-106299000D01*
X125966655Y-105842420D01*
X125728167Y-105485500D01*
X126239411Y-105485500D01*
X126607111Y-105853199D01*
X126606866Y-106134783D01*
X126724452Y-106419363D01*
X126941992Y-106637283D01*
X127226366Y-106755366D01*
X127534283Y-106755634D01*
X127818863Y-106638048D01*
X127909012Y-106548055D01*
X128136591Y-106888649D01*
X128523660Y-107147281D01*
X128980240Y-107238100D01*
X129337760Y-107238100D01*
X129794340Y-107147281D01*
X130181409Y-106888649D01*
X130440041Y-106501580D01*
X130530860Y-106045000D01*
X130530860Y-103505000D01*
X130530860Y-100965000D01*
X130530860Y-98425000D01*
X130530860Y-95885000D01*
X130530860Y-89535000D01*
X130530860Y-86995000D01*
X130530860Y-84455000D01*
X130530860Y-81915000D01*
X130530860Y-79375000D01*
X130530860Y-76835000D01*
X130530860Y-74295000D01*
X130530860Y-67818000D01*
X130530860Y-65278000D01*
X130530860Y-62738000D01*
X130530860Y-60198000D01*
X130530860Y-57658000D01*
X130530860Y-55118000D01*
X130530860Y-52578000D01*
X130440041Y-52121420D01*
X130181409Y-51734351D01*
X129794340Y-51475719D01*
X129337760Y-51384900D01*
X128980240Y-51384900D01*
X128523660Y-51475719D01*
X128136591Y-51734351D01*
X127877959Y-52121420D01*
X127787140Y-52578000D01*
X127877959Y-53034580D01*
X128136591Y-53421649D01*
X128523660Y-53680281D01*
X128980240Y-53771100D01*
X129337760Y-53771100D01*
X129794340Y-53680281D01*
X130181409Y-53421649D01*
X130440041Y-53034580D01*
X130530860Y-52578000D01*
X130530860Y-55118000D01*
X130440041Y-54661420D01*
X130181409Y-54274351D01*
X129794340Y-54015719D01*
X129337760Y-53924900D01*
X128980240Y-53924900D01*
X128523660Y-54015719D01*
X128136591Y-54274351D01*
X127877959Y-54661420D01*
X127787140Y-55118000D01*
X127877959Y-55574580D01*
X128136591Y-55961649D01*
X128523660Y-56220281D01*
X128980240Y-56311100D01*
X129337760Y-56311100D01*
X129794340Y-56220281D01*
X130181409Y-55961649D01*
X130440041Y-55574580D01*
X130530860Y-55118000D01*
X130530860Y-57658000D01*
X130440041Y-57201420D01*
X130181409Y-56814351D01*
X129794340Y-56555719D01*
X129337760Y-56464900D01*
X128980240Y-56464900D01*
X128523660Y-56555719D01*
X128136591Y-56814351D01*
X127877959Y-57201420D01*
X127787140Y-57658000D01*
X127877959Y-58114580D01*
X128136591Y-58501649D01*
X128523660Y-58760281D01*
X128980240Y-58851100D01*
X129337760Y-58851100D01*
X129794340Y-58760281D01*
X130181409Y-58501649D01*
X130440041Y-58114580D01*
X130530860Y-57658000D01*
X130530860Y-60198000D01*
X130440041Y-59741420D01*
X130181409Y-59354351D01*
X129794340Y-59095719D01*
X129337760Y-59004900D01*
X128980240Y-59004900D01*
X128523660Y-59095719D01*
X128136591Y-59354351D01*
X127877959Y-59741420D01*
X127787140Y-60198000D01*
X127877959Y-60654580D01*
X128136591Y-61041649D01*
X128523660Y-61300281D01*
X128980240Y-61391100D01*
X129337760Y-61391100D01*
X129794340Y-61300281D01*
X130181409Y-61041649D01*
X130440041Y-60654580D01*
X130530860Y-60198000D01*
X130530860Y-62738000D01*
X130440041Y-62281420D01*
X130181409Y-61894351D01*
X129794340Y-61635719D01*
X129337760Y-61544900D01*
X128980240Y-61544900D01*
X128523660Y-61635719D01*
X128136591Y-61894351D01*
X127877959Y-62281420D01*
X127787140Y-62738000D01*
X127877959Y-63194580D01*
X128136591Y-63581649D01*
X128523660Y-63840281D01*
X128980240Y-63931100D01*
X129337760Y-63931100D01*
X129794340Y-63840281D01*
X130181409Y-63581649D01*
X130440041Y-63194580D01*
X130530860Y-62738000D01*
X130530860Y-65278000D01*
X130440041Y-64821420D01*
X130181409Y-64434351D01*
X129794340Y-64175719D01*
X129337760Y-64084900D01*
X128980240Y-64084900D01*
X128523660Y-64175719D01*
X128136591Y-64434351D01*
X127877959Y-64821420D01*
X127787140Y-65278000D01*
X127823822Y-65462417D01*
X127448626Y-65837613D01*
X127164217Y-65837366D01*
X126879637Y-65954952D01*
X126661717Y-66172492D01*
X126543634Y-66456866D01*
X126543366Y-66764783D01*
X126660952Y-67049363D01*
X126878492Y-67267283D01*
X127162866Y-67385366D01*
X127470783Y-67385634D01*
X127755363Y-67268048D01*
X127973283Y-67050508D01*
X128091366Y-66766134D01*
X128091614Y-66480145D01*
X128324532Y-66247227D01*
X128523660Y-66380281D01*
X128980240Y-66471100D01*
X129337760Y-66471100D01*
X129794340Y-66380281D01*
X130181409Y-66121649D01*
X130440041Y-65734580D01*
X130530860Y-65278000D01*
X130530860Y-67818000D01*
X130440041Y-67361420D01*
X130181409Y-66974351D01*
X129794340Y-66715719D01*
X129337760Y-66624900D01*
X128980240Y-66624900D01*
X128523660Y-66715719D01*
X128136591Y-66974351D01*
X127877959Y-67361420D01*
X127787140Y-67818000D01*
X127877959Y-68274580D01*
X128018075Y-68484277D01*
X127377120Y-69125233D01*
X127278597Y-69272683D01*
X127244000Y-69446613D01*
X127244000Y-70741240D01*
X126940626Y-71044613D01*
X126656217Y-71044366D01*
X126371637Y-71161952D01*
X126153717Y-71379492D01*
X126057474Y-71611269D01*
X126057474Y-70739000D01*
X126057474Y-68199000D01*
X126057474Y-65659000D01*
X125966655Y-65202420D01*
X125708023Y-64815351D01*
X125320954Y-64556719D01*
X124864374Y-64465900D01*
X124817626Y-64465900D01*
X124361046Y-64556719D01*
X123973977Y-64815351D01*
X123715345Y-65202420D01*
X123624526Y-65659000D01*
X123715345Y-66115580D01*
X123973977Y-66502649D01*
X124361046Y-66761281D01*
X124817626Y-66852100D01*
X124864374Y-66852100D01*
X125320954Y-66761281D01*
X125708023Y-66502649D01*
X125966655Y-66115580D01*
X126057474Y-65659000D01*
X126057474Y-68199000D01*
X125966655Y-67742420D01*
X125708023Y-67355351D01*
X125320954Y-67096719D01*
X124864374Y-67005900D01*
X124817626Y-67005900D01*
X124361046Y-67096719D01*
X123973977Y-67355351D01*
X123715345Y-67742420D01*
X123624526Y-68199000D01*
X123715345Y-68655580D01*
X123973977Y-69042649D01*
X124361046Y-69301281D01*
X124817626Y-69392100D01*
X124864374Y-69392100D01*
X125320954Y-69301281D01*
X125708023Y-69042649D01*
X125966655Y-68655580D01*
X126057474Y-68199000D01*
X126057474Y-70739000D01*
X125966655Y-70282420D01*
X125708023Y-69895351D01*
X125320954Y-69636719D01*
X124864374Y-69545900D01*
X124817626Y-69545900D01*
X124361046Y-69636719D01*
X123973977Y-69895351D01*
X123715345Y-70282420D01*
X123624526Y-70739000D01*
X123715345Y-71195580D01*
X123973977Y-71582649D01*
X124361046Y-71841281D01*
X124817626Y-71932100D01*
X124864374Y-71932100D01*
X125320954Y-71841281D01*
X125708023Y-71582649D01*
X125966655Y-71195580D01*
X126057474Y-70739000D01*
X126057474Y-71611269D01*
X126035634Y-71663866D01*
X126035366Y-71971783D01*
X126152952Y-72256363D01*
X126370492Y-72474283D01*
X126654866Y-72592366D01*
X126962783Y-72592634D01*
X127247363Y-72475048D01*
X127465283Y-72257508D01*
X127583366Y-71973134D01*
X127583614Y-71687145D01*
X127807045Y-71463715D01*
X127807045Y-72618600D01*
X127831421Y-72744237D01*
X127903958Y-72854661D01*
X128013462Y-72928577D01*
X128143000Y-72954555D01*
X130175000Y-72954555D01*
X130300637Y-72930179D01*
X130411061Y-72857642D01*
X130484977Y-72748138D01*
X130510955Y-72618600D01*
X130510955Y-70891400D01*
X130486579Y-70765763D01*
X130414042Y-70655339D01*
X130304538Y-70581423D01*
X130175000Y-70555445D01*
X128153000Y-70555445D01*
X128153000Y-69634873D01*
X128810530Y-68977342D01*
X128980240Y-69011100D01*
X129337760Y-69011100D01*
X129794340Y-68920281D01*
X130181409Y-68661649D01*
X130440041Y-68274580D01*
X130530860Y-67818000D01*
X130530860Y-74295000D01*
X130440041Y-73838420D01*
X130181409Y-73451351D01*
X129794340Y-73192719D01*
X129337760Y-73101900D01*
X128980240Y-73101900D01*
X128523660Y-73192719D01*
X128136591Y-73451351D01*
X127877959Y-73838420D01*
X127787140Y-74295000D01*
X127877959Y-74751580D01*
X128136591Y-75138649D01*
X128523660Y-75397281D01*
X128980240Y-75488100D01*
X129337760Y-75488100D01*
X129794340Y-75397281D01*
X130181409Y-75138649D01*
X130440041Y-74751580D01*
X130530860Y-74295000D01*
X130530860Y-76835000D01*
X130440041Y-76378420D01*
X130181409Y-75991351D01*
X129794340Y-75732719D01*
X129337760Y-75641900D01*
X128980240Y-75641900D01*
X128523660Y-75732719D01*
X128136591Y-75991351D01*
X127877959Y-76378420D01*
X127787140Y-76835000D01*
X127877959Y-77291580D01*
X128136591Y-77678649D01*
X128523660Y-77937281D01*
X128980240Y-78028100D01*
X129337760Y-78028100D01*
X129794340Y-77937281D01*
X130181409Y-77678649D01*
X130440041Y-77291580D01*
X130530860Y-76835000D01*
X130530860Y-79375000D01*
X130440041Y-78918420D01*
X130181409Y-78531351D01*
X129794340Y-78272719D01*
X129337760Y-78181900D01*
X128980240Y-78181900D01*
X128523660Y-78272719D01*
X128136591Y-78531351D01*
X127877959Y-78918420D01*
X127787140Y-79375000D01*
X127877959Y-79831580D01*
X128136591Y-80218649D01*
X128523660Y-80477281D01*
X128980240Y-80568100D01*
X129337760Y-80568100D01*
X129794340Y-80477281D01*
X130181409Y-80218649D01*
X130440041Y-79831580D01*
X130530860Y-79375000D01*
X130530860Y-81915000D01*
X130440041Y-81458420D01*
X130181409Y-81071351D01*
X129794340Y-80812719D01*
X129337760Y-80721900D01*
X128980240Y-80721900D01*
X128523660Y-80812719D01*
X128136591Y-81071351D01*
X127877959Y-81458420D01*
X127787140Y-81915000D01*
X127877959Y-82371580D01*
X128136591Y-82758649D01*
X128523660Y-83017281D01*
X128980240Y-83108100D01*
X129337760Y-83108100D01*
X129794340Y-83017281D01*
X130181409Y-82758649D01*
X130440041Y-82371580D01*
X130530860Y-81915000D01*
X130530860Y-84455000D01*
X130440041Y-83998420D01*
X130181409Y-83611351D01*
X129794340Y-83352719D01*
X129337760Y-83261900D01*
X128980240Y-83261900D01*
X128523660Y-83352719D01*
X128136591Y-83611351D01*
X127877959Y-83998420D01*
X127787140Y-84455000D01*
X127877959Y-84911580D01*
X128136591Y-85298649D01*
X128523660Y-85557281D01*
X128980240Y-85648100D01*
X129337760Y-85648100D01*
X129794340Y-85557281D01*
X130181409Y-85298649D01*
X130440041Y-84911580D01*
X130530860Y-84455000D01*
X130530860Y-86995000D01*
X130440041Y-86538420D01*
X130181409Y-86151351D01*
X129794340Y-85892719D01*
X129337760Y-85801900D01*
X128980240Y-85801900D01*
X128523660Y-85892719D01*
X128136591Y-86151351D01*
X127877959Y-86538420D01*
X127874911Y-86553740D01*
X127335656Y-86553740D01*
X127121508Y-86339217D01*
X126837134Y-86221134D01*
X126529217Y-86220866D01*
X126244637Y-86338452D01*
X126057474Y-86525288D01*
X126057474Y-85979000D01*
X126057474Y-83439000D01*
X126057474Y-80899000D01*
X126057474Y-78359000D01*
X126057474Y-75819000D01*
X126057474Y-73279000D01*
X125966655Y-72822420D01*
X125708023Y-72435351D01*
X125320954Y-72176719D01*
X124864374Y-72085900D01*
X124817626Y-72085900D01*
X124361046Y-72176719D01*
X123973977Y-72435351D01*
X123715345Y-72822420D01*
X123624526Y-73279000D01*
X123715345Y-73735580D01*
X123973977Y-74122649D01*
X124361046Y-74381281D01*
X124817626Y-74472100D01*
X124864374Y-74472100D01*
X125320954Y-74381281D01*
X125708023Y-74122649D01*
X125966655Y-73735580D01*
X126057474Y-73279000D01*
X126057474Y-75819000D01*
X125966655Y-75362420D01*
X125708023Y-74975351D01*
X125320954Y-74716719D01*
X124864374Y-74625900D01*
X124817626Y-74625900D01*
X124361046Y-74716719D01*
X123973977Y-74975351D01*
X123715345Y-75362420D01*
X123624526Y-75819000D01*
X123715345Y-76275580D01*
X123973977Y-76662649D01*
X124361046Y-76921281D01*
X124817626Y-77012100D01*
X124864374Y-77012100D01*
X125320954Y-76921281D01*
X125708023Y-76662649D01*
X125966655Y-76275580D01*
X126057474Y-75819000D01*
X126057474Y-78359000D01*
X125966655Y-77902420D01*
X125708023Y-77515351D01*
X125320954Y-77256719D01*
X124864374Y-77165900D01*
X124817626Y-77165900D01*
X124361046Y-77256719D01*
X123973977Y-77515351D01*
X123715345Y-77902420D01*
X123624526Y-78359000D01*
X123715345Y-78815580D01*
X123973977Y-79202649D01*
X124361046Y-79461281D01*
X124817626Y-79552100D01*
X124864374Y-79552100D01*
X125320954Y-79461281D01*
X125708023Y-79202649D01*
X125966655Y-78815580D01*
X126057474Y-78359000D01*
X126057474Y-80899000D01*
X125966655Y-80442420D01*
X125708023Y-80055351D01*
X125320954Y-79796719D01*
X124864374Y-79705900D01*
X124817626Y-79705900D01*
X124361046Y-79796719D01*
X123973977Y-80055351D01*
X123715345Y-80442420D01*
X123624526Y-80899000D01*
X123715345Y-81355580D01*
X123973977Y-81742649D01*
X124361046Y-82001281D01*
X124817626Y-82092100D01*
X124864374Y-82092100D01*
X125320954Y-82001281D01*
X125708023Y-81742649D01*
X125966655Y-81355580D01*
X126057474Y-80899000D01*
X126057474Y-83439000D01*
X125966655Y-82982420D01*
X125708023Y-82595351D01*
X125320954Y-82336719D01*
X124864374Y-82245900D01*
X124817626Y-82245900D01*
X124361046Y-82336719D01*
X123973977Y-82595351D01*
X123715345Y-82982420D01*
X123624526Y-83439000D01*
X123715345Y-83895580D01*
X123973977Y-84282649D01*
X124361046Y-84541281D01*
X124817626Y-84632100D01*
X124864374Y-84632100D01*
X125320954Y-84541281D01*
X125708023Y-84282649D01*
X125966655Y-83895580D01*
X126057474Y-83439000D01*
X126057474Y-85979000D01*
X125966655Y-85522420D01*
X125708023Y-85135351D01*
X125320954Y-84876719D01*
X124864374Y-84785900D01*
X124817626Y-84785900D01*
X124361046Y-84876719D01*
X123973977Y-85135351D01*
X123715345Y-85522420D01*
X123624526Y-85979000D01*
X123715345Y-86435580D01*
X123973977Y-86822649D01*
X124361046Y-87081281D01*
X124817626Y-87172100D01*
X124864374Y-87172100D01*
X125320954Y-87081281D01*
X125708023Y-86822649D01*
X125966655Y-86435580D01*
X126057474Y-85979000D01*
X126057474Y-86525288D01*
X126026717Y-86555992D01*
X125908634Y-86840366D01*
X125908366Y-87148283D01*
X126025952Y-87432863D01*
X126243492Y-87650783D01*
X126527866Y-87768866D01*
X126835783Y-87769134D01*
X127120363Y-87651548D01*
X127305493Y-87466740D01*
X127888088Y-87466740D01*
X128136591Y-87838649D01*
X128523660Y-88097281D01*
X128980240Y-88188100D01*
X129337760Y-88188100D01*
X129794340Y-88097281D01*
X130181409Y-87838649D01*
X130440041Y-87451580D01*
X130530860Y-86995000D01*
X130530860Y-89535000D01*
X130440041Y-89078420D01*
X130181409Y-88691351D01*
X129794340Y-88432719D01*
X129337760Y-88341900D01*
X128980240Y-88341900D01*
X128523660Y-88432719D01*
X128136591Y-88691351D01*
X127877959Y-89078420D01*
X127874513Y-89095740D01*
X127337874Y-89095740D01*
X127248508Y-89006217D01*
X126964134Y-88888134D01*
X126656217Y-88887866D01*
X126371637Y-89005452D01*
X126153717Y-89222992D01*
X126057474Y-89454769D01*
X126057474Y-88519000D01*
X125966655Y-88062420D01*
X125708023Y-87675351D01*
X125320954Y-87416719D01*
X124864374Y-87325900D01*
X124817626Y-87325900D01*
X124361046Y-87416719D01*
X123973977Y-87675351D01*
X123715345Y-88062420D01*
X123624526Y-88519000D01*
X123715345Y-88975580D01*
X123973977Y-89362649D01*
X124361046Y-89621281D01*
X124817626Y-89712100D01*
X124864374Y-89712100D01*
X125320954Y-89621281D01*
X125708023Y-89362649D01*
X125966655Y-88975580D01*
X126057474Y-88519000D01*
X126057474Y-89454769D01*
X126035634Y-89507366D01*
X126035366Y-89815283D01*
X126152952Y-90099863D01*
X126370492Y-90317783D01*
X126654866Y-90435866D01*
X126962783Y-90436134D01*
X127247363Y-90318548D01*
X127465283Y-90101008D01*
X127505257Y-90004740D01*
X127886752Y-90004740D01*
X128136591Y-90378649D01*
X128523660Y-90637281D01*
X128980240Y-90728100D01*
X129337760Y-90728100D01*
X129794340Y-90637281D01*
X130181409Y-90378649D01*
X130440041Y-89991580D01*
X130530860Y-89535000D01*
X130530860Y-95885000D01*
X130510955Y-95784930D01*
X130510955Y-94208600D01*
X130510955Y-92481400D01*
X130486579Y-92355763D01*
X130414042Y-92245339D01*
X130304538Y-92171423D01*
X130175000Y-92145445D01*
X128143000Y-92145445D01*
X128017363Y-92169821D01*
X127906939Y-92242358D01*
X127833023Y-92351862D01*
X127807045Y-92481400D01*
X127807045Y-94208600D01*
X127831421Y-94334237D01*
X127903958Y-94444661D01*
X128013462Y-94518577D01*
X128143000Y-94544555D01*
X130175000Y-94544555D01*
X130300637Y-94520179D01*
X130411061Y-94447642D01*
X130484977Y-94338138D01*
X130510955Y-94208600D01*
X130510955Y-95784930D01*
X130440041Y-95428420D01*
X130181409Y-95041351D01*
X129794340Y-94782719D01*
X129337760Y-94691900D01*
X128980240Y-94691900D01*
X128523660Y-94782719D01*
X128136591Y-95041351D01*
X127877959Y-95428420D01*
X127787140Y-95885000D01*
X127877959Y-96341580D01*
X128136591Y-96728649D01*
X128523660Y-96987281D01*
X128980240Y-97078100D01*
X129337760Y-97078100D01*
X129794340Y-96987281D01*
X130181409Y-96728649D01*
X130440041Y-96341580D01*
X130530860Y-95885000D01*
X130530860Y-98425000D01*
X130440041Y-97968420D01*
X130181409Y-97581351D01*
X129794340Y-97322719D01*
X129337760Y-97231900D01*
X128980240Y-97231900D01*
X128523660Y-97322719D01*
X128136591Y-97581351D01*
X127877959Y-97968420D01*
X127787140Y-98425000D01*
X127877959Y-98881580D01*
X128136591Y-99268649D01*
X128523660Y-99527281D01*
X128980240Y-99618100D01*
X129337760Y-99618100D01*
X129794340Y-99527281D01*
X130181409Y-99268649D01*
X130440041Y-98881580D01*
X130530860Y-98425000D01*
X130530860Y-100965000D01*
X130440041Y-100508420D01*
X130181409Y-100121351D01*
X129794340Y-99862719D01*
X129337760Y-99771900D01*
X128980240Y-99771900D01*
X128523660Y-99862719D01*
X128136591Y-100121351D01*
X127877959Y-100508420D01*
X127787140Y-100965000D01*
X127877959Y-101421580D01*
X128136591Y-101808649D01*
X128523660Y-102067281D01*
X128980240Y-102158100D01*
X129337760Y-102158100D01*
X129794340Y-102067281D01*
X130181409Y-101808649D01*
X130440041Y-101421580D01*
X130530860Y-100965000D01*
X130530860Y-103505000D01*
X130440041Y-103048420D01*
X130181409Y-102661351D01*
X129794340Y-102402719D01*
X129337760Y-102311900D01*
X128980240Y-102311900D01*
X128523660Y-102402719D01*
X128136591Y-102661351D01*
X127877959Y-103048420D01*
X127787140Y-103505000D01*
X127877959Y-103961580D01*
X128136591Y-104348649D01*
X128523660Y-104607281D01*
X128980240Y-104698100D01*
X129337760Y-104698100D01*
X129794340Y-104607281D01*
X130181409Y-104348649D01*
X130440041Y-103961580D01*
X130530860Y-103505000D01*
X130530860Y-106045000D01*
X130440041Y-105588420D01*
X130181409Y-105201351D01*
X129794340Y-104942719D01*
X129337760Y-104851900D01*
X128980240Y-104851900D01*
X128523660Y-104942719D01*
X128136591Y-105201351D01*
X127959873Y-105465826D01*
X127820008Y-105325717D01*
X127535634Y-105207634D01*
X127252476Y-105207387D01*
X126751294Y-104706206D01*
X126603195Y-104607249D01*
X126428500Y-104572500D01*
X125728167Y-104572500D01*
X125966655Y-104215580D01*
X126057474Y-103759000D01*
X126057474Y-101219000D01*
X126057474Y-98679000D01*
X126057474Y-96139000D01*
X126057474Y-93599000D01*
X126057474Y-91059000D01*
X125966655Y-90602420D01*
X125708023Y-90215351D01*
X125320954Y-89956719D01*
X124864374Y-89865900D01*
X124817626Y-89865900D01*
X124361046Y-89956719D01*
X123973977Y-90215351D01*
X123715345Y-90602420D01*
X123624526Y-91059000D01*
X123715345Y-91515580D01*
X123973977Y-91902649D01*
X124361046Y-92161281D01*
X124817626Y-92252100D01*
X124864374Y-92252100D01*
X125320954Y-92161281D01*
X125708023Y-91902649D01*
X125966655Y-91515580D01*
X126057474Y-91059000D01*
X126057474Y-93599000D01*
X125966655Y-93142420D01*
X125708023Y-92755351D01*
X125320954Y-92496719D01*
X124864374Y-92405900D01*
X124817626Y-92405900D01*
X124361046Y-92496719D01*
X123973977Y-92755351D01*
X123715345Y-93142420D01*
X123624526Y-93599000D01*
X123715345Y-94055580D01*
X123973977Y-94442649D01*
X124361046Y-94701281D01*
X124817626Y-94792100D01*
X124864374Y-94792100D01*
X125320954Y-94701281D01*
X125708023Y-94442649D01*
X125966655Y-94055580D01*
X126057474Y-93599000D01*
X126057474Y-96139000D01*
X125966655Y-95682420D01*
X125708023Y-95295351D01*
X125320954Y-95036719D01*
X124864374Y-94945900D01*
X124817626Y-94945900D01*
X124361046Y-95036719D01*
X123973977Y-95295351D01*
X123715345Y-95682420D01*
X123624526Y-96139000D01*
X123715345Y-96595580D01*
X123973977Y-96982649D01*
X124361046Y-97241281D01*
X124817626Y-97332100D01*
X124864374Y-97332100D01*
X125320954Y-97241281D01*
X125708023Y-96982649D01*
X125966655Y-96595580D01*
X126057474Y-96139000D01*
X126057474Y-98679000D01*
X125966655Y-98222420D01*
X125708023Y-97835351D01*
X125320954Y-97576719D01*
X124864374Y-97485900D01*
X124817626Y-97485900D01*
X124361046Y-97576719D01*
X123973977Y-97835351D01*
X123715345Y-98222420D01*
X123624526Y-98679000D01*
X123715345Y-99135580D01*
X123973977Y-99522649D01*
X124361046Y-99781281D01*
X124817626Y-99872100D01*
X124864374Y-99872100D01*
X125320954Y-99781281D01*
X125708023Y-99522649D01*
X125966655Y-99135580D01*
X126057474Y-98679000D01*
X126057474Y-101219000D01*
X125966655Y-100762420D01*
X125708023Y-100375351D01*
X125320954Y-100116719D01*
X124864374Y-100025900D01*
X124817626Y-100025900D01*
X124361046Y-100116719D01*
X123973977Y-100375351D01*
X123715345Y-100762420D01*
X123624526Y-101219000D01*
X123715345Y-101675580D01*
X123973977Y-102062649D01*
X124361046Y-102321281D01*
X124817626Y-102412100D01*
X124864374Y-102412100D01*
X125320954Y-102321281D01*
X125708023Y-102062649D01*
X125966655Y-101675580D01*
X126057474Y-101219000D01*
X126057474Y-103759000D01*
X125966655Y-103302420D01*
X125708023Y-102915351D01*
X125320954Y-102656719D01*
X124864374Y-102565900D01*
X124817626Y-102565900D01*
X124361046Y-102656719D01*
X123973977Y-102915351D01*
X123715345Y-103302420D01*
X123624526Y-103759000D01*
X123715345Y-104215580D01*
X123973977Y-104602649D01*
X124006083Y-104624101D01*
X123883206Y-104706206D01*
X123517474Y-105071938D01*
X123517474Y-103759000D01*
X123517474Y-101219000D01*
X123517474Y-98679000D01*
X123517474Y-96139000D01*
X123517474Y-93599000D01*
X123517474Y-91059000D01*
X123517474Y-88519000D01*
X123517474Y-85979000D01*
X123517474Y-83439000D01*
X123517474Y-80899000D01*
X123517474Y-78359000D01*
X123517474Y-75819000D01*
X123517474Y-73279000D01*
X123517474Y-70739000D01*
X123426655Y-70282420D01*
X123168023Y-69895351D01*
X122780954Y-69636719D01*
X122324374Y-69545900D01*
X122277626Y-69545900D01*
X121821046Y-69636719D01*
X121433977Y-69895351D01*
X121175345Y-70282420D01*
X121084526Y-70739000D01*
X121175345Y-71195580D01*
X121433977Y-71582649D01*
X121821046Y-71841281D01*
X122277626Y-71932100D01*
X122324374Y-71932100D01*
X122780954Y-71841281D01*
X123168023Y-71582649D01*
X123426655Y-71195580D01*
X123517474Y-70739000D01*
X123517474Y-73279000D01*
X123426655Y-72822420D01*
X123168023Y-72435351D01*
X122780954Y-72176719D01*
X122324374Y-72085900D01*
X122277626Y-72085900D01*
X121821046Y-72176719D01*
X121433977Y-72435351D01*
X121175345Y-72822420D01*
X121084526Y-73279000D01*
X121175345Y-73735580D01*
X121433977Y-74122649D01*
X121821046Y-74381281D01*
X122277626Y-74472100D01*
X122324374Y-74472100D01*
X122780954Y-74381281D01*
X123168023Y-74122649D01*
X123426655Y-73735580D01*
X123517474Y-73279000D01*
X123517474Y-75819000D01*
X123426655Y-75362420D01*
X123168023Y-74975351D01*
X122780954Y-74716719D01*
X122324374Y-74625900D01*
X122277626Y-74625900D01*
X121821046Y-74716719D01*
X121433977Y-74975351D01*
X121175345Y-75362420D01*
X121084526Y-75819000D01*
X121175345Y-76275580D01*
X121433977Y-76662649D01*
X121821046Y-76921281D01*
X122277626Y-77012100D01*
X122324374Y-77012100D01*
X122780954Y-76921281D01*
X123168023Y-76662649D01*
X123426655Y-76275580D01*
X123517474Y-75819000D01*
X123517474Y-78359000D01*
X123426655Y-77902420D01*
X123168023Y-77515351D01*
X122780954Y-77256719D01*
X122324374Y-77165900D01*
X122277626Y-77165900D01*
X121821046Y-77256719D01*
X121433977Y-77515351D01*
X121175345Y-77902420D01*
X121084526Y-78359000D01*
X121175345Y-78815580D01*
X121433977Y-79202649D01*
X121821046Y-79461281D01*
X122277626Y-79552100D01*
X122324374Y-79552100D01*
X122780954Y-79461281D01*
X123168023Y-79202649D01*
X123426655Y-78815580D01*
X123517474Y-78359000D01*
X123517474Y-80899000D01*
X123426655Y-80442420D01*
X123168023Y-80055351D01*
X122780954Y-79796719D01*
X122324374Y-79705900D01*
X122277626Y-79705900D01*
X121821046Y-79796719D01*
X121433977Y-80055351D01*
X121175345Y-80442420D01*
X121084526Y-80899000D01*
X121175345Y-81355580D01*
X121433977Y-81742649D01*
X121821046Y-82001281D01*
X122277626Y-82092100D01*
X122324374Y-82092100D01*
X122780954Y-82001281D01*
X123168023Y-81742649D01*
X123426655Y-81355580D01*
X123517474Y-80899000D01*
X123517474Y-83439000D01*
X123426655Y-82982420D01*
X123168023Y-82595351D01*
X122780954Y-82336719D01*
X122324374Y-82245900D01*
X122277626Y-82245900D01*
X121821046Y-82336719D01*
X121433977Y-82595351D01*
X121175345Y-82982420D01*
X121084526Y-83439000D01*
X121175345Y-83895580D01*
X121433977Y-84282649D01*
X121821046Y-84541281D01*
X122277626Y-84632100D01*
X122324374Y-84632100D01*
X122780954Y-84541281D01*
X123168023Y-84282649D01*
X123426655Y-83895580D01*
X123517474Y-83439000D01*
X123517474Y-85979000D01*
X123426655Y-85522420D01*
X123168023Y-85135351D01*
X122780954Y-84876719D01*
X122324374Y-84785900D01*
X122277626Y-84785900D01*
X121821046Y-84876719D01*
X121433977Y-85135351D01*
X121175345Y-85522420D01*
X121084526Y-85979000D01*
X121175345Y-86435580D01*
X121433977Y-86822649D01*
X121821046Y-87081281D01*
X122277626Y-87172100D01*
X122324374Y-87172100D01*
X122780954Y-87081281D01*
X123168023Y-86822649D01*
X123426655Y-86435580D01*
X123517474Y-85979000D01*
X123517474Y-88519000D01*
X123426655Y-88062420D01*
X123168023Y-87675351D01*
X122780954Y-87416719D01*
X122324374Y-87325900D01*
X122277626Y-87325900D01*
X121821046Y-87416719D01*
X121433977Y-87675351D01*
X121175345Y-88062420D01*
X121084526Y-88519000D01*
X121175345Y-88975580D01*
X121433977Y-89362649D01*
X121821046Y-89621281D01*
X122277626Y-89712100D01*
X122324374Y-89712100D01*
X122780954Y-89621281D01*
X123168023Y-89362649D01*
X123426655Y-88975580D01*
X123517474Y-88519000D01*
X123517474Y-91059000D01*
X123426655Y-90602420D01*
X123168023Y-90215351D01*
X122780954Y-89956719D01*
X122324374Y-89865900D01*
X122277626Y-89865900D01*
X121821046Y-89956719D01*
X121433977Y-90215351D01*
X121175345Y-90602420D01*
X121084526Y-91059000D01*
X121175345Y-91515580D01*
X121433977Y-91902649D01*
X121821046Y-92161281D01*
X122277626Y-92252100D01*
X122324374Y-92252100D01*
X122780954Y-92161281D01*
X123168023Y-91902649D01*
X123426655Y-91515580D01*
X123517474Y-91059000D01*
X123517474Y-93599000D01*
X123426655Y-93142420D01*
X123168023Y-92755351D01*
X122780954Y-92496719D01*
X122324374Y-92405900D01*
X122277626Y-92405900D01*
X121821046Y-92496719D01*
X121433977Y-92755351D01*
X121175345Y-93142420D01*
X121084526Y-93599000D01*
X121175345Y-94055580D01*
X121433977Y-94442649D01*
X121821046Y-94701281D01*
X122277626Y-94792100D01*
X122324374Y-94792100D01*
X122780954Y-94701281D01*
X123168023Y-94442649D01*
X123426655Y-94055580D01*
X123517474Y-93599000D01*
X123517474Y-96139000D01*
X123426655Y-95682420D01*
X123168023Y-95295351D01*
X122780954Y-95036719D01*
X122324374Y-94945900D01*
X122277626Y-94945900D01*
X121821046Y-95036719D01*
X121433977Y-95295351D01*
X121175345Y-95682420D01*
X121084526Y-96139000D01*
X121175345Y-96595580D01*
X121433977Y-96982649D01*
X121821046Y-97241281D01*
X122277626Y-97332100D01*
X122324374Y-97332100D01*
X122780954Y-97241281D01*
X123168023Y-96982649D01*
X123426655Y-96595580D01*
X123517474Y-96139000D01*
X123517474Y-98679000D01*
X123426655Y-98222420D01*
X123168023Y-97835351D01*
X122780954Y-97576719D01*
X122324374Y-97485900D01*
X122277626Y-97485900D01*
X121821046Y-97576719D01*
X121433977Y-97835351D01*
X121175345Y-98222420D01*
X121084526Y-98679000D01*
X121175345Y-99135580D01*
X121433977Y-99522649D01*
X121821046Y-99781281D01*
X122277626Y-99872100D01*
X122324374Y-99872100D01*
X122780954Y-99781281D01*
X123168023Y-99522649D01*
X123426655Y-99135580D01*
X123517474Y-98679000D01*
X123517474Y-101219000D01*
X123426655Y-100762420D01*
X123168023Y-100375351D01*
X122780954Y-100116719D01*
X122324374Y-100025900D01*
X122277626Y-100025900D01*
X121821046Y-100116719D01*
X121433977Y-100375351D01*
X121175345Y-100762420D01*
X121084526Y-101219000D01*
X121175345Y-101675580D01*
X121433977Y-102062649D01*
X121821046Y-102321281D01*
X122277626Y-102412100D01*
X122324374Y-102412100D01*
X122780954Y-102321281D01*
X123168023Y-102062649D01*
X123426655Y-101675580D01*
X123517474Y-101219000D01*
X123517474Y-103759000D01*
X123426655Y-103302420D01*
X123168023Y-102915351D01*
X122780954Y-102656719D01*
X122324374Y-102565900D01*
X122277626Y-102565900D01*
X121821046Y-102656719D01*
X121433977Y-102915351D01*
X121175345Y-103302420D01*
X121084526Y-103759000D01*
X121175345Y-104215580D01*
X121433977Y-104602649D01*
X121821046Y-104861281D01*
X122277626Y-104952100D01*
X122324374Y-104952100D01*
X122780954Y-104861281D01*
X123168023Y-104602649D01*
X123426655Y-104215580D01*
X123517474Y-103759000D01*
X123517474Y-105071938D01*
X123184706Y-105404706D01*
X123156161Y-105447425D01*
X122780954Y-105196719D01*
X122324374Y-105105900D01*
X122277626Y-105105900D01*
X121821046Y-105196719D01*
X121433977Y-105455351D01*
X121175345Y-105842420D01*
X121149979Y-105969940D01*
X121052548Y-105734137D01*
X120835008Y-105516217D01*
X120550634Y-105398134D01*
X120242717Y-105397866D01*
X119958137Y-105515452D01*
X119740217Y-105732992D01*
X119622134Y-106017366D01*
X119621885Y-106303354D01*
X118598691Y-107326548D01*
X118288760Y-107264900D01*
X117931240Y-107264900D01*
X117474660Y-107355719D01*
X117087591Y-107614351D01*
X116939500Y-107835984D01*
X116939500Y-106540015D01*
X117087591Y-106761649D01*
X117474660Y-107020281D01*
X117931240Y-107111100D01*
X118288760Y-107111100D01*
X118745340Y-107020281D01*
X119132409Y-106761649D01*
X119391041Y-106374580D01*
X119481860Y-105918000D01*
X119391041Y-105461420D01*
X119132409Y-105074351D01*
X118745340Y-104815719D01*
X118288760Y-104724900D01*
X117931240Y-104724900D01*
X117474660Y-104815719D01*
X117087591Y-105074351D01*
X116939500Y-105295984D01*
X116939500Y-86791084D01*
X116960591Y-86822649D01*
X117347660Y-87081281D01*
X117804240Y-87172100D01*
X118161760Y-87172100D01*
X118618340Y-87081281D01*
X119005409Y-86822649D01*
X119264041Y-86435580D01*
X119354860Y-85979000D01*
X119264041Y-85522420D01*
X119005409Y-85135351D01*
X118618340Y-84876719D01*
X118161760Y-84785900D01*
X117804240Y-84785900D01*
X117347660Y-84876719D01*
X116960591Y-85135351D01*
X116939500Y-85166915D01*
X116939500Y-84251084D01*
X116960591Y-84282649D01*
X117347660Y-84541281D01*
X117804240Y-84632100D01*
X118161760Y-84632100D01*
X118618340Y-84541281D01*
X119005409Y-84282649D01*
X119264041Y-83895580D01*
X119354860Y-83439000D01*
X119264041Y-82982420D01*
X119005409Y-82595351D01*
X118618340Y-82336719D01*
X118161760Y-82245900D01*
X117804240Y-82245900D01*
X117347660Y-82336719D01*
X116960591Y-82595351D01*
X116939500Y-82626915D01*
X116939500Y-81711084D01*
X116960591Y-81742649D01*
X117347660Y-82001281D01*
X117804240Y-82092100D01*
X118161760Y-82092100D01*
X118618340Y-82001281D01*
X119005409Y-81742649D01*
X119264041Y-81355580D01*
X119354860Y-80899000D01*
X119264041Y-80442420D01*
X119005409Y-80055351D01*
X118618340Y-79796719D01*
X118161760Y-79705900D01*
X117804240Y-79705900D01*
X117347660Y-79796719D01*
X116960591Y-80055351D01*
X116939500Y-80086915D01*
X116939500Y-79171084D01*
X116960591Y-79202649D01*
X117347660Y-79461281D01*
X117804240Y-79552100D01*
X118161760Y-79552100D01*
X118618340Y-79461281D01*
X119005409Y-79202649D01*
X119264041Y-78815580D01*
X119354860Y-78359000D01*
X119264041Y-77902420D01*
X119005409Y-77515351D01*
X118618340Y-77256719D01*
X118161760Y-77165900D01*
X117804240Y-77165900D01*
X117347660Y-77256719D01*
X116960591Y-77515351D01*
X116939500Y-77546915D01*
X116939500Y-76631084D01*
X116960591Y-76662649D01*
X117347660Y-76921281D01*
X117804240Y-77012100D01*
X118161760Y-77012100D01*
X118618340Y-76921281D01*
X119005409Y-76662649D01*
X119264041Y-76275580D01*
X119354860Y-75819000D01*
X119264041Y-75362420D01*
X119005409Y-74975351D01*
X118618340Y-74716719D01*
X118161760Y-74625900D01*
X117804240Y-74625900D01*
X117347660Y-74716719D01*
X116960591Y-74975351D01*
X116939500Y-75006915D01*
X116939500Y-74091084D01*
X116960591Y-74122649D01*
X117347660Y-74381281D01*
X117804240Y-74472100D01*
X118161760Y-74472100D01*
X118618340Y-74381281D01*
X119005409Y-74122649D01*
X119264041Y-73735580D01*
X119354860Y-73279000D01*
X119264041Y-72822420D01*
X119005409Y-72435351D01*
X118618340Y-72176719D01*
X118161760Y-72085900D01*
X117804240Y-72085900D01*
X117347660Y-72176719D01*
X116960591Y-72435351D01*
X116939500Y-72466915D01*
X116939500Y-71551084D01*
X116960591Y-71582649D01*
X117347660Y-71841281D01*
X117804240Y-71932100D01*
X118161760Y-71932100D01*
X118618340Y-71841281D01*
X119005409Y-71582649D01*
X119264041Y-71195580D01*
X119264454Y-71193500D01*
X119824500Y-71193500D01*
X119998429Y-71158903D01*
X119998430Y-71158903D01*
X120145880Y-71060380D01*
X121288880Y-69917380D01*
X121387403Y-69769930D01*
X121387403Y-69769929D01*
X121422000Y-69596000D01*
X121422000Y-69024724D01*
X121433977Y-69042649D01*
X121821046Y-69301281D01*
X122277626Y-69392100D01*
X122324374Y-69392100D01*
X122780954Y-69301281D01*
X123168023Y-69042649D01*
X123426655Y-68655580D01*
X123517474Y-68199000D01*
X123426655Y-67742420D01*
X123168023Y-67355351D01*
X122780954Y-67096719D01*
X122324374Y-67005900D01*
X122277626Y-67005900D01*
X121821046Y-67096719D01*
X121433977Y-67355351D01*
X121422000Y-67373275D01*
X121422000Y-66484724D01*
X121433977Y-66502649D01*
X121821046Y-66761281D01*
X122277626Y-66852100D01*
X122324374Y-66852100D01*
X122780954Y-66761281D01*
X123168023Y-66502649D01*
X123426655Y-66115580D01*
X123517474Y-65659000D01*
X123426655Y-65202420D01*
X123179753Y-64832907D01*
X123300429Y-64808903D01*
X123300430Y-64808903D01*
X123447880Y-64710380D01*
X123828880Y-64329380D01*
X123927403Y-64181930D01*
X123927403Y-64181929D01*
X123962000Y-64008000D01*
X123962000Y-63944724D01*
X123973977Y-63962649D01*
X124361046Y-64221281D01*
X124817626Y-64312100D01*
X124864374Y-64312100D01*
X125320954Y-64221281D01*
X125708023Y-63962649D01*
X125966655Y-63575580D01*
X126057474Y-63119000D01*
X125966655Y-62662420D01*
X125708023Y-62275351D01*
X125320954Y-62016719D01*
X124864374Y-61925900D01*
X124817626Y-61925900D01*
X124361046Y-62016719D01*
X123973977Y-62275351D01*
X123962000Y-62293275D01*
X123962000Y-61404724D01*
X123973977Y-61422649D01*
X124361046Y-61681281D01*
X124817626Y-61772100D01*
X124864374Y-61772100D01*
X125320954Y-61681281D01*
X125708023Y-61422649D01*
X125966655Y-61035580D01*
X126057474Y-60579000D01*
X126057474Y-58039000D01*
X126057474Y-55499000D01*
X125966655Y-55042420D01*
X125708023Y-54655351D01*
X125320954Y-54396719D01*
X124864374Y-54305900D01*
X124817626Y-54305900D01*
X124361046Y-54396719D01*
X123973977Y-54655351D01*
X123715345Y-55042420D01*
X123624526Y-55499000D01*
X123715345Y-55955580D01*
X123973977Y-56342649D01*
X124361046Y-56601281D01*
X124817626Y-56692100D01*
X124864374Y-56692100D01*
X125320954Y-56601281D01*
X125708023Y-56342649D01*
X125966655Y-55955580D01*
X126057474Y-55499000D01*
X126057474Y-58039000D01*
X125966655Y-57582420D01*
X125708023Y-57195351D01*
X125320954Y-56936719D01*
X124864374Y-56845900D01*
X124817626Y-56845900D01*
X124361046Y-56936719D01*
X123973977Y-57195351D01*
X123715345Y-57582420D01*
X123624526Y-58039000D01*
X123715345Y-58495580D01*
X123973977Y-58882649D01*
X124361046Y-59141281D01*
X124817626Y-59232100D01*
X124864374Y-59232100D01*
X125320954Y-59141281D01*
X125708023Y-58882649D01*
X125966655Y-58495580D01*
X126057474Y-58039000D01*
X126057474Y-60579000D01*
X125966655Y-60122420D01*
X125708023Y-59735351D01*
X125320954Y-59476719D01*
X124864374Y-59385900D01*
X124817626Y-59385900D01*
X124361046Y-59476719D01*
X123973977Y-59735351D01*
X123962000Y-59753275D01*
X123962000Y-59296300D01*
X123927403Y-59122371D01*
X123927403Y-59122370D01*
X123828880Y-58974920D01*
X123395767Y-58541807D01*
X123426655Y-58495580D01*
X123517474Y-58039000D01*
X123517474Y-55499000D01*
X123426655Y-55042420D01*
X123168023Y-54655351D01*
X122780954Y-54396719D01*
X122324374Y-54305900D01*
X122277626Y-54305900D01*
X121821046Y-54396719D01*
X121433977Y-54655351D01*
X121175345Y-55042420D01*
X121084526Y-55499000D01*
X121175345Y-55955580D01*
X121433977Y-56342649D01*
X121821046Y-56601281D01*
X122277626Y-56692100D01*
X122324374Y-56692100D01*
X122780954Y-56601281D01*
X123168023Y-56342649D01*
X123426655Y-55955580D01*
X123517474Y-55499000D01*
X123517474Y-58039000D01*
X123426655Y-57582420D01*
X123168023Y-57195351D01*
X122780954Y-56936719D01*
X122324374Y-56845900D01*
X122277626Y-56845900D01*
X121821046Y-56936719D01*
X121433977Y-57195351D01*
X121175345Y-57582420D01*
X121084526Y-58039000D01*
X121175345Y-58495580D01*
X121433977Y-58882649D01*
X121821046Y-59141281D01*
X122277626Y-59232100D01*
X122324374Y-59232100D01*
X122721539Y-59153099D01*
X123053000Y-59484560D01*
X123053000Y-59658494D01*
X122780954Y-59476719D01*
X122324374Y-59385900D01*
X122277626Y-59385900D01*
X121821046Y-59476719D01*
X121433977Y-59735351D01*
X121175345Y-60122420D01*
X121084526Y-60579000D01*
X121175345Y-61035580D01*
X121433977Y-61422649D01*
X121821046Y-61681281D01*
X122277626Y-61772100D01*
X122324374Y-61772100D01*
X122780954Y-61681281D01*
X123053000Y-61499505D01*
X123053000Y-62198494D01*
X122780954Y-62016719D01*
X122324374Y-61925900D01*
X122277626Y-61925900D01*
X121821046Y-62016719D01*
X121433977Y-62275351D01*
X121175345Y-62662420D01*
X121084526Y-63119000D01*
X121175345Y-63575580D01*
X121429695Y-63956242D01*
X121365070Y-63969097D01*
X121217620Y-64067620D01*
X120850500Y-64434740D01*
X120850500Y-54036260D01*
X121136030Y-53750729D01*
X121274840Y-53778340D01*
X121417734Y-53778340D01*
X121433977Y-53802649D01*
X121821046Y-54061281D01*
X122277626Y-54152100D01*
X122324374Y-54152100D01*
X122780954Y-54061281D01*
X123168023Y-53802649D01*
X123426655Y-53415580D01*
X123517474Y-52959000D01*
X123426655Y-52502420D01*
X123168023Y-52115351D01*
X122780954Y-51856719D01*
X122324374Y-51765900D01*
X122277626Y-51765900D01*
X121821046Y-51856719D01*
X121542157Y-52043067D01*
X121162000Y-51662910D01*
X121162000Y-51463312D01*
X121198358Y-51518661D01*
X121307862Y-51592577D01*
X121437400Y-51618555D01*
X123164600Y-51618555D01*
X123290237Y-51594179D01*
X123400661Y-51521642D01*
X123474577Y-51412138D01*
X123500555Y-51282600D01*
X123500555Y-50940675D01*
X123574281Y-51118687D01*
X123938463Y-51550179D01*
X124440048Y-51809459D01*
X124662498Y-51709188D01*
X124662498Y-51796756D01*
X124361046Y-51856719D01*
X123973977Y-52115351D01*
X123715345Y-52502420D01*
X123624526Y-52959000D01*
X123715345Y-53415580D01*
X123973977Y-53802649D01*
X124361046Y-54061281D01*
X124817626Y-54152100D01*
X124864374Y-54152100D01*
X125320954Y-54061281D01*
X125708023Y-53802649D01*
X125966655Y-53415580D01*
X126057474Y-52959000D01*
X125966655Y-52502420D01*
X125940364Y-52463073D01*
X126010283Y-52463134D01*
X126294863Y-52345548D01*
X126512783Y-52128008D01*
X126630866Y-51843634D01*
X126631134Y-51535717D01*
X126627630Y-51527236D01*
X126657903Y-51481930D01*
X126657903Y-51481929D01*
X126692500Y-51308000D01*
X126692500Y-49657000D01*
X126657904Y-49483071D01*
X126657903Y-49483070D01*
X126559380Y-49335620D01*
X126511888Y-49288128D01*
X126518283Y-49288134D01*
X126802863Y-49170548D01*
X127005263Y-48968500D01*
X127884567Y-48968500D01*
X127833023Y-49044862D01*
X127807045Y-49174400D01*
X127807045Y-50901600D01*
X127831421Y-51027237D01*
X127903958Y-51137661D01*
X128013462Y-51211577D01*
X128143000Y-51237555D01*
X130175000Y-51237555D01*
X130300637Y-51213179D01*
X130411061Y-51140642D01*
X130484977Y-51031138D01*
X130510955Y-50901600D01*
X130510955Y-49174400D01*
X130486579Y-49048763D01*
X130414042Y-48938339D01*
X130304538Y-48864423D01*
X130175000Y-48838445D01*
X128967792Y-48838445D01*
X128972380Y-48835380D01*
X129607380Y-48200380D01*
X129705903Y-48052930D01*
X129705904Y-48052929D01*
X129740500Y-47879000D01*
X129740500Y-46223252D01*
X129921340Y-46187281D01*
X130308409Y-45928649D01*
X130567041Y-45541580D01*
X130657860Y-45085000D01*
X130567041Y-44628420D01*
X130308409Y-44241351D01*
X129921340Y-43982719D01*
X129464760Y-43891900D01*
X129107240Y-43891900D01*
X128650660Y-43982719D01*
X128263591Y-44241351D01*
X128004959Y-44628420D01*
X127914140Y-45085000D01*
X128004959Y-45541580D01*
X128263591Y-45928649D01*
X128650660Y-46187281D01*
X128831500Y-46223252D01*
X128831500Y-47690740D01*
X128462740Y-48059500D01*
X127004940Y-48059500D01*
X126804008Y-47858217D01*
X126519634Y-47740134D01*
X126211717Y-47739866D01*
X125930500Y-47856062D01*
X125930500Y-46162260D01*
X128527663Y-43565096D01*
X128650660Y-43647281D01*
X129107240Y-43738100D01*
X129464760Y-43738100D01*
X129921340Y-43647281D01*
X130308409Y-43388649D01*
X130567041Y-43001580D01*
X130657860Y-42545000D01*
X130657860Y-40005000D01*
X130657860Y-37465000D01*
X130657860Y-34925000D01*
X130657860Y-32385000D01*
X130657860Y-29845000D01*
X130567041Y-29388420D01*
X130308409Y-29001351D01*
X129921340Y-28742719D01*
X129464760Y-28651900D01*
X129107240Y-28651900D01*
X128650660Y-28742719D01*
X128263591Y-29001351D01*
X128004959Y-29388420D01*
X127914140Y-29845000D01*
X128004959Y-30301580D01*
X128263591Y-30688649D01*
X128650660Y-30947281D01*
X129107240Y-31038100D01*
X129464760Y-31038100D01*
X129921340Y-30947281D01*
X130308409Y-30688649D01*
X130567041Y-30301580D01*
X130657860Y-29845000D01*
X130657860Y-32385000D01*
X130567041Y-31928420D01*
X130308409Y-31541351D01*
X129921340Y-31282719D01*
X129464760Y-31191900D01*
X129107240Y-31191900D01*
X128650660Y-31282719D01*
X128263591Y-31541351D01*
X128004959Y-31928420D01*
X127914140Y-32385000D01*
X128004959Y-32841580D01*
X128263591Y-33228649D01*
X128650660Y-33487281D01*
X129107240Y-33578100D01*
X129464760Y-33578100D01*
X129921340Y-33487281D01*
X130308409Y-33228649D01*
X130567041Y-32841580D01*
X130657860Y-32385000D01*
X130657860Y-34925000D01*
X130567041Y-34468420D01*
X130308409Y-34081351D01*
X129921340Y-33822719D01*
X129464760Y-33731900D01*
X129107240Y-33731900D01*
X128650660Y-33822719D01*
X128263591Y-34081351D01*
X128004959Y-34468420D01*
X127914140Y-34925000D01*
X128004959Y-35381580D01*
X128263591Y-35768649D01*
X128650660Y-36027281D01*
X129107240Y-36118100D01*
X129464760Y-36118100D01*
X129921340Y-36027281D01*
X130308409Y-35768649D01*
X130567041Y-35381580D01*
X130657860Y-34925000D01*
X130657860Y-37465000D01*
X130567041Y-37008420D01*
X130308409Y-36621351D01*
X129921340Y-36362719D01*
X129464760Y-36271900D01*
X129107240Y-36271900D01*
X128650660Y-36362719D01*
X128263591Y-36621351D01*
X128004959Y-37008420D01*
X127914140Y-37465000D01*
X128004959Y-37921580D01*
X128263591Y-38308649D01*
X128650660Y-38567281D01*
X129107240Y-38658100D01*
X129464760Y-38658100D01*
X129921340Y-38567281D01*
X130308409Y-38308649D01*
X130567041Y-37921580D01*
X130657860Y-37465000D01*
X130657860Y-40005000D01*
X130567041Y-39548420D01*
X130308409Y-39161351D01*
X129921340Y-38902719D01*
X129464760Y-38811900D01*
X129107240Y-38811900D01*
X128650660Y-38902719D01*
X128263591Y-39161351D01*
X128004959Y-39548420D01*
X127914140Y-40005000D01*
X128004959Y-40461580D01*
X128263591Y-40848649D01*
X128650660Y-41107281D01*
X129107240Y-41198100D01*
X129464760Y-41198100D01*
X129921340Y-41107281D01*
X130308409Y-40848649D01*
X130567041Y-40461580D01*
X130657860Y-40005000D01*
X130657860Y-42545000D01*
X130567041Y-42088420D01*
X130308409Y-41701351D01*
X129921340Y-41442719D01*
X129464760Y-41351900D01*
X129107240Y-41351900D01*
X128650660Y-41442719D01*
X128263591Y-41701351D01*
X128004959Y-42088420D01*
X127914140Y-42545000D01*
X127971893Y-42835346D01*
X126525133Y-44282106D01*
X126525133Y-32645845D01*
X126484044Y-31917592D01*
X126284402Y-31435612D01*
X126012395Y-31299042D01*
X125759958Y-31551479D01*
X125759958Y-31046605D01*
X125623388Y-30774598D01*
X124934845Y-30533867D01*
X124206592Y-30574956D01*
X123724612Y-30774598D01*
X123588042Y-31046605D01*
X124674000Y-32132563D01*
X125759958Y-31046605D01*
X125759958Y-31551479D01*
X124926437Y-32385000D01*
X126012395Y-33470958D01*
X126284402Y-33334388D01*
X126525133Y-32645845D01*
X126525133Y-44282106D01*
X126256028Y-44551211D01*
X126256028Y-42334958D01*
X126256028Y-41485042D01*
X125976024Y-40927281D01*
X125503888Y-40519130D01*
X125335770Y-40449500D01*
X125503888Y-40379870D01*
X125976024Y-39971719D01*
X126256028Y-39413958D01*
X126256028Y-38564042D01*
X125976024Y-38006281D01*
X125759958Y-37819496D01*
X125759958Y-33723395D01*
X124674000Y-32637437D01*
X123588042Y-33723395D01*
X123724612Y-33995402D01*
X124413155Y-34236133D01*
X125141408Y-34195044D01*
X125623388Y-33995402D01*
X125759958Y-33723395D01*
X125759958Y-37819496D01*
X125503888Y-37598130D01*
X125138956Y-37446984D01*
X124892500Y-37546376D01*
X124892500Y-38810500D01*
X126157646Y-38810500D01*
X126256028Y-38564042D01*
X126256028Y-39413958D01*
X126157646Y-39167500D01*
X124892500Y-39167500D01*
X124892500Y-40431624D01*
X124936825Y-40449500D01*
X124892500Y-40467376D01*
X124892500Y-41731500D01*
X126157646Y-41731500D01*
X126256028Y-41485042D01*
X126256028Y-42334958D01*
X126157646Y-42088500D01*
X124892500Y-42088500D01*
X124892500Y-43352624D01*
X125138956Y-43452016D01*
X125503888Y-43300870D01*
X125976024Y-42892719D01*
X126256028Y-42334958D01*
X126256028Y-44551211D01*
X125154620Y-45652620D01*
X125056097Y-45800070D01*
X125021500Y-45974000D01*
X125021500Y-48895000D01*
X125056097Y-49068930D01*
X125078376Y-49102273D01*
X125019500Y-49128812D01*
X125019500Y-50240500D01*
X125039500Y-50240500D01*
X125039500Y-50597500D01*
X125019500Y-50597500D01*
X125019500Y-50617500D01*
X124662500Y-50617500D01*
X124662500Y-50597500D01*
X124642500Y-50597500D01*
X124642500Y-50240500D01*
X124662500Y-50240500D01*
X124662500Y-49128812D01*
X124440048Y-49028541D01*
X123938463Y-49287821D01*
X123574281Y-49719313D01*
X123500555Y-49897324D01*
X123500555Y-49555400D01*
X123476179Y-49429763D01*
X123403642Y-49319339D01*
X123294138Y-49245423D01*
X123164600Y-49219445D01*
X121437400Y-49219445D01*
X121311763Y-49243821D01*
X121201339Y-49316358D01*
X121162000Y-49374637D01*
X121162000Y-43261955D01*
X123190000Y-43261955D01*
X123315637Y-43237579D01*
X123426061Y-43165042D01*
X123499977Y-43055538D01*
X123520712Y-42952140D01*
X123924112Y-43300870D01*
X124289044Y-43452016D01*
X124535500Y-43352624D01*
X124535500Y-42088500D01*
X124515500Y-42088500D01*
X124515500Y-41731500D01*
X124535500Y-41731500D01*
X124535500Y-40467376D01*
X124491174Y-40449500D01*
X124535500Y-40431624D01*
X124535500Y-39167500D01*
X124515500Y-39167500D01*
X124515500Y-38810500D01*
X124535500Y-38810500D01*
X124535500Y-37546376D01*
X124289044Y-37446984D01*
X123924112Y-37598130D01*
X123520858Y-37946733D01*
X123501579Y-37847363D01*
X123429042Y-37736939D01*
X123319538Y-37663023D01*
X123190000Y-37637045D01*
X123003500Y-37637045D01*
X123003500Y-33189298D01*
X123063598Y-33334388D01*
X123335605Y-33470958D01*
X124421563Y-32385000D01*
X123335605Y-31299042D01*
X123063598Y-31435612D01*
X123003500Y-31607505D01*
X123003500Y-27140590D01*
X123851090Y-26293000D01*
X127972754Y-26293000D01*
X127960023Y-26311862D01*
X127934045Y-26441400D01*
X127934045Y-28168600D01*
X127958421Y-28294237D01*
X128030958Y-28404661D01*
X128140462Y-28478577D01*
X128270000Y-28504555D01*
X130302000Y-28504555D01*
X130427637Y-28480179D01*
X130538061Y-28407642D01*
X130611977Y-28298138D01*
X130637955Y-28168600D01*
X130637955Y-26441400D01*
X130613579Y-26315763D01*
X130598626Y-26293000D01*
X140765336Y-26293000D01*
X140761045Y-26314400D01*
X140761045Y-28041600D01*
X140785421Y-28167237D01*
X140857958Y-28277661D01*
X140967462Y-28351577D01*
X141097000Y-28377555D01*
X141495212Y-28377555D01*
X141183079Y-28499153D01*
X140775832Y-28889477D01*
X140570155Y-29317050D01*
X140671676Y-29539500D01*
X141934500Y-29539500D01*
X141934500Y-29519500D01*
X142291500Y-29519500D01*
X142291500Y-29539500D01*
X143554324Y-29539500D01*
X143655845Y-29317050D01*
X143450168Y-28889477D01*
X143042921Y-28499153D01*
X142730787Y-28377555D01*
X143129000Y-28377555D01*
X143254637Y-28353179D01*
X143365061Y-28280642D01*
X143438977Y-28171138D01*
X143464955Y-28041600D01*
X143464955Y-26314400D01*
X143460802Y-26293000D01*
X143547410Y-26293000D01*
X147633500Y-30379090D01*
X147633500Y-40182110D01*
X146995140Y-40820470D01*
X146995140Y-40106600D01*
X146995140Y-37566600D01*
X146995140Y-35026600D01*
X146975235Y-34926530D01*
X146975235Y-33350200D01*
X146975235Y-31623000D01*
X146950859Y-31497363D01*
X146878322Y-31386939D01*
X146768818Y-31313023D01*
X146639280Y-31287045D01*
X144607280Y-31287045D01*
X144481643Y-31311421D01*
X144371219Y-31383958D01*
X144297303Y-31493462D01*
X144271325Y-31623000D01*
X144271325Y-33350200D01*
X144295701Y-33475837D01*
X144368238Y-33586261D01*
X144477742Y-33660177D01*
X144607280Y-33686155D01*
X146639280Y-33686155D01*
X146764917Y-33661779D01*
X146875341Y-33589242D01*
X146949257Y-33479738D01*
X146975235Y-33350200D01*
X146975235Y-34926530D01*
X146904321Y-34570020D01*
X146645689Y-34182951D01*
X146258620Y-33924319D01*
X145802040Y-33833500D01*
X145444520Y-33833500D01*
X144987940Y-33924319D01*
X144600871Y-34182951D01*
X144342239Y-34570020D01*
X144251420Y-35026600D01*
X144342239Y-35483180D01*
X144600871Y-35870249D01*
X144987940Y-36128881D01*
X145444520Y-36219700D01*
X145802040Y-36219700D01*
X146258620Y-36128881D01*
X146645689Y-35870249D01*
X146904321Y-35483180D01*
X146995140Y-35026600D01*
X146995140Y-37566600D01*
X146904321Y-37110020D01*
X146645689Y-36722951D01*
X146258620Y-36464319D01*
X145802040Y-36373500D01*
X145444520Y-36373500D01*
X144987940Y-36464319D01*
X144600871Y-36722951D01*
X144342239Y-37110020D01*
X144251420Y-37566600D01*
X144342239Y-38023180D01*
X144600871Y-38410249D01*
X144987940Y-38668881D01*
X145444520Y-38759700D01*
X145802040Y-38759700D01*
X146258620Y-38668881D01*
X146645689Y-38410249D01*
X146904321Y-38023180D01*
X146995140Y-37566600D01*
X146995140Y-40106600D01*
X146904321Y-39650020D01*
X146645689Y-39262951D01*
X146258620Y-39004319D01*
X145802040Y-38913500D01*
X145444520Y-38913500D01*
X144987940Y-39004319D01*
X144600871Y-39262951D01*
X144342239Y-39650020D01*
X144251420Y-40106600D01*
X144342239Y-40563180D01*
X144600871Y-40950249D01*
X144987940Y-41208881D01*
X145444520Y-41299700D01*
X145802040Y-41299700D01*
X146258620Y-41208881D01*
X146645689Y-40950249D01*
X146904321Y-40563180D01*
X146995140Y-40106600D01*
X146995140Y-40820470D01*
X146125510Y-41690100D01*
X143655845Y-41690100D01*
X143655845Y-30118950D01*
X143554324Y-29896500D01*
X142291500Y-29896500D01*
X142291500Y-29916500D01*
X141934500Y-29916500D01*
X141934500Y-29896500D01*
X140671676Y-29896500D01*
X140570155Y-30118950D01*
X140775832Y-30546523D01*
X141183079Y-30936847D01*
X141654576Y-31120528D01*
X141477660Y-31155719D01*
X141090591Y-31414351D01*
X140831959Y-31801420D01*
X140741140Y-32258000D01*
X140831959Y-32714580D01*
X141090591Y-33101649D01*
X141477660Y-33360281D01*
X141934240Y-33451100D01*
X142291760Y-33451100D01*
X142748340Y-33360281D01*
X143135409Y-33101649D01*
X143394041Y-32714580D01*
X143484860Y-32258000D01*
X143394041Y-31801420D01*
X143135409Y-31414351D01*
X142748340Y-31155719D01*
X142571423Y-31120528D01*
X143042921Y-30936847D01*
X143450168Y-30546523D01*
X143655845Y-30118950D01*
X143655845Y-41690100D01*
X143484860Y-41690100D01*
X143484860Y-39878000D01*
X143484860Y-37338000D01*
X143484860Y-34798000D01*
X143394041Y-34341420D01*
X143135409Y-33954351D01*
X142748340Y-33695719D01*
X142291760Y-33604900D01*
X141934240Y-33604900D01*
X141477660Y-33695719D01*
X141090591Y-33954351D01*
X140831959Y-34341420D01*
X140741140Y-34798000D01*
X140831959Y-35254580D01*
X141090591Y-35641649D01*
X141477660Y-35900281D01*
X141934240Y-35991100D01*
X142291760Y-35991100D01*
X142748340Y-35900281D01*
X143135409Y-35641649D01*
X143394041Y-35254580D01*
X143484860Y-34798000D01*
X143484860Y-37338000D01*
X143394041Y-36881420D01*
X143135409Y-36494351D01*
X142748340Y-36235719D01*
X142291760Y-36144900D01*
X141934240Y-36144900D01*
X141477660Y-36235719D01*
X141090591Y-36494351D01*
X140831959Y-36881420D01*
X140741140Y-37338000D01*
X140831959Y-37794580D01*
X141090591Y-38181649D01*
X141477660Y-38440281D01*
X141934240Y-38531100D01*
X142291760Y-38531100D01*
X142748340Y-38440281D01*
X143135409Y-38181649D01*
X143394041Y-37794580D01*
X143484860Y-37338000D01*
X143484860Y-39878000D01*
X143394041Y-39421420D01*
X143135409Y-39034351D01*
X142748340Y-38775719D01*
X142291760Y-38684900D01*
X141934240Y-38684900D01*
X141477660Y-38775719D01*
X141090591Y-39034351D01*
X140831959Y-39421420D01*
X140741140Y-39878000D01*
X140831959Y-40334580D01*
X141090591Y-40721649D01*
X141477660Y-40980281D01*
X141934240Y-41071100D01*
X142291760Y-41071100D01*
X142748340Y-40980281D01*
X143135409Y-40721649D01*
X143394041Y-40334580D01*
X143484860Y-39878000D01*
X143484860Y-41690100D01*
X143212750Y-41690100D01*
X143135409Y-41574351D01*
X142748340Y-41315719D01*
X142291760Y-41224900D01*
X141934240Y-41224900D01*
X141477660Y-41315719D01*
X141090591Y-41574351D01*
X140831959Y-41961420D01*
X140741140Y-42418000D01*
X140831959Y-42874580D01*
X141090591Y-43261649D01*
X141477660Y-43520281D01*
X141654576Y-43555471D01*
X141183079Y-43739153D01*
X140775832Y-44129477D01*
X140570155Y-44557050D01*
X140671676Y-44779500D01*
X141934500Y-44779500D01*
X141934500Y-44759500D01*
X142291500Y-44759500D01*
X142291500Y-44779500D01*
X143554324Y-44779500D01*
X143655845Y-44557050D01*
X143450168Y-44129477D01*
X143042921Y-43739153D01*
X142571423Y-43555471D01*
X142748340Y-43520281D01*
X143004529Y-43349100D01*
X146125509Y-43349100D01*
X147491500Y-44715090D01*
X147491500Y-63537410D01*
X146852900Y-64176010D01*
X146852900Y-62819280D01*
X146852900Y-60279280D01*
X146852900Y-57739280D01*
X146832995Y-57639210D01*
X146832995Y-56062880D01*
X146832995Y-54335680D01*
X146808619Y-54210043D01*
X146736082Y-54099619D01*
X146626578Y-54025703D01*
X146497040Y-53999725D01*
X144465040Y-53999725D01*
X144339403Y-54024101D01*
X144228979Y-54096638D01*
X144155063Y-54206142D01*
X144129085Y-54335680D01*
X144129085Y-56062880D01*
X144153461Y-56188517D01*
X144225998Y-56298941D01*
X144335502Y-56372857D01*
X144465040Y-56398835D01*
X146497040Y-56398835D01*
X146622677Y-56374459D01*
X146733101Y-56301922D01*
X146807017Y-56192418D01*
X146832995Y-56062880D01*
X146832995Y-57639210D01*
X146762081Y-57282700D01*
X146503449Y-56895631D01*
X146116380Y-56636999D01*
X145659800Y-56546180D01*
X145302280Y-56546180D01*
X144845700Y-56636999D01*
X144458631Y-56895631D01*
X144199999Y-57282700D01*
X144109180Y-57739280D01*
X144199999Y-58195860D01*
X144458631Y-58582929D01*
X144845700Y-58841561D01*
X145302280Y-58932380D01*
X145659800Y-58932380D01*
X146116380Y-58841561D01*
X146503449Y-58582929D01*
X146762081Y-58195860D01*
X146852900Y-57739280D01*
X146852900Y-60279280D01*
X146762081Y-59822700D01*
X146503449Y-59435631D01*
X146116380Y-59176999D01*
X145659800Y-59086180D01*
X145302280Y-59086180D01*
X144845700Y-59176999D01*
X144458631Y-59435631D01*
X144199999Y-59822700D01*
X144109180Y-60279280D01*
X144199999Y-60735860D01*
X144458631Y-61122929D01*
X144845700Y-61381561D01*
X145302280Y-61472380D01*
X145659800Y-61472380D01*
X146116380Y-61381561D01*
X146503449Y-61122929D01*
X146762081Y-60735860D01*
X146852900Y-60279280D01*
X146852900Y-62819280D01*
X146762081Y-62362700D01*
X146503449Y-61975631D01*
X146116380Y-61716999D01*
X145659800Y-61626180D01*
X145302280Y-61626180D01*
X144845700Y-61716999D01*
X144458631Y-61975631D01*
X144199999Y-62362700D01*
X144109180Y-62819280D01*
X144199999Y-63275860D01*
X144458631Y-63662929D01*
X144845700Y-63921561D01*
X145302280Y-64012380D01*
X145659800Y-64012380D01*
X146116380Y-63921561D01*
X146503449Y-63662929D01*
X146762081Y-63275860D01*
X146852900Y-62819280D01*
X146852900Y-64176010D01*
X146524410Y-64504500D01*
X143655845Y-64504500D01*
X143655845Y-45358950D01*
X143554324Y-45136500D01*
X142291500Y-45136500D01*
X142291500Y-46257616D01*
X142517303Y-46381612D01*
X143042921Y-46176847D01*
X143450168Y-45786523D01*
X143655845Y-45358950D01*
X143655845Y-64504500D01*
X143528845Y-64504500D01*
X143528845Y-52978950D01*
X143528845Y-52177050D01*
X143323168Y-51749477D01*
X142915921Y-51359153D01*
X142603787Y-51237555D01*
X143002000Y-51237555D01*
X143127637Y-51213179D01*
X143238061Y-51140642D01*
X143311977Y-51031138D01*
X143337955Y-50901600D01*
X143337955Y-49174400D01*
X143313579Y-49048763D01*
X143241042Y-48938339D01*
X143131538Y-48864423D01*
X143002000Y-48838445D01*
X141934500Y-48838445D01*
X141934500Y-46257616D01*
X141934500Y-45136500D01*
X140671676Y-45136500D01*
X140570155Y-45358950D01*
X140775832Y-45786523D01*
X141183079Y-46176847D01*
X141708697Y-46381612D01*
X141934500Y-46257616D01*
X141934500Y-48838445D01*
X140970000Y-48838445D01*
X140844363Y-48862821D01*
X140733939Y-48935358D01*
X140660023Y-49044862D01*
X140634045Y-49174400D01*
X140634045Y-50901600D01*
X140658421Y-51027237D01*
X140730958Y-51137661D01*
X140840462Y-51211577D01*
X140970000Y-51237555D01*
X141368212Y-51237555D01*
X141056079Y-51359153D01*
X140648832Y-51749477D01*
X140443155Y-52177050D01*
X140544676Y-52399500D01*
X141807500Y-52399500D01*
X141807500Y-52379500D01*
X142164500Y-52379500D01*
X142164500Y-52399500D01*
X143427324Y-52399500D01*
X143528845Y-52177050D01*
X143528845Y-52978950D01*
X143427324Y-52756500D01*
X142164500Y-52756500D01*
X142164500Y-52776500D01*
X141807500Y-52776500D01*
X141807500Y-52756500D01*
X140544676Y-52756500D01*
X140443155Y-52978950D01*
X140648832Y-53406523D01*
X141056079Y-53796847D01*
X141527576Y-53980528D01*
X141350660Y-54015719D01*
X140963591Y-54274351D01*
X140704959Y-54661420D01*
X140614140Y-55118000D01*
X140704959Y-55574580D01*
X140963591Y-55961649D01*
X141350660Y-56220281D01*
X141807240Y-56311100D01*
X142164760Y-56311100D01*
X142621340Y-56220281D01*
X143008409Y-55961649D01*
X143267041Y-55574580D01*
X143357860Y-55118000D01*
X143267041Y-54661420D01*
X143008409Y-54274351D01*
X142621340Y-54015719D01*
X142444423Y-53980528D01*
X142915921Y-53796847D01*
X143323168Y-53406523D01*
X143528845Y-52978950D01*
X143528845Y-64504500D01*
X143357860Y-64504500D01*
X143357860Y-62738000D01*
X143357860Y-60198000D01*
X143357860Y-57658000D01*
X143267041Y-57201420D01*
X143008409Y-56814351D01*
X142621340Y-56555719D01*
X142164760Y-56464900D01*
X141807240Y-56464900D01*
X141350660Y-56555719D01*
X140963591Y-56814351D01*
X140704959Y-57201420D01*
X140614140Y-57658000D01*
X140704959Y-58114580D01*
X140963591Y-58501649D01*
X141350660Y-58760281D01*
X141807240Y-58851100D01*
X142164760Y-58851100D01*
X142621340Y-58760281D01*
X143008409Y-58501649D01*
X143267041Y-58114580D01*
X143357860Y-57658000D01*
X143357860Y-60198000D01*
X143267041Y-59741420D01*
X143008409Y-59354351D01*
X142621340Y-59095719D01*
X142164760Y-59004900D01*
X141807240Y-59004900D01*
X141350660Y-59095719D01*
X140963591Y-59354351D01*
X140704959Y-59741420D01*
X140614140Y-60198000D01*
X140704959Y-60654580D01*
X140963591Y-61041649D01*
X141350660Y-61300281D01*
X141807240Y-61391100D01*
X142164760Y-61391100D01*
X142621340Y-61300281D01*
X143008409Y-61041649D01*
X143267041Y-60654580D01*
X143357860Y-60198000D01*
X143357860Y-62738000D01*
X143267041Y-62281420D01*
X143008409Y-61894351D01*
X142621340Y-61635719D01*
X142164760Y-61544900D01*
X141807240Y-61544900D01*
X141350660Y-61635719D01*
X140963591Y-61894351D01*
X140704959Y-62281420D01*
X140614140Y-62738000D01*
X140704959Y-63194580D01*
X140963591Y-63581649D01*
X141350660Y-63840281D01*
X141807240Y-63931100D01*
X142164760Y-63931100D01*
X142621340Y-63840281D01*
X143008409Y-63581649D01*
X143267041Y-63194580D01*
X143357860Y-62738000D01*
X143357860Y-64504500D01*
X143055281Y-64504500D01*
X143008409Y-64434351D01*
X142621340Y-64175719D01*
X142164760Y-64084900D01*
X141807240Y-64084900D01*
X141350660Y-64175719D01*
X140963591Y-64434351D01*
X140704959Y-64821420D01*
X140614140Y-65278000D01*
X140704959Y-65734580D01*
X140963591Y-66121649D01*
X141350660Y-66380281D01*
X141527576Y-66415471D01*
X141056079Y-66599153D01*
X140648832Y-66989477D01*
X140443155Y-67417050D01*
X140544676Y-67639500D01*
X141807500Y-67639500D01*
X141807500Y-67619500D01*
X142164500Y-67619500D01*
X142164500Y-67639500D01*
X143427324Y-67639500D01*
X143528845Y-67417050D01*
X143323168Y-66989477D01*
X142915921Y-66599153D01*
X142444423Y-66415471D01*
X142621340Y-66380281D01*
X142945774Y-66163500D01*
X146524410Y-66163500D01*
X147633500Y-67272590D01*
X147633500Y-85030890D01*
X146751300Y-85913090D01*
X146751300Y-84470240D01*
X146751300Y-81930240D01*
X146751300Y-79390240D01*
X146731395Y-79290170D01*
X146731395Y-77713840D01*
X146731395Y-75986640D01*
X146707019Y-75861003D01*
X146634482Y-75750579D01*
X146524978Y-75676663D01*
X146395440Y-75650685D01*
X144363440Y-75650685D01*
X144237803Y-75675061D01*
X144127379Y-75747598D01*
X144053463Y-75857102D01*
X144027485Y-75986640D01*
X144027485Y-77713840D01*
X144051861Y-77839477D01*
X144124398Y-77949901D01*
X144233902Y-78023817D01*
X144363440Y-78049795D01*
X146395440Y-78049795D01*
X146521077Y-78025419D01*
X146631501Y-77952882D01*
X146705417Y-77843378D01*
X146731395Y-77713840D01*
X146731395Y-79290170D01*
X146660481Y-78933660D01*
X146401849Y-78546591D01*
X146014780Y-78287959D01*
X145558200Y-78197140D01*
X145200680Y-78197140D01*
X144744100Y-78287959D01*
X144357031Y-78546591D01*
X144098399Y-78933660D01*
X144007580Y-79390240D01*
X144098399Y-79846820D01*
X144357031Y-80233889D01*
X144744100Y-80492521D01*
X145200680Y-80583340D01*
X145558200Y-80583340D01*
X146014780Y-80492521D01*
X146401849Y-80233889D01*
X146660481Y-79846820D01*
X146751300Y-79390240D01*
X146751300Y-81930240D01*
X146660481Y-81473660D01*
X146401849Y-81086591D01*
X146014780Y-80827959D01*
X145558200Y-80737140D01*
X145200680Y-80737140D01*
X144744100Y-80827959D01*
X144357031Y-81086591D01*
X144098399Y-81473660D01*
X144007580Y-81930240D01*
X144098399Y-82386820D01*
X144357031Y-82773889D01*
X144744100Y-83032521D01*
X145200680Y-83123340D01*
X145558200Y-83123340D01*
X146014780Y-83032521D01*
X146401849Y-82773889D01*
X146660481Y-82386820D01*
X146751300Y-81930240D01*
X146751300Y-84470240D01*
X146660481Y-84013660D01*
X146401849Y-83626591D01*
X146014780Y-83367959D01*
X145558200Y-83277140D01*
X145200680Y-83277140D01*
X144744100Y-83367959D01*
X144357031Y-83626591D01*
X144098399Y-84013660D01*
X144007580Y-84470240D01*
X144098399Y-84926820D01*
X144357031Y-85313889D01*
X144744100Y-85572521D01*
X145200680Y-85663340D01*
X145558200Y-85663340D01*
X146014780Y-85572521D01*
X146401849Y-85313889D01*
X146660481Y-84926820D01*
X146751300Y-84470240D01*
X146751300Y-85913090D01*
X146483650Y-86180740D01*
X143528845Y-86180740D01*
X143528845Y-68218950D01*
X143427324Y-67996500D01*
X142164500Y-67996500D01*
X142164500Y-69117616D01*
X142390303Y-69241612D01*
X142915921Y-69036847D01*
X143323168Y-68646523D01*
X143528845Y-68218950D01*
X143528845Y-86180740D01*
X143401845Y-86180740D01*
X143401845Y-74695950D01*
X143401845Y-73894050D01*
X143196168Y-73466477D01*
X142788921Y-73076153D01*
X142476787Y-72954555D01*
X142875000Y-72954555D01*
X143000637Y-72930179D01*
X143111061Y-72857642D01*
X143184977Y-72748138D01*
X143210955Y-72618600D01*
X143210955Y-70891400D01*
X143186579Y-70765763D01*
X143114042Y-70655339D01*
X143004538Y-70581423D01*
X142875000Y-70555445D01*
X141807500Y-70555445D01*
X141807500Y-69117616D01*
X141807500Y-67996500D01*
X140544676Y-67996500D01*
X140443155Y-68218950D01*
X140648832Y-68646523D01*
X141056079Y-69036847D01*
X141581697Y-69241612D01*
X141807500Y-69117616D01*
X141807500Y-70555445D01*
X140843000Y-70555445D01*
X140717363Y-70579821D01*
X140606939Y-70652358D01*
X140533023Y-70761862D01*
X140507045Y-70891400D01*
X140507045Y-72618600D01*
X140531421Y-72744237D01*
X140603958Y-72854661D01*
X140713462Y-72928577D01*
X140843000Y-72954555D01*
X141241212Y-72954555D01*
X140929079Y-73076153D01*
X140521832Y-73466477D01*
X140316155Y-73894050D01*
X140417676Y-74116500D01*
X141680500Y-74116500D01*
X141680500Y-74096500D01*
X142037500Y-74096500D01*
X142037500Y-74116500D01*
X143300324Y-74116500D01*
X143401845Y-73894050D01*
X143401845Y-74695950D01*
X143300324Y-74473500D01*
X142037500Y-74473500D01*
X142037500Y-74493500D01*
X141680500Y-74493500D01*
X141680500Y-74473500D01*
X140417676Y-74473500D01*
X140316155Y-74695950D01*
X140521832Y-75123523D01*
X140929079Y-75513847D01*
X141400576Y-75697528D01*
X141223660Y-75732719D01*
X140836591Y-75991351D01*
X140577959Y-76378420D01*
X140487140Y-76835000D01*
X140577959Y-77291580D01*
X140836591Y-77678649D01*
X141223660Y-77937281D01*
X141680240Y-78028100D01*
X142037760Y-78028100D01*
X142494340Y-77937281D01*
X142881409Y-77678649D01*
X143140041Y-77291580D01*
X143230860Y-76835000D01*
X143140041Y-76378420D01*
X142881409Y-75991351D01*
X142494340Y-75732719D01*
X142317423Y-75697528D01*
X142788921Y-75513847D01*
X143196168Y-75123523D01*
X143401845Y-74695950D01*
X143401845Y-86180740D01*
X143230860Y-86180740D01*
X143230860Y-84455000D01*
X143230860Y-81915000D01*
X143230860Y-79375000D01*
X143140041Y-78918420D01*
X142881409Y-78531351D01*
X142494340Y-78272719D01*
X142037760Y-78181900D01*
X141680240Y-78181900D01*
X141223660Y-78272719D01*
X140836591Y-78531351D01*
X140577959Y-78918420D01*
X140487140Y-79375000D01*
X140577959Y-79831580D01*
X140836591Y-80218649D01*
X141223660Y-80477281D01*
X141680240Y-80568100D01*
X142037760Y-80568100D01*
X142494340Y-80477281D01*
X142881409Y-80218649D01*
X143140041Y-79831580D01*
X143230860Y-79375000D01*
X143230860Y-81915000D01*
X143140041Y-81458420D01*
X142881409Y-81071351D01*
X142494340Y-80812719D01*
X142037760Y-80721900D01*
X141680240Y-80721900D01*
X141223660Y-80812719D01*
X140836591Y-81071351D01*
X140577959Y-81458420D01*
X140487140Y-81915000D01*
X140577959Y-82371580D01*
X140836591Y-82758649D01*
X141223660Y-83017281D01*
X141680240Y-83108100D01*
X142037760Y-83108100D01*
X142494340Y-83017281D01*
X142881409Y-82758649D01*
X143140041Y-82371580D01*
X143230860Y-81915000D01*
X143230860Y-84455000D01*
X143140041Y-83998420D01*
X142881409Y-83611351D01*
X142494340Y-83352719D01*
X142037760Y-83261900D01*
X141680240Y-83261900D01*
X141223660Y-83352719D01*
X140836591Y-83611351D01*
X140577959Y-83998420D01*
X140487140Y-84455000D01*
X140577959Y-84911580D01*
X140836591Y-85298649D01*
X141223660Y-85557281D01*
X141680240Y-85648100D01*
X142037760Y-85648100D01*
X142494340Y-85557281D01*
X142881409Y-85298649D01*
X143140041Y-84911580D01*
X143230860Y-84455000D01*
X143230860Y-86180740D01*
X142901046Y-86180740D01*
X142881409Y-86151351D01*
X142494340Y-85892719D01*
X142037760Y-85801900D01*
X141680240Y-85801900D01*
X141223660Y-85892719D01*
X140836591Y-86151351D01*
X140577959Y-86538420D01*
X140487140Y-86995000D01*
X140577959Y-87451580D01*
X140836591Y-87838649D01*
X141223660Y-88097281D01*
X141400576Y-88132471D01*
X140929079Y-88316153D01*
X140521832Y-88706477D01*
X140316155Y-89134050D01*
X140417676Y-89356500D01*
X141680500Y-89356500D01*
X141680500Y-89336500D01*
X142037500Y-89336500D01*
X142037500Y-89356500D01*
X143300324Y-89356500D01*
X143401845Y-89134050D01*
X143196168Y-88706477D01*
X142788921Y-88316153D01*
X142317423Y-88132471D01*
X142494340Y-88097281D01*
X142879776Y-87839740D01*
X146483649Y-87839740D01*
X147570000Y-88926090D01*
X147570000Y-107755500D01*
X146771620Y-107755500D01*
X146771620Y-106055160D01*
X146771620Y-103515160D01*
X146771620Y-100975160D01*
X146751715Y-100875090D01*
X146751715Y-99298760D01*
X146751715Y-97571560D01*
X146727339Y-97445923D01*
X146654802Y-97335499D01*
X146545298Y-97261583D01*
X146415760Y-97235605D01*
X144383760Y-97235605D01*
X144258123Y-97259981D01*
X144147699Y-97332518D01*
X144073783Y-97442022D01*
X144047805Y-97571560D01*
X144047805Y-99298760D01*
X144072181Y-99424397D01*
X144144718Y-99534821D01*
X144254222Y-99608737D01*
X144383760Y-99634715D01*
X146415760Y-99634715D01*
X146541397Y-99610339D01*
X146651821Y-99537802D01*
X146725737Y-99428298D01*
X146751715Y-99298760D01*
X146751715Y-100875090D01*
X146680801Y-100518580D01*
X146422169Y-100131511D01*
X146035100Y-99872879D01*
X145578520Y-99782060D01*
X145221000Y-99782060D01*
X144764420Y-99872879D01*
X144377351Y-100131511D01*
X144118719Y-100518580D01*
X144027900Y-100975160D01*
X144118719Y-101431740D01*
X144377351Y-101818809D01*
X144764420Y-102077441D01*
X145221000Y-102168260D01*
X145578520Y-102168260D01*
X146035100Y-102077441D01*
X146422169Y-101818809D01*
X146680801Y-101431740D01*
X146771620Y-100975160D01*
X146771620Y-103515160D01*
X146680801Y-103058580D01*
X146422169Y-102671511D01*
X146035100Y-102412879D01*
X145578520Y-102322060D01*
X145221000Y-102322060D01*
X144764420Y-102412879D01*
X144377351Y-102671511D01*
X144118719Y-103058580D01*
X144027900Y-103515160D01*
X144118719Y-103971740D01*
X144377351Y-104358809D01*
X144764420Y-104617441D01*
X145221000Y-104708260D01*
X145578520Y-104708260D01*
X146035100Y-104617441D01*
X146422169Y-104358809D01*
X146680801Y-103971740D01*
X146771620Y-103515160D01*
X146771620Y-106055160D01*
X146680801Y-105598580D01*
X146422169Y-105211511D01*
X146035100Y-104952879D01*
X145578520Y-104862060D01*
X145221000Y-104862060D01*
X144764420Y-104952879D01*
X144377351Y-105211511D01*
X144118719Y-105598580D01*
X144027900Y-106055160D01*
X144118719Y-106511740D01*
X144377351Y-106898809D01*
X144764420Y-107157441D01*
X145221000Y-107248260D01*
X145578520Y-107248260D01*
X146035100Y-107157441D01*
X146422169Y-106898809D01*
X146680801Y-106511740D01*
X146771620Y-106055160D01*
X146771620Y-107755500D01*
X143401845Y-107755500D01*
X143401845Y-96285950D01*
X143401845Y-95484050D01*
X143401845Y-89935950D01*
X143300324Y-89713500D01*
X142037500Y-89713500D01*
X142037500Y-90834616D01*
X142263303Y-90958612D01*
X142788921Y-90753847D01*
X143196168Y-90363523D01*
X143401845Y-89935950D01*
X143401845Y-95484050D01*
X143196168Y-95056477D01*
X142788921Y-94666153D01*
X142476787Y-94544555D01*
X142875000Y-94544555D01*
X143000637Y-94520179D01*
X143111061Y-94447642D01*
X143184977Y-94338138D01*
X143210955Y-94208600D01*
X143210955Y-92481400D01*
X143186579Y-92355763D01*
X143114042Y-92245339D01*
X143004538Y-92171423D01*
X142875000Y-92145445D01*
X141680500Y-92145445D01*
X141680500Y-90834616D01*
X141680500Y-89713500D01*
X140417676Y-89713500D01*
X140316155Y-89935950D01*
X140521832Y-90363523D01*
X140929079Y-90753847D01*
X141454697Y-90958612D01*
X141680500Y-90834616D01*
X141680500Y-92145445D01*
X140843000Y-92145445D01*
X140717363Y-92169821D01*
X140606939Y-92242358D01*
X140533023Y-92351862D01*
X140507045Y-92481400D01*
X140507045Y-94208600D01*
X140531421Y-94334237D01*
X140603958Y-94444661D01*
X140713462Y-94518577D01*
X140843000Y-94544555D01*
X141241212Y-94544555D01*
X140929079Y-94666153D01*
X140521832Y-95056477D01*
X140316155Y-95484050D01*
X140417676Y-95706500D01*
X141680500Y-95706500D01*
X141680500Y-95686500D01*
X142037500Y-95686500D01*
X142037500Y-95706500D01*
X143300324Y-95706500D01*
X143401845Y-95484050D01*
X143401845Y-96285950D01*
X143300324Y-96063500D01*
X142037500Y-96063500D01*
X142037500Y-96083500D01*
X141680500Y-96083500D01*
X141680500Y-96063500D01*
X140417676Y-96063500D01*
X140316155Y-96285950D01*
X140521832Y-96713523D01*
X140929079Y-97103847D01*
X141400576Y-97287528D01*
X141223660Y-97322719D01*
X140836591Y-97581351D01*
X140577959Y-97968420D01*
X140487140Y-98425000D01*
X140577959Y-98881580D01*
X140836591Y-99268649D01*
X141223660Y-99527281D01*
X141680240Y-99618100D01*
X142037760Y-99618100D01*
X142494340Y-99527281D01*
X142881409Y-99268649D01*
X143140041Y-98881580D01*
X143230860Y-98425000D01*
X143140041Y-97968420D01*
X142881409Y-97581351D01*
X142494340Y-97322719D01*
X142317423Y-97287528D01*
X142788921Y-97103847D01*
X143196168Y-96713523D01*
X143401845Y-96285950D01*
X143401845Y-107755500D01*
X143230860Y-107755500D01*
X143230860Y-106045000D01*
X143230860Y-103505000D01*
X143230860Y-100965000D01*
X143140041Y-100508420D01*
X142881409Y-100121351D01*
X142494340Y-99862719D01*
X142037760Y-99771900D01*
X141680240Y-99771900D01*
X141223660Y-99862719D01*
X140836591Y-100121351D01*
X140577959Y-100508420D01*
X140487140Y-100965000D01*
X140577959Y-101421580D01*
X140836591Y-101808649D01*
X141223660Y-102067281D01*
X141680240Y-102158100D01*
X142037760Y-102158100D01*
X142494340Y-102067281D01*
X142881409Y-101808649D01*
X143140041Y-101421580D01*
X143230860Y-100965000D01*
X143230860Y-103505000D01*
X143140041Y-103048420D01*
X142881409Y-102661351D01*
X142494340Y-102402719D01*
X142037760Y-102311900D01*
X141680240Y-102311900D01*
X141223660Y-102402719D01*
X140836591Y-102661351D01*
X140577959Y-103048420D01*
X140487140Y-103505000D01*
X140577959Y-103961580D01*
X140836591Y-104348649D01*
X141223660Y-104607281D01*
X141680240Y-104698100D01*
X142037760Y-104698100D01*
X142494340Y-104607281D01*
X142881409Y-104348649D01*
X143140041Y-103961580D01*
X143230860Y-103505000D01*
X143230860Y-106045000D01*
X143140041Y-105588420D01*
X142881409Y-105201351D01*
X142494340Y-104942719D01*
X142037760Y-104851900D01*
X141680240Y-104851900D01*
X141223660Y-104942719D01*
X140836591Y-105201351D01*
X140577959Y-105588420D01*
X140487140Y-106045000D01*
X140577959Y-106501580D01*
X140836591Y-106888649D01*
X141223660Y-107147281D01*
X141680240Y-107238100D01*
X142037760Y-107238100D01*
X142494340Y-107147281D01*
X142881409Y-106888649D01*
X143140041Y-106501580D01*
X143230860Y-106045000D01*
X143230860Y-107755500D01*
X142890863Y-107755500D01*
X142881409Y-107741351D01*
X142494340Y-107482719D01*
X142037760Y-107391900D01*
X141680240Y-107391900D01*
X141223660Y-107482719D01*
X140836591Y-107741351D01*
X140577959Y-108128420D01*
X140487140Y-108585000D01*
X140577959Y-109041580D01*
X140836591Y-109428649D01*
X141223660Y-109687281D01*
X141400576Y-109722471D01*
X140929079Y-109906153D01*
X140521832Y-110296477D01*
X140316155Y-110724050D01*
X140417676Y-110946500D01*
X141680500Y-110946500D01*
X141680500Y-110926500D01*
X142037500Y-110926500D01*
X142037500Y-110946500D01*
X143300324Y-110946500D01*
X143401845Y-110724050D01*
X143196168Y-110296477D01*
X142788921Y-109906153D01*
X142317423Y-109722471D01*
X142494340Y-109687281D01*
X142881409Y-109428649D01*
X142890863Y-109414500D01*
X148018500Y-109414500D01*
X148335936Y-109351358D01*
X148605045Y-109171545D01*
X148986045Y-108790545D01*
X149165858Y-108521436D01*
X149229000Y-108204000D01*
X149229000Y-88582500D01*
X149165858Y-88265064D01*
X148986045Y-87995955D01*
X148000330Y-87010240D01*
X149049545Y-85961025D01*
X149229358Y-85691916D01*
X149252500Y-85575573D01*
X149252500Y-112995181D01*
X149252500Y-112995181D01*
G37*
X149252500Y-112995181D02*
X149176336Y-113378080D01*
X148979165Y-113673167D01*
X148684079Y-113870336D01*
X148301181Y-113946500D01*
X143401845Y-113946500D01*
X143401845Y-111525950D01*
X143300324Y-111303500D01*
X142037500Y-111303500D01*
X142037500Y-112424616D01*
X142263303Y-112548612D01*
X142788921Y-112343847D01*
X143196168Y-111953523D01*
X143401845Y-111525950D01*
X143401845Y-113946500D01*
X141680500Y-113946500D01*
X141680500Y-112424616D01*
X141680500Y-111303500D01*
X140417676Y-111303500D01*
X140316155Y-111525950D01*
X140521832Y-111953523D01*
X140929079Y-112343847D01*
X141454697Y-112548612D01*
X141680500Y-112424616D01*
X141680500Y-113946500D01*
X137553134Y-113946500D01*
X137553134Y-37819717D01*
X137435548Y-37535137D01*
X137218008Y-37317217D01*
X136933634Y-37199134D01*
X136625717Y-37198866D01*
X136603436Y-37208072D01*
X136625655Y-37174820D01*
X136716474Y-36718240D01*
X136625655Y-36261660D01*
X136367023Y-35874591D01*
X135979954Y-35615959D01*
X135523374Y-35525140D01*
X135476626Y-35525140D01*
X135020046Y-35615959D01*
X134632977Y-35874591D01*
X134374345Y-36261660D01*
X134283526Y-36718240D01*
X134374345Y-37174820D01*
X134603985Y-37518500D01*
X134427260Y-37518500D01*
X134084823Y-37176063D01*
X134085655Y-37174820D01*
X134176474Y-36718240D01*
X134085655Y-36261660D01*
X133827023Y-35874591D01*
X133439954Y-35615959D01*
X132983374Y-35525140D01*
X132936626Y-35525140D01*
X132480046Y-35615959D01*
X132092977Y-35874591D01*
X131834345Y-36261660D01*
X131743526Y-36718240D01*
X131834345Y-37174820D01*
X132092977Y-37561889D01*
X132480046Y-37820521D01*
X132936626Y-37911340D01*
X132983374Y-37911340D01*
X133439954Y-37820521D01*
X133442236Y-37818996D01*
X133917620Y-38294380D01*
X134065070Y-38392903D01*
X134065071Y-38392904D01*
X134239000Y-38427500D01*
X134624351Y-38427500D01*
X134374345Y-38801660D01*
X134283526Y-39258240D01*
X134374345Y-39714820D01*
X134632977Y-40101889D01*
X135020046Y-40360521D01*
X135476626Y-40451340D01*
X135523374Y-40451340D01*
X135979954Y-40360521D01*
X136367023Y-40101889D01*
X136625655Y-39714820D01*
X136716474Y-39258240D01*
X136625655Y-38801660D01*
X136575478Y-38726566D01*
X136624366Y-38746866D01*
X136932283Y-38747134D01*
X137216863Y-38629548D01*
X137434783Y-38412008D01*
X137552866Y-38127634D01*
X137553134Y-37819717D01*
X137553134Y-113946500D01*
X137299134Y-113946500D01*
X137299134Y-82269717D01*
X137235634Y-82116035D01*
X137235634Y-60616217D01*
X137118048Y-60331637D01*
X136900508Y-60113717D01*
X136699555Y-60030273D01*
X136699555Y-42661840D01*
X136699555Y-40934640D01*
X136675179Y-40809003D01*
X136602642Y-40698579D01*
X136493138Y-40624663D01*
X136363600Y-40598685D01*
X134636400Y-40598685D01*
X134510763Y-40623061D01*
X134400339Y-40695598D01*
X134326423Y-40805102D01*
X134300445Y-40934640D01*
X134300445Y-42661840D01*
X134324821Y-42787477D01*
X134397358Y-42897901D01*
X134506862Y-42971817D01*
X134636400Y-42997795D01*
X136363600Y-42997795D01*
X136489237Y-42973419D01*
X136599661Y-42900882D01*
X136673577Y-42791378D01*
X136699555Y-42661840D01*
X136699555Y-60030273D01*
X136616134Y-59995634D01*
X136504382Y-59995536D01*
X136525655Y-59963700D01*
X136616474Y-59507120D01*
X136525655Y-59050540D01*
X136267023Y-58663471D01*
X135879954Y-58404839D01*
X135423374Y-58314020D01*
X135376626Y-58314020D01*
X134920046Y-58404839D01*
X134532977Y-58663471D01*
X134274345Y-59050540D01*
X134183526Y-59507120D01*
X134274345Y-59963700D01*
X134509076Y-60315000D01*
X134300260Y-60315000D01*
X134176474Y-60191214D01*
X134176474Y-41798240D01*
X134176474Y-39258240D01*
X134085655Y-38801660D01*
X133827023Y-38414591D01*
X133439954Y-38155959D01*
X132983374Y-38065140D01*
X132936626Y-38065140D01*
X132480046Y-38155959D01*
X132092977Y-38414591D01*
X131834345Y-38801660D01*
X131743526Y-39258240D01*
X131834345Y-39714820D01*
X132092977Y-40101889D01*
X132480046Y-40360521D01*
X132936626Y-40451340D01*
X132983374Y-40451340D01*
X133439954Y-40360521D01*
X133827023Y-40101889D01*
X134085655Y-39714820D01*
X134176474Y-39258240D01*
X134176474Y-41798240D01*
X134085655Y-41341660D01*
X133827023Y-40954591D01*
X133439954Y-40695959D01*
X132983374Y-40605140D01*
X132936626Y-40605140D01*
X132480046Y-40695959D01*
X132092977Y-40954591D01*
X131834345Y-41341660D01*
X131743526Y-41798240D01*
X131834345Y-42254820D01*
X132092977Y-42641889D01*
X132480046Y-42900521D01*
X132936626Y-42991340D01*
X132983374Y-42991340D01*
X133439954Y-42900521D01*
X133827023Y-42641889D01*
X134085655Y-42254820D01*
X134176474Y-41798240D01*
X134176474Y-60191214D01*
X133970957Y-59985697D01*
X133985655Y-59963700D01*
X134076474Y-59507120D01*
X133985655Y-59050540D01*
X133727023Y-58663471D01*
X133339954Y-58404839D01*
X132883374Y-58314020D01*
X132836626Y-58314020D01*
X132380046Y-58404839D01*
X131992977Y-58663471D01*
X131734345Y-59050540D01*
X131643526Y-59507120D01*
X131734345Y-59963700D01*
X131992977Y-60350769D01*
X132380046Y-60609401D01*
X132836626Y-60700220D01*
X132883374Y-60700220D01*
X133314253Y-60614513D01*
X133790620Y-61090880D01*
X133938070Y-61189403D01*
X133938071Y-61189403D01*
X134112000Y-61224000D01*
X134519259Y-61224000D01*
X134274345Y-61590540D01*
X134183526Y-62047120D01*
X134274345Y-62503700D01*
X134532977Y-62890769D01*
X134920046Y-63149401D01*
X135376626Y-63240220D01*
X135423374Y-63240220D01*
X135879954Y-63149401D01*
X136267023Y-62890769D01*
X136525655Y-62503700D01*
X136616474Y-62047120D01*
X136525655Y-61590540D01*
X136494243Y-61543529D01*
X136614783Y-61543634D01*
X136899363Y-61426048D01*
X137117283Y-61208508D01*
X137235366Y-60924134D01*
X137235634Y-60616217D01*
X137235634Y-82116035D01*
X137181548Y-81985137D01*
X136964008Y-81767217D01*
X136679634Y-81649134D01*
X136510072Y-81648986D01*
X136553375Y-81584180D01*
X136644194Y-81127600D01*
X136599555Y-80903183D01*
X136599555Y-65450720D01*
X136599555Y-63723520D01*
X136575179Y-63597883D01*
X136502642Y-63487459D01*
X136393138Y-63413543D01*
X136263600Y-63387565D01*
X134536400Y-63387565D01*
X134410763Y-63411941D01*
X134300339Y-63484478D01*
X134226423Y-63593982D01*
X134200445Y-63723520D01*
X134200445Y-65450720D01*
X134224821Y-65576357D01*
X134297358Y-65686781D01*
X134406862Y-65760697D01*
X134536400Y-65786675D01*
X136263600Y-65786675D01*
X136389237Y-65762299D01*
X136499661Y-65689762D01*
X136573577Y-65580258D01*
X136599555Y-65450720D01*
X136599555Y-80903183D01*
X136553375Y-80671020D01*
X136294743Y-80283951D01*
X135907674Y-80025319D01*
X135451094Y-79934500D01*
X135404346Y-79934500D01*
X134947766Y-80025319D01*
X134560697Y-80283951D01*
X134302065Y-80671020D01*
X134211246Y-81127600D01*
X134302065Y-81584180D01*
X134558860Y-81968500D01*
X134427260Y-81968500D01*
X134018280Y-81559520D01*
X134104194Y-81127600D01*
X134076474Y-80988241D01*
X134076474Y-64587120D01*
X134076474Y-62047120D01*
X133985655Y-61590540D01*
X133727023Y-61203471D01*
X133339954Y-60944839D01*
X132883374Y-60854020D01*
X132836626Y-60854020D01*
X132380046Y-60944839D01*
X131992977Y-61203471D01*
X131734345Y-61590540D01*
X131643526Y-62047120D01*
X131734345Y-62503700D01*
X131992977Y-62890769D01*
X132380046Y-63149401D01*
X132836626Y-63240220D01*
X132883374Y-63240220D01*
X133339954Y-63149401D01*
X133727023Y-62890769D01*
X133985655Y-62503700D01*
X134076474Y-62047120D01*
X134076474Y-64587120D01*
X133985655Y-64130540D01*
X133727023Y-63743471D01*
X133339954Y-63484839D01*
X132883374Y-63394020D01*
X132836626Y-63394020D01*
X132380046Y-63484839D01*
X131992977Y-63743471D01*
X131734345Y-64130540D01*
X131643526Y-64587120D01*
X131734345Y-65043700D01*
X131992977Y-65430769D01*
X132380046Y-65689401D01*
X132836626Y-65780220D01*
X132883374Y-65780220D01*
X133339954Y-65689401D01*
X133727023Y-65430769D01*
X133985655Y-65043700D01*
X134076474Y-64587120D01*
X134076474Y-80988241D01*
X134013375Y-80671020D01*
X133754743Y-80283951D01*
X133367674Y-80025319D01*
X132911094Y-79934500D01*
X132864346Y-79934500D01*
X132407766Y-80025319D01*
X132020697Y-80283951D01*
X131762065Y-80671020D01*
X131671246Y-81127600D01*
X131762065Y-81584180D01*
X132020697Y-81971249D01*
X132407766Y-82229881D01*
X132864346Y-82320700D01*
X132911094Y-82320700D01*
X133367674Y-82229881D01*
X133388922Y-82215682D01*
X133917620Y-82744380D01*
X134065070Y-82842903D01*
X134065071Y-82842903D01*
X134239000Y-82877500D01*
X134524916Y-82877500D01*
X134302065Y-83211020D01*
X134211246Y-83667600D01*
X134302065Y-84124180D01*
X134560697Y-84511249D01*
X134947766Y-84769881D01*
X135404346Y-84860700D01*
X135451094Y-84860700D01*
X135907674Y-84769881D01*
X136294743Y-84511249D01*
X136553375Y-84124180D01*
X136644194Y-83667600D01*
X136553375Y-83211020D01*
X136544018Y-83197017D01*
X136678283Y-83197134D01*
X136962863Y-83079548D01*
X137180783Y-82862008D01*
X137298866Y-82577634D01*
X137299134Y-82269717D01*
X137299134Y-113946500D01*
X137070534Y-113946500D01*
X137070534Y-103834317D01*
X136952948Y-103549737D01*
X136735408Y-103331817D01*
X136627275Y-103286915D01*
X136627275Y-87071200D01*
X136627275Y-85344000D01*
X136602899Y-85218363D01*
X136530362Y-85107939D01*
X136420858Y-85034023D01*
X136291320Y-85008045D01*
X134564120Y-85008045D01*
X134438483Y-85032421D01*
X134328059Y-85104958D01*
X134254143Y-85214462D01*
X134228165Y-85344000D01*
X134228165Y-87071200D01*
X134252541Y-87196837D01*
X134325078Y-87307261D01*
X134434582Y-87381177D01*
X134564120Y-87407155D01*
X136291320Y-87407155D01*
X136416957Y-87382779D01*
X136527381Y-87310242D01*
X136601297Y-87200738D01*
X136627275Y-87071200D01*
X136627275Y-103286915D01*
X136454789Y-103215293D01*
X136485655Y-103169100D01*
X136576474Y-102712520D01*
X136485655Y-102255940D01*
X136227023Y-101868871D01*
X135839954Y-101610239D01*
X135383374Y-101519420D01*
X135336626Y-101519420D01*
X134880046Y-101610239D01*
X134492977Y-101868871D01*
X134234345Y-102255940D01*
X134143526Y-102712520D01*
X134234345Y-103169100D01*
X134477562Y-103533100D01*
X134104194Y-103533100D01*
X134104194Y-86207600D01*
X134104194Y-83667600D01*
X134013375Y-83211020D01*
X133754743Y-82823951D01*
X133367674Y-82565319D01*
X132911094Y-82474500D01*
X132864346Y-82474500D01*
X132407766Y-82565319D01*
X132020697Y-82823951D01*
X131762065Y-83211020D01*
X131671246Y-83667600D01*
X131762065Y-84124180D01*
X132020697Y-84511249D01*
X132407766Y-84769881D01*
X132864346Y-84860700D01*
X132911094Y-84860700D01*
X133367674Y-84769881D01*
X133754743Y-84511249D01*
X134013375Y-84124180D01*
X134104194Y-83667600D01*
X134104194Y-86207600D01*
X134013375Y-85751020D01*
X133754743Y-85363951D01*
X133367674Y-85105319D01*
X132911094Y-85014500D01*
X132864346Y-85014500D01*
X132407766Y-85105319D01*
X132020697Y-85363951D01*
X131762065Y-85751020D01*
X131671246Y-86207600D01*
X131762065Y-86664180D01*
X132020697Y-87051249D01*
X132407766Y-87309881D01*
X132864346Y-87400700D01*
X132911094Y-87400700D01*
X133367674Y-87309881D01*
X133754743Y-87051249D01*
X134013375Y-86664180D01*
X134104194Y-86207600D01*
X134104194Y-103533100D01*
X134084360Y-103533100D01*
X133855414Y-103304154D01*
X133945655Y-103169100D01*
X134036474Y-102712520D01*
X133945655Y-102255940D01*
X133687023Y-101868871D01*
X133299954Y-101610239D01*
X132843374Y-101519420D01*
X132796626Y-101519420D01*
X132340046Y-101610239D01*
X131952977Y-101868871D01*
X131694345Y-102255940D01*
X131603526Y-102712520D01*
X131694345Y-103169100D01*
X131952977Y-103556169D01*
X132340046Y-103814801D01*
X132796626Y-103905620D01*
X132843374Y-103905620D01*
X133116943Y-103851203D01*
X133574720Y-104308980D01*
X133722170Y-104407503D01*
X133722171Y-104407503D01*
X133896100Y-104442100D01*
X134470774Y-104442100D01*
X134234345Y-104795940D01*
X134143526Y-105252520D01*
X134234345Y-105709100D01*
X134492977Y-106096169D01*
X134880046Y-106354801D01*
X135336626Y-106445620D01*
X135383374Y-106445620D01*
X135839954Y-106354801D01*
X136227023Y-106096169D01*
X136485655Y-105709100D01*
X136576474Y-105252520D01*
X136485655Y-104795940D01*
X136459961Y-104757487D01*
X136734263Y-104644148D01*
X136952183Y-104426608D01*
X137070266Y-104142234D01*
X137070534Y-103834317D01*
X137070534Y-113946500D01*
X136559555Y-113946500D01*
X136559555Y-108656120D01*
X136559555Y-106928920D01*
X136535179Y-106803283D01*
X136462642Y-106692859D01*
X136353138Y-106618943D01*
X136223600Y-106592965D01*
X134496400Y-106592965D01*
X134370763Y-106617341D01*
X134260339Y-106689878D01*
X134186423Y-106799382D01*
X134160445Y-106928920D01*
X134160445Y-108656120D01*
X134184821Y-108781757D01*
X134257358Y-108892181D01*
X134366862Y-108966097D01*
X134496400Y-108992075D01*
X136223600Y-108992075D01*
X136349237Y-108967699D01*
X136459661Y-108895162D01*
X136533577Y-108785658D01*
X136559555Y-108656120D01*
X136559555Y-113946500D01*
X134036474Y-113946500D01*
X134036474Y-107792520D01*
X134036474Y-105252520D01*
X133945655Y-104795940D01*
X133687023Y-104408871D01*
X133299954Y-104150239D01*
X132843374Y-104059420D01*
X132796626Y-104059420D01*
X132340046Y-104150239D01*
X131952977Y-104408871D01*
X131694345Y-104795940D01*
X131603526Y-105252520D01*
X131694345Y-105709100D01*
X131952977Y-106096169D01*
X132340046Y-106354801D01*
X132796626Y-106445620D01*
X132843374Y-106445620D01*
X133299954Y-106354801D01*
X133687023Y-106096169D01*
X133945655Y-105709100D01*
X134036474Y-105252520D01*
X134036474Y-107792520D01*
X133945655Y-107335940D01*
X133687023Y-106948871D01*
X133299954Y-106690239D01*
X132843374Y-106599420D01*
X132796626Y-106599420D01*
X132340046Y-106690239D01*
X131952977Y-106948871D01*
X131694345Y-107335940D01*
X131603526Y-107792520D01*
X131694345Y-108249100D01*
X131952977Y-108636169D01*
X132340046Y-108894801D01*
X132796626Y-108985620D01*
X132843374Y-108985620D01*
X133299954Y-108894801D01*
X133687023Y-108636169D01*
X133945655Y-108249100D01*
X134036474Y-107792520D01*
X134036474Y-113946500D01*
X130657860Y-113946500D01*
X126057474Y-113946500D01*
X126057474Y-111379000D01*
X125966655Y-110922420D01*
X125708023Y-110535351D01*
X125320954Y-110276719D01*
X124864374Y-110185900D01*
X124817626Y-110185900D01*
X124361046Y-110276719D01*
X123973977Y-110535351D01*
X123715345Y-110922420D01*
X123624526Y-111379000D01*
X123715345Y-111835580D01*
X123973977Y-112222649D01*
X124361046Y-112481281D01*
X124817626Y-112572100D01*
X124864374Y-112572100D01*
X125320954Y-112481281D01*
X125708023Y-112222649D01*
X125966655Y-111835580D01*
X126057474Y-111379000D01*
X126057474Y-113946500D01*
X123517474Y-113946500D01*
X123517474Y-111379000D01*
X123426655Y-110922420D01*
X123168023Y-110535351D01*
X122780954Y-110276719D01*
X122324374Y-110185900D01*
X122277626Y-110185900D01*
X121821046Y-110276719D01*
X121433977Y-110535351D01*
X121175345Y-110922420D01*
X121084526Y-111379000D01*
X121175345Y-111835580D01*
X121433977Y-112222649D01*
X121821046Y-112481281D01*
X122277626Y-112572100D01*
X122324374Y-112572100D01*
X122780954Y-112481281D01*
X123168023Y-112222649D01*
X123426655Y-111835580D01*
X123517474Y-111379000D01*
X123517474Y-113946500D01*
X119709500Y-113946500D01*
X119709500Y-111977666D01*
X119709500Y-111745535D01*
X119709500Y-111322375D01*
X119563625Y-111176500D01*
X118288500Y-111176500D01*
X118288500Y-112299225D01*
X118434375Y-112445100D01*
X119242065Y-112445100D01*
X119456526Y-112356268D01*
X119620667Y-112192126D01*
X119709500Y-111977666D01*
X119709500Y-113946500D01*
X117890818Y-113946500D01*
X117507919Y-113870336D01*
X117212832Y-113673165D01*
X117015663Y-113378079D01*
X116939500Y-112995181D01*
X116939500Y-112429179D01*
X116977935Y-112445100D01*
X117785625Y-112445100D01*
X117931500Y-112299225D01*
X117931500Y-111176500D01*
X117911500Y-111176500D01*
X117911500Y-110819500D01*
X117931500Y-110819500D01*
X117931500Y-110799500D01*
X118288500Y-110799500D01*
X118288500Y-110819500D01*
X119563625Y-110819500D01*
X119709500Y-110673625D01*
X119709500Y-110250465D01*
X119709500Y-110018334D01*
X119620667Y-109803874D01*
X119456526Y-109639732D01*
X119242065Y-109550900D01*
X118759379Y-109550900D01*
X119132409Y-109301649D01*
X119391041Y-108914580D01*
X119481860Y-108458000D01*
X119391041Y-108001420D01*
X119318261Y-107892498D01*
X120264873Y-106945886D01*
X120549283Y-106946134D01*
X120833863Y-106828548D01*
X121051783Y-106611008D01*
X121115882Y-106456640D01*
X121175345Y-106755580D01*
X121433977Y-107142649D01*
X121821046Y-107401281D01*
X122277626Y-107492100D01*
X122324374Y-107492100D01*
X122780954Y-107401281D01*
X123051000Y-107220841D01*
X123051000Y-107506912D01*
X122805075Y-107752836D01*
X122780954Y-107736719D01*
X122324374Y-107645900D01*
X122277626Y-107645900D01*
X121821046Y-107736719D01*
X121433977Y-107995351D01*
X121175345Y-108382420D01*
X121084526Y-108839000D01*
X121175345Y-109295580D01*
X121433977Y-109682649D01*
X121821046Y-109941281D01*
X122277626Y-110032100D01*
X122324374Y-110032100D01*
X122780954Y-109941281D01*
X123168023Y-109682649D01*
X123426655Y-109295580D01*
X123517474Y-108839000D01*
X123433293Y-108415794D01*
X123830294Y-108018794D01*
X123929251Y-107870695D01*
X123964000Y-107696000D01*
X123964000Y-107127717D01*
X123973977Y-107142649D01*
X124361046Y-107401281D01*
X124817626Y-107492100D01*
X124864374Y-107492100D01*
X125259180Y-107413568D01*
X125972000Y-108126388D01*
X125972000Y-108409291D01*
X125966655Y-108382420D01*
X125708023Y-107995351D01*
X125320954Y-107736719D01*
X124864374Y-107645900D01*
X124817626Y-107645900D01*
X124361046Y-107736719D01*
X123973977Y-107995351D01*
X123715345Y-108382420D01*
X123624526Y-108839000D01*
X123715345Y-109295580D01*
X123973977Y-109682649D01*
X124361046Y-109941281D01*
X124817626Y-110032100D01*
X124864374Y-110032100D01*
X125320954Y-109941281D01*
X125708023Y-109682649D01*
X125966655Y-109295580D01*
X125972000Y-109268708D01*
X125972000Y-110172500D01*
X126006749Y-110347195D01*
X126105706Y-110495294D01*
X127058205Y-111447794D01*
X127058206Y-111447794D01*
X127206305Y-111546751D01*
X127381000Y-111581500D01*
X127877943Y-111581500D01*
X127877959Y-111581580D01*
X128136591Y-111968649D01*
X128523660Y-112227281D01*
X128980240Y-112318100D01*
X129337760Y-112318100D01*
X129794340Y-112227281D01*
X130181409Y-111968649D01*
X130440041Y-111581580D01*
X130530860Y-111125000D01*
X130530860Y-108585000D01*
X130440041Y-108128420D01*
X130181409Y-107741351D01*
X129794340Y-107482719D01*
X129337760Y-107391900D01*
X128980240Y-107391900D01*
X128523660Y-107482719D01*
X128136591Y-107741351D01*
X127877959Y-108128420D01*
X127787140Y-108585000D01*
X127877959Y-109041580D01*
X128136591Y-109428649D01*
X128523660Y-109687281D01*
X128980240Y-109778100D01*
X129337760Y-109778100D01*
X129794340Y-109687281D01*
X130181409Y-109428649D01*
X130440041Y-109041580D01*
X130530860Y-108585000D01*
X130530860Y-111125000D01*
X130440041Y-110668420D01*
X130181409Y-110281351D01*
X129794340Y-110022719D01*
X129337760Y-109931900D01*
X128980240Y-109931900D01*
X128523660Y-110022719D01*
X128136591Y-110281351D01*
X127877959Y-110668420D01*
X127877943Y-110668500D01*
X127570088Y-110668500D01*
X126885000Y-109983411D01*
X126885000Y-107937300D01*
X126850251Y-107762605D01*
X126751294Y-107614506D01*
X126751294Y-107614505D01*
X125936899Y-106800111D01*
X125966655Y-106755580D01*
X126057474Y-106299000D01*
X125966655Y-105842420D01*
X125728167Y-105485500D01*
X126239411Y-105485500D01*
X126607111Y-105853199D01*
X126606866Y-106134783D01*
X126724452Y-106419363D01*
X126941992Y-106637283D01*
X127226366Y-106755366D01*
X127534283Y-106755634D01*
X127818863Y-106638048D01*
X127909012Y-106548055D01*
X128136591Y-106888649D01*
X128523660Y-107147281D01*
X128980240Y-107238100D01*
X129337760Y-107238100D01*
X129794340Y-107147281D01*
X130181409Y-106888649D01*
X130440041Y-106501580D01*
X130530860Y-106045000D01*
X130530860Y-103505000D01*
X130530860Y-100965000D01*
X130530860Y-98425000D01*
X130530860Y-95885000D01*
X130530860Y-89535000D01*
X130530860Y-86995000D01*
X130530860Y-84455000D01*
X130530860Y-81915000D01*
X130530860Y-79375000D01*
X130530860Y-76835000D01*
X130530860Y-74295000D01*
X130530860Y-67818000D01*
X130530860Y-65278000D01*
X130530860Y-62738000D01*
X130530860Y-60198000D01*
X130530860Y-57658000D01*
X130530860Y-55118000D01*
X130530860Y-52578000D01*
X130440041Y-52121420D01*
X130181409Y-51734351D01*
X129794340Y-51475719D01*
X129337760Y-51384900D01*
X128980240Y-51384900D01*
X128523660Y-51475719D01*
X128136591Y-51734351D01*
X127877959Y-52121420D01*
X127787140Y-52578000D01*
X127877959Y-53034580D01*
X128136591Y-53421649D01*
X128523660Y-53680281D01*
X128980240Y-53771100D01*
X129337760Y-53771100D01*
X129794340Y-53680281D01*
X130181409Y-53421649D01*
X130440041Y-53034580D01*
X130530860Y-52578000D01*
X130530860Y-55118000D01*
X130440041Y-54661420D01*
X130181409Y-54274351D01*
X129794340Y-54015719D01*
X129337760Y-53924900D01*
X128980240Y-53924900D01*
X128523660Y-54015719D01*
X128136591Y-54274351D01*
X127877959Y-54661420D01*
X127787140Y-55118000D01*
X127877959Y-55574580D01*
X128136591Y-55961649D01*
X128523660Y-56220281D01*
X128980240Y-56311100D01*
X129337760Y-56311100D01*
X129794340Y-56220281D01*
X130181409Y-55961649D01*
X130440041Y-55574580D01*
X130530860Y-55118000D01*
X130530860Y-57658000D01*
X130440041Y-57201420D01*
X130181409Y-56814351D01*
X129794340Y-56555719D01*
X129337760Y-56464900D01*
X128980240Y-56464900D01*
X128523660Y-56555719D01*
X128136591Y-56814351D01*
X127877959Y-57201420D01*
X127787140Y-57658000D01*
X127877959Y-58114580D01*
X128136591Y-58501649D01*
X128523660Y-58760281D01*
X128980240Y-58851100D01*
X129337760Y-58851100D01*
X129794340Y-58760281D01*
X130181409Y-58501649D01*
X130440041Y-58114580D01*
X130530860Y-57658000D01*
X130530860Y-60198000D01*
X130440041Y-59741420D01*
X130181409Y-59354351D01*
X129794340Y-59095719D01*
X129337760Y-59004900D01*
X128980240Y-59004900D01*
X128523660Y-59095719D01*
X128136591Y-59354351D01*
X127877959Y-59741420D01*
X127787140Y-60198000D01*
X127877959Y-60654580D01*
X128136591Y-61041649D01*
X128523660Y-61300281D01*
X128980240Y-61391100D01*
X129337760Y-61391100D01*
X129794340Y-61300281D01*
X130181409Y-61041649D01*
X130440041Y-60654580D01*
X130530860Y-60198000D01*
X130530860Y-62738000D01*
X130440041Y-62281420D01*
X130181409Y-61894351D01*
X129794340Y-61635719D01*
X129337760Y-61544900D01*
X128980240Y-61544900D01*
X128523660Y-61635719D01*
X128136591Y-61894351D01*
X127877959Y-62281420D01*
X127787140Y-62738000D01*
X127877959Y-63194580D01*
X128136591Y-63581649D01*
X128523660Y-63840281D01*
X128980240Y-63931100D01*
X129337760Y-63931100D01*
X129794340Y-63840281D01*
X130181409Y-63581649D01*
X130440041Y-63194580D01*
X130530860Y-62738000D01*
X130530860Y-65278000D01*
X130440041Y-64821420D01*
X130181409Y-64434351D01*
X129794340Y-64175719D01*
X129337760Y-64084900D01*
X128980240Y-64084900D01*
X128523660Y-64175719D01*
X128136591Y-64434351D01*
X127877959Y-64821420D01*
X127787140Y-65278000D01*
X127823822Y-65462417D01*
X127448626Y-65837613D01*
X127164217Y-65837366D01*
X126879637Y-65954952D01*
X126661717Y-66172492D01*
X126543634Y-66456866D01*
X126543366Y-66764783D01*
X126660952Y-67049363D01*
X126878492Y-67267283D01*
X127162866Y-67385366D01*
X127470783Y-67385634D01*
X127755363Y-67268048D01*
X127973283Y-67050508D01*
X128091366Y-66766134D01*
X128091614Y-66480145D01*
X128324532Y-66247227D01*
X128523660Y-66380281D01*
X128980240Y-66471100D01*
X129337760Y-66471100D01*
X129794340Y-66380281D01*
X130181409Y-66121649D01*
X130440041Y-65734580D01*
X130530860Y-65278000D01*
X130530860Y-67818000D01*
X130440041Y-67361420D01*
X130181409Y-66974351D01*
X129794340Y-66715719D01*
X129337760Y-66624900D01*
X128980240Y-66624900D01*
X128523660Y-66715719D01*
X128136591Y-66974351D01*
X127877959Y-67361420D01*
X127787140Y-67818000D01*
X127877959Y-68274580D01*
X128018075Y-68484277D01*
X127377120Y-69125233D01*
X127278597Y-69272683D01*
X127244000Y-69446613D01*
X127244000Y-70741240D01*
X126940626Y-71044613D01*
X126656217Y-71044366D01*
X126371637Y-71161952D01*
X126153717Y-71379492D01*
X126057474Y-71611269D01*
X126057474Y-70739000D01*
X126057474Y-68199000D01*
X126057474Y-65659000D01*
X125966655Y-65202420D01*
X125708023Y-64815351D01*
X125320954Y-64556719D01*
X124864374Y-64465900D01*
X124817626Y-64465900D01*
X124361046Y-64556719D01*
X123973977Y-64815351D01*
X123715345Y-65202420D01*
X123624526Y-65659000D01*
X123715345Y-66115580D01*
X123973977Y-66502649D01*
X124361046Y-66761281D01*
X124817626Y-66852100D01*
X124864374Y-66852100D01*
X125320954Y-66761281D01*
X125708023Y-66502649D01*
X125966655Y-66115580D01*
X126057474Y-65659000D01*
X126057474Y-68199000D01*
X125966655Y-67742420D01*
X125708023Y-67355351D01*
X125320954Y-67096719D01*
X124864374Y-67005900D01*
X124817626Y-67005900D01*
X124361046Y-67096719D01*
X123973977Y-67355351D01*
X123715345Y-67742420D01*
X123624526Y-68199000D01*
X123715345Y-68655580D01*
X123973977Y-69042649D01*
X124361046Y-69301281D01*
X124817626Y-69392100D01*
X124864374Y-69392100D01*
X125320954Y-69301281D01*
X125708023Y-69042649D01*
X125966655Y-68655580D01*
X126057474Y-68199000D01*
X126057474Y-70739000D01*
X125966655Y-70282420D01*
X125708023Y-69895351D01*
X125320954Y-69636719D01*
X124864374Y-69545900D01*
X124817626Y-69545900D01*
X124361046Y-69636719D01*
X123973977Y-69895351D01*
X123715345Y-70282420D01*
X123624526Y-70739000D01*
X123715345Y-71195580D01*
X123973977Y-71582649D01*
X124361046Y-71841281D01*
X124817626Y-71932100D01*
X124864374Y-71932100D01*
X125320954Y-71841281D01*
X125708023Y-71582649D01*
X125966655Y-71195580D01*
X126057474Y-70739000D01*
X126057474Y-71611269D01*
X126035634Y-71663866D01*
X126035366Y-71971783D01*
X126152952Y-72256363D01*
X126370492Y-72474283D01*
X126654866Y-72592366D01*
X126962783Y-72592634D01*
X127247363Y-72475048D01*
X127465283Y-72257508D01*
X127583366Y-71973134D01*
X127583614Y-71687145D01*
X127807045Y-71463715D01*
X127807045Y-72618600D01*
X127831421Y-72744237D01*
X127903958Y-72854661D01*
X128013462Y-72928577D01*
X128143000Y-72954555D01*
X130175000Y-72954555D01*
X130300637Y-72930179D01*
X130411061Y-72857642D01*
X130484977Y-72748138D01*
X130510955Y-72618600D01*
X130510955Y-70891400D01*
X130486579Y-70765763D01*
X130414042Y-70655339D01*
X130304538Y-70581423D01*
X130175000Y-70555445D01*
X128153000Y-70555445D01*
X128153000Y-69634873D01*
X128810530Y-68977342D01*
X128980240Y-69011100D01*
X129337760Y-69011100D01*
X129794340Y-68920281D01*
X130181409Y-68661649D01*
X130440041Y-68274580D01*
X130530860Y-67818000D01*
X130530860Y-74295000D01*
X130440041Y-73838420D01*
X130181409Y-73451351D01*
X129794340Y-73192719D01*
X129337760Y-73101900D01*
X128980240Y-73101900D01*
X128523660Y-73192719D01*
X128136591Y-73451351D01*
X127877959Y-73838420D01*
X127787140Y-74295000D01*
X127877959Y-74751580D01*
X128136591Y-75138649D01*
X128523660Y-75397281D01*
X128980240Y-75488100D01*
X129337760Y-75488100D01*
X129794340Y-75397281D01*
X130181409Y-75138649D01*
X130440041Y-74751580D01*
X130530860Y-74295000D01*
X130530860Y-76835000D01*
X130440041Y-76378420D01*
X130181409Y-75991351D01*
X129794340Y-75732719D01*
X129337760Y-75641900D01*
X128980240Y-75641900D01*
X128523660Y-75732719D01*
X128136591Y-75991351D01*
X127877959Y-76378420D01*
X127787140Y-76835000D01*
X127877959Y-77291580D01*
X128136591Y-77678649D01*
X128523660Y-77937281D01*
X128980240Y-78028100D01*
X129337760Y-78028100D01*
X129794340Y-77937281D01*
X130181409Y-77678649D01*
X130440041Y-77291580D01*
X130530860Y-76835000D01*
X130530860Y-79375000D01*
X130440041Y-78918420D01*
X130181409Y-78531351D01*
X129794340Y-78272719D01*
X129337760Y-78181900D01*
X128980240Y-78181900D01*
X128523660Y-78272719D01*
X128136591Y-78531351D01*
X127877959Y-78918420D01*
X127787140Y-79375000D01*
X127877959Y-79831580D01*
X128136591Y-80218649D01*
X128523660Y-80477281D01*
X128980240Y-80568100D01*
X129337760Y-80568100D01*
X129794340Y-80477281D01*
X130181409Y-80218649D01*
X130440041Y-79831580D01*
X130530860Y-79375000D01*
X130530860Y-81915000D01*
X130440041Y-81458420D01*
X130181409Y-81071351D01*
X129794340Y-80812719D01*
X129337760Y-80721900D01*
X128980240Y-80721900D01*
X128523660Y-80812719D01*
X128136591Y-81071351D01*
X127877959Y-81458420D01*
X127787140Y-81915000D01*
X127877959Y-82371580D01*
X128136591Y-82758649D01*
X128523660Y-83017281D01*
X128980240Y-83108100D01*
X129337760Y-83108100D01*
X129794340Y-83017281D01*
X130181409Y-82758649D01*
X130440041Y-82371580D01*
X130530860Y-81915000D01*
X130530860Y-84455000D01*
X130440041Y-83998420D01*
X130181409Y-83611351D01*
X129794340Y-83352719D01*
X129337760Y-83261900D01*
X128980240Y-83261900D01*
X128523660Y-83352719D01*
X128136591Y-83611351D01*
X127877959Y-83998420D01*
X127787140Y-84455000D01*
X127877959Y-84911580D01*
X128136591Y-85298649D01*
X128523660Y-85557281D01*
X128980240Y-85648100D01*
X129337760Y-85648100D01*
X129794340Y-85557281D01*
X130181409Y-85298649D01*
X130440041Y-84911580D01*
X130530860Y-84455000D01*
X130530860Y-86995000D01*
X130440041Y-86538420D01*
X130181409Y-86151351D01*
X129794340Y-85892719D01*
X129337760Y-85801900D01*
X128980240Y-85801900D01*
X128523660Y-85892719D01*
X128136591Y-86151351D01*
X127877959Y-86538420D01*
X127874911Y-86553740D01*
X127335656Y-86553740D01*
X127121508Y-86339217D01*
X126837134Y-86221134D01*
X126529217Y-86220866D01*
X126244637Y-86338452D01*
X126057474Y-86525288D01*
X126057474Y-85979000D01*
X126057474Y-83439000D01*
X126057474Y-80899000D01*
X126057474Y-78359000D01*
X126057474Y-75819000D01*
X126057474Y-73279000D01*
X125966655Y-72822420D01*
X125708023Y-72435351D01*
X125320954Y-72176719D01*
X124864374Y-72085900D01*
X124817626Y-72085900D01*
X124361046Y-72176719D01*
X123973977Y-72435351D01*
X123715345Y-72822420D01*
X123624526Y-73279000D01*
X123715345Y-73735580D01*
X123973977Y-74122649D01*
X124361046Y-74381281D01*
X124817626Y-74472100D01*
X124864374Y-74472100D01*
X125320954Y-74381281D01*
X125708023Y-74122649D01*
X125966655Y-73735580D01*
X126057474Y-73279000D01*
X126057474Y-75819000D01*
X125966655Y-75362420D01*
X125708023Y-74975351D01*
X125320954Y-74716719D01*
X124864374Y-74625900D01*
X124817626Y-74625900D01*
X124361046Y-74716719D01*
X123973977Y-74975351D01*
X123715345Y-75362420D01*
X123624526Y-75819000D01*
X123715345Y-76275580D01*
X123973977Y-76662649D01*
X124361046Y-76921281D01*
X124817626Y-77012100D01*
X124864374Y-77012100D01*
X125320954Y-76921281D01*
X125708023Y-76662649D01*
X125966655Y-76275580D01*
X126057474Y-75819000D01*
X126057474Y-78359000D01*
X125966655Y-77902420D01*
X125708023Y-77515351D01*
X125320954Y-77256719D01*
X124864374Y-77165900D01*
X124817626Y-77165900D01*
X124361046Y-77256719D01*
X123973977Y-77515351D01*
X123715345Y-77902420D01*
X123624526Y-78359000D01*
X123715345Y-78815580D01*
X123973977Y-79202649D01*
X124361046Y-79461281D01*
X124817626Y-79552100D01*
X124864374Y-79552100D01*
X125320954Y-79461281D01*
X125708023Y-79202649D01*
X125966655Y-78815580D01*
X126057474Y-78359000D01*
X126057474Y-80899000D01*
X125966655Y-80442420D01*
X125708023Y-80055351D01*
X125320954Y-79796719D01*
X124864374Y-79705900D01*
X124817626Y-79705900D01*
X124361046Y-79796719D01*
X123973977Y-80055351D01*
X123715345Y-80442420D01*
X123624526Y-80899000D01*
X123715345Y-81355580D01*
X123973977Y-81742649D01*
X124361046Y-82001281D01*
X124817626Y-82092100D01*
X124864374Y-82092100D01*
X125320954Y-82001281D01*
X125708023Y-81742649D01*
X125966655Y-81355580D01*
X126057474Y-80899000D01*
X126057474Y-83439000D01*
X125966655Y-82982420D01*
X125708023Y-82595351D01*
X125320954Y-82336719D01*
X124864374Y-82245900D01*
X124817626Y-82245900D01*
X124361046Y-82336719D01*
X123973977Y-82595351D01*
X123715345Y-82982420D01*
X123624526Y-83439000D01*
X123715345Y-83895580D01*
X123973977Y-84282649D01*
X124361046Y-84541281D01*
X124817626Y-84632100D01*
X124864374Y-84632100D01*
X125320954Y-84541281D01*
X125708023Y-84282649D01*
X125966655Y-83895580D01*
X126057474Y-83439000D01*
X126057474Y-85979000D01*
X125966655Y-85522420D01*
X125708023Y-85135351D01*
X125320954Y-84876719D01*
X124864374Y-84785900D01*
X124817626Y-84785900D01*
X124361046Y-84876719D01*
X123973977Y-85135351D01*
X123715345Y-85522420D01*
X123624526Y-85979000D01*
X123715345Y-86435580D01*
X123973977Y-86822649D01*
X124361046Y-87081281D01*
X124817626Y-87172100D01*
X124864374Y-87172100D01*
X125320954Y-87081281D01*
X125708023Y-86822649D01*
X125966655Y-86435580D01*
X126057474Y-85979000D01*
X126057474Y-86525288D01*
X126026717Y-86555992D01*
X125908634Y-86840366D01*
X125908366Y-87148283D01*
X126025952Y-87432863D01*
X126243492Y-87650783D01*
X126527866Y-87768866D01*
X126835783Y-87769134D01*
X127120363Y-87651548D01*
X127305493Y-87466740D01*
X127888088Y-87466740D01*
X128136591Y-87838649D01*
X128523660Y-88097281D01*
X128980240Y-88188100D01*
X129337760Y-88188100D01*
X129794340Y-88097281D01*
X130181409Y-87838649D01*
X130440041Y-87451580D01*
X130530860Y-86995000D01*
X130530860Y-89535000D01*
X130440041Y-89078420D01*
X130181409Y-88691351D01*
X129794340Y-88432719D01*
X129337760Y-88341900D01*
X128980240Y-88341900D01*
X128523660Y-88432719D01*
X128136591Y-88691351D01*
X127877959Y-89078420D01*
X127874513Y-89095740D01*
X127337874Y-89095740D01*
X127248508Y-89006217D01*
X126964134Y-88888134D01*
X126656217Y-88887866D01*
X126371637Y-89005452D01*
X126153717Y-89222992D01*
X126057474Y-89454769D01*
X126057474Y-88519000D01*
X125966655Y-88062420D01*
X125708023Y-87675351D01*
X125320954Y-87416719D01*
X124864374Y-87325900D01*
X124817626Y-87325900D01*
X124361046Y-87416719D01*
X123973977Y-87675351D01*
X123715345Y-88062420D01*
X123624526Y-88519000D01*
X123715345Y-88975580D01*
X123973977Y-89362649D01*
X124361046Y-89621281D01*
X124817626Y-89712100D01*
X124864374Y-89712100D01*
X125320954Y-89621281D01*
X125708023Y-89362649D01*
X125966655Y-88975580D01*
X126057474Y-88519000D01*
X126057474Y-89454769D01*
X126035634Y-89507366D01*
X126035366Y-89815283D01*
X126152952Y-90099863D01*
X126370492Y-90317783D01*
X126654866Y-90435866D01*
X126962783Y-90436134D01*
X127247363Y-90318548D01*
X127465283Y-90101008D01*
X127505257Y-90004740D01*
X127886752Y-90004740D01*
X128136591Y-90378649D01*
X128523660Y-90637281D01*
X128980240Y-90728100D01*
X129337760Y-90728100D01*
X129794340Y-90637281D01*
X130181409Y-90378649D01*
X130440041Y-89991580D01*
X130530860Y-89535000D01*
X130530860Y-95885000D01*
X130510955Y-95784930D01*
X130510955Y-94208600D01*
X130510955Y-92481400D01*
X130486579Y-92355763D01*
X130414042Y-92245339D01*
X130304538Y-92171423D01*
X130175000Y-92145445D01*
X128143000Y-92145445D01*
X128017363Y-92169821D01*
X127906939Y-92242358D01*
X127833023Y-92351862D01*
X127807045Y-92481400D01*
X127807045Y-94208600D01*
X127831421Y-94334237D01*
X127903958Y-94444661D01*
X128013462Y-94518577D01*
X128143000Y-94544555D01*
X130175000Y-94544555D01*
X130300637Y-94520179D01*
X130411061Y-94447642D01*
X130484977Y-94338138D01*
X130510955Y-94208600D01*
X130510955Y-95784930D01*
X130440041Y-95428420D01*
X130181409Y-95041351D01*
X129794340Y-94782719D01*
X129337760Y-94691900D01*
X128980240Y-94691900D01*
X128523660Y-94782719D01*
X128136591Y-95041351D01*
X127877959Y-95428420D01*
X127787140Y-95885000D01*
X127877959Y-96341580D01*
X128136591Y-96728649D01*
X128523660Y-96987281D01*
X128980240Y-97078100D01*
X129337760Y-97078100D01*
X129794340Y-96987281D01*
X130181409Y-96728649D01*
X130440041Y-96341580D01*
X130530860Y-95885000D01*
X130530860Y-98425000D01*
X130440041Y-97968420D01*
X130181409Y-97581351D01*
X129794340Y-97322719D01*
X129337760Y-97231900D01*
X128980240Y-97231900D01*
X128523660Y-97322719D01*
X128136591Y-97581351D01*
X127877959Y-97968420D01*
X127787140Y-98425000D01*
X127877959Y-98881580D01*
X128136591Y-99268649D01*
X128523660Y-99527281D01*
X128980240Y-99618100D01*
X129337760Y-99618100D01*
X129794340Y-99527281D01*
X130181409Y-99268649D01*
X130440041Y-98881580D01*
X130530860Y-98425000D01*
X130530860Y-100965000D01*
X130440041Y-100508420D01*
X130181409Y-100121351D01*
X129794340Y-99862719D01*
X129337760Y-99771900D01*
X128980240Y-99771900D01*
X128523660Y-99862719D01*
X128136591Y-100121351D01*
X127877959Y-100508420D01*
X127787140Y-100965000D01*
X127877959Y-101421580D01*
X128136591Y-101808649D01*
X128523660Y-102067281D01*
X128980240Y-102158100D01*
X129337760Y-102158100D01*
X129794340Y-102067281D01*
X130181409Y-101808649D01*
X130440041Y-101421580D01*
X130530860Y-100965000D01*
X130530860Y-103505000D01*
X130440041Y-103048420D01*
X130181409Y-102661351D01*
X129794340Y-102402719D01*
X129337760Y-102311900D01*
X128980240Y-102311900D01*
X128523660Y-102402719D01*
X128136591Y-102661351D01*
X127877959Y-103048420D01*
X127787140Y-103505000D01*
X127877959Y-103961580D01*
X128136591Y-104348649D01*
X128523660Y-104607281D01*
X128980240Y-104698100D01*
X129337760Y-104698100D01*
X129794340Y-104607281D01*
X130181409Y-104348649D01*
X130440041Y-103961580D01*
X130530860Y-103505000D01*
X130530860Y-106045000D01*
X130440041Y-105588420D01*
X130181409Y-105201351D01*
X129794340Y-104942719D01*
X129337760Y-104851900D01*
X128980240Y-104851900D01*
X128523660Y-104942719D01*
X128136591Y-105201351D01*
X127959873Y-105465826D01*
X127820008Y-105325717D01*
X127535634Y-105207634D01*
X127252476Y-105207387D01*
X126751294Y-104706206D01*
X126603195Y-104607249D01*
X126428500Y-104572500D01*
X125728167Y-104572500D01*
X125966655Y-104215580D01*
X126057474Y-103759000D01*
X126057474Y-101219000D01*
X126057474Y-98679000D01*
X126057474Y-96139000D01*
X126057474Y-93599000D01*
X126057474Y-91059000D01*
X125966655Y-90602420D01*
X125708023Y-90215351D01*
X125320954Y-89956719D01*
X124864374Y-89865900D01*
X124817626Y-89865900D01*
X124361046Y-89956719D01*
X123973977Y-90215351D01*
X123715345Y-90602420D01*
X123624526Y-91059000D01*
X123715345Y-91515580D01*
X123973977Y-91902649D01*
X124361046Y-92161281D01*
X124817626Y-92252100D01*
X124864374Y-92252100D01*
X125320954Y-92161281D01*
X125708023Y-91902649D01*
X125966655Y-91515580D01*
X126057474Y-91059000D01*
X126057474Y-93599000D01*
X125966655Y-93142420D01*
X125708023Y-92755351D01*
X125320954Y-92496719D01*
X124864374Y-92405900D01*
X124817626Y-92405900D01*
X124361046Y-92496719D01*
X123973977Y-92755351D01*
X123715345Y-93142420D01*
X123624526Y-93599000D01*
X123715345Y-94055580D01*
X123973977Y-94442649D01*
X124361046Y-94701281D01*
X124817626Y-94792100D01*
X124864374Y-94792100D01*
X125320954Y-94701281D01*
X125708023Y-94442649D01*
X125966655Y-94055580D01*
X126057474Y-93599000D01*
X126057474Y-96139000D01*
X125966655Y-95682420D01*
X125708023Y-95295351D01*
X125320954Y-95036719D01*
X124864374Y-94945900D01*
X124817626Y-94945900D01*
X124361046Y-95036719D01*
X123973977Y-95295351D01*
X123715345Y-95682420D01*
X123624526Y-96139000D01*
X123715345Y-96595580D01*
X123973977Y-96982649D01*
X124361046Y-97241281D01*
X124817626Y-97332100D01*
X124864374Y-97332100D01*
X125320954Y-97241281D01*
X125708023Y-96982649D01*
X125966655Y-96595580D01*
X126057474Y-96139000D01*
X126057474Y-98679000D01*
X125966655Y-98222420D01*
X125708023Y-97835351D01*
X125320954Y-97576719D01*
X124864374Y-97485900D01*
X124817626Y-97485900D01*
X124361046Y-97576719D01*
X123973977Y-97835351D01*
X123715345Y-98222420D01*
X123624526Y-98679000D01*
X123715345Y-99135580D01*
X123973977Y-99522649D01*
X124361046Y-99781281D01*
X124817626Y-99872100D01*
X124864374Y-99872100D01*
X125320954Y-99781281D01*
X125708023Y-99522649D01*
X125966655Y-99135580D01*
X126057474Y-98679000D01*
X126057474Y-101219000D01*
X125966655Y-100762420D01*
X125708023Y-100375351D01*
X125320954Y-100116719D01*
X124864374Y-100025900D01*
X124817626Y-100025900D01*
X124361046Y-100116719D01*
X123973977Y-100375351D01*
X123715345Y-100762420D01*
X123624526Y-101219000D01*
X123715345Y-101675580D01*
X123973977Y-102062649D01*
X124361046Y-102321281D01*
X124817626Y-102412100D01*
X124864374Y-102412100D01*
X125320954Y-102321281D01*
X125708023Y-102062649D01*
X125966655Y-101675580D01*
X126057474Y-101219000D01*
X126057474Y-103759000D01*
X125966655Y-103302420D01*
X125708023Y-102915351D01*
X125320954Y-102656719D01*
X124864374Y-102565900D01*
X124817626Y-102565900D01*
X124361046Y-102656719D01*
X123973977Y-102915351D01*
X123715345Y-103302420D01*
X123624526Y-103759000D01*
X123715345Y-104215580D01*
X123973977Y-104602649D01*
X124006083Y-104624101D01*
X123883206Y-104706206D01*
X123517474Y-105071938D01*
X123517474Y-103759000D01*
X123517474Y-101219000D01*
X123517474Y-98679000D01*
X123517474Y-96139000D01*
X123517474Y-93599000D01*
X123517474Y-91059000D01*
X123517474Y-88519000D01*
X123517474Y-85979000D01*
X123517474Y-83439000D01*
X123517474Y-80899000D01*
X123517474Y-78359000D01*
X123517474Y-75819000D01*
X123517474Y-73279000D01*
X123517474Y-70739000D01*
X123426655Y-70282420D01*
X123168023Y-69895351D01*
X122780954Y-69636719D01*
X122324374Y-69545900D01*
X122277626Y-69545900D01*
X121821046Y-69636719D01*
X121433977Y-69895351D01*
X121175345Y-70282420D01*
X121084526Y-70739000D01*
X121175345Y-71195580D01*
X121433977Y-71582649D01*
X121821046Y-71841281D01*
X122277626Y-71932100D01*
X122324374Y-71932100D01*
X122780954Y-71841281D01*
X123168023Y-71582649D01*
X123426655Y-71195580D01*
X123517474Y-70739000D01*
X123517474Y-73279000D01*
X123426655Y-72822420D01*
X123168023Y-72435351D01*
X122780954Y-72176719D01*
X122324374Y-72085900D01*
X122277626Y-72085900D01*
X121821046Y-72176719D01*
X121433977Y-72435351D01*
X121175345Y-72822420D01*
X121084526Y-73279000D01*
X121175345Y-73735580D01*
X121433977Y-74122649D01*
X121821046Y-74381281D01*
X122277626Y-74472100D01*
X122324374Y-74472100D01*
X122780954Y-74381281D01*
X123168023Y-74122649D01*
X123426655Y-73735580D01*
X123517474Y-73279000D01*
X123517474Y-75819000D01*
X123426655Y-75362420D01*
X123168023Y-74975351D01*
X122780954Y-74716719D01*
X122324374Y-74625900D01*
X122277626Y-74625900D01*
X121821046Y-74716719D01*
X121433977Y-74975351D01*
X121175345Y-75362420D01*
X121084526Y-75819000D01*
X121175345Y-76275580D01*
X121433977Y-76662649D01*
X121821046Y-76921281D01*
X122277626Y-77012100D01*
X122324374Y-77012100D01*
X122780954Y-76921281D01*
X123168023Y-76662649D01*
X123426655Y-76275580D01*
X123517474Y-75819000D01*
X123517474Y-78359000D01*
X123426655Y-77902420D01*
X123168023Y-77515351D01*
X122780954Y-77256719D01*
X122324374Y-77165900D01*
X122277626Y-77165900D01*
X121821046Y-77256719D01*
X121433977Y-77515351D01*
X121175345Y-77902420D01*
X121084526Y-78359000D01*
X121175345Y-78815580D01*
X121433977Y-79202649D01*
X121821046Y-79461281D01*
X122277626Y-79552100D01*
X122324374Y-79552100D01*
X122780954Y-79461281D01*
X123168023Y-79202649D01*
X123426655Y-78815580D01*
X123517474Y-78359000D01*
X123517474Y-80899000D01*
X123426655Y-80442420D01*
X123168023Y-80055351D01*
X122780954Y-79796719D01*
X122324374Y-79705900D01*
X122277626Y-79705900D01*
X121821046Y-79796719D01*
X121433977Y-80055351D01*
X121175345Y-80442420D01*
X121084526Y-80899000D01*
X121175345Y-81355580D01*
X121433977Y-81742649D01*
X121821046Y-82001281D01*
X122277626Y-82092100D01*
X122324374Y-82092100D01*
X122780954Y-82001281D01*
X123168023Y-81742649D01*
X123426655Y-81355580D01*
X123517474Y-80899000D01*
X123517474Y-83439000D01*
X123426655Y-82982420D01*
X123168023Y-82595351D01*
X122780954Y-82336719D01*
X122324374Y-82245900D01*
X122277626Y-82245900D01*
X121821046Y-82336719D01*
X121433977Y-82595351D01*
X121175345Y-82982420D01*
X121084526Y-83439000D01*
X121175345Y-83895580D01*
X121433977Y-84282649D01*
X121821046Y-84541281D01*
X122277626Y-84632100D01*
X122324374Y-84632100D01*
X122780954Y-84541281D01*
X123168023Y-84282649D01*
X123426655Y-83895580D01*
X123517474Y-83439000D01*
X123517474Y-85979000D01*
X123426655Y-85522420D01*
X123168023Y-85135351D01*
X122780954Y-84876719D01*
X122324374Y-84785900D01*
X122277626Y-84785900D01*
X121821046Y-84876719D01*
X121433977Y-85135351D01*
X121175345Y-85522420D01*
X121084526Y-85979000D01*
X121175345Y-86435580D01*
X121433977Y-86822649D01*
X121821046Y-87081281D01*
X122277626Y-87172100D01*
X122324374Y-87172100D01*
X122780954Y-87081281D01*
X123168023Y-86822649D01*
X123426655Y-86435580D01*
X123517474Y-85979000D01*
X123517474Y-88519000D01*
X123426655Y-88062420D01*
X123168023Y-87675351D01*
X122780954Y-87416719D01*
X122324374Y-87325900D01*
X122277626Y-87325900D01*
X121821046Y-87416719D01*
X121433977Y-87675351D01*
X121175345Y-88062420D01*
X121084526Y-88519000D01*
X121175345Y-88975580D01*
X121433977Y-89362649D01*
X121821046Y-89621281D01*
X122277626Y-89712100D01*
X122324374Y-89712100D01*
X122780954Y-89621281D01*
X123168023Y-89362649D01*
X123426655Y-88975580D01*
X123517474Y-88519000D01*
X123517474Y-91059000D01*
X123426655Y-90602420D01*
X123168023Y-90215351D01*
X122780954Y-89956719D01*
X122324374Y-89865900D01*
X122277626Y-89865900D01*
X121821046Y-89956719D01*
X121433977Y-90215351D01*
X121175345Y-90602420D01*
X121084526Y-91059000D01*
X121175345Y-91515580D01*
X121433977Y-91902649D01*
X121821046Y-92161281D01*
X122277626Y-92252100D01*
X122324374Y-92252100D01*
X122780954Y-92161281D01*
X123168023Y-91902649D01*
X123426655Y-91515580D01*
X123517474Y-91059000D01*
X123517474Y-93599000D01*
X123426655Y-93142420D01*
X123168023Y-92755351D01*
X122780954Y-92496719D01*
X122324374Y-92405900D01*
X122277626Y-92405900D01*
X121821046Y-92496719D01*
X121433977Y-92755351D01*
X121175345Y-93142420D01*
X121084526Y-93599000D01*
X121175345Y-94055580D01*
X121433977Y-94442649D01*
X121821046Y-94701281D01*
X122277626Y-94792100D01*
X122324374Y-94792100D01*
X122780954Y-94701281D01*
X123168023Y-94442649D01*
X123426655Y-94055580D01*
X123517474Y-93599000D01*
X123517474Y-96139000D01*
X123426655Y-95682420D01*
X123168023Y-95295351D01*
X122780954Y-95036719D01*
X122324374Y-94945900D01*
X122277626Y-94945900D01*
X121821046Y-95036719D01*
X121433977Y-95295351D01*
X121175345Y-95682420D01*
X121084526Y-96139000D01*
X121175345Y-96595580D01*
X121433977Y-96982649D01*
X121821046Y-97241281D01*
X122277626Y-97332100D01*
X122324374Y-97332100D01*
X122780954Y-97241281D01*
X123168023Y-96982649D01*
X123426655Y-96595580D01*
X123517474Y-96139000D01*
X123517474Y-98679000D01*
X123426655Y-98222420D01*
X123168023Y-97835351D01*
X122780954Y-97576719D01*
X122324374Y-97485900D01*
X122277626Y-97485900D01*
X121821046Y-97576719D01*
X121433977Y-97835351D01*
X121175345Y-98222420D01*
X121084526Y-98679000D01*
X121175345Y-99135580D01*
X121433977Y-99522649D01*
X121821046Y-99781281D01*
X122277626Y-99872100D01*
X122324374Y-99872100D01*
X122780954Y-99781281D01*
X123168023Y-99522649D01*
X123426655Y-99135580D01*
X123517474Y-98679000D01*
X123517474Y-101219000D01*
X123426655Y-100762420D01*
X123168023Y-100375351D01*
X122780954Y-100116719D01*
X122324374Y-100025900D01*
X122277626Y-100025900D01*
X121821046Y-100116719D01*
X121433977Y-100375351D01*
X121175345Y-100762420D01*
X121084526Y-101219000D01*
X121175345Y-101675580D01*
X121433977Y-102062649D01*
X121821046Y-102321281D01*
X122277626Y-102412100D01*
X122324374Y-102412100D01*
X122780954Y-102321281D01*
X123168023Y-102062649D01*
X123426655Y-101675580D01*
X123517474Y-101219000D01*
X123517474Y-103759000D01*
X123426655Y-103302420D01*
X123168023Y-102915351D01*
X122780954Y-102656719D01*
X122324374Y-102565900D01*
X122277626Y-102565900D01*
X121821046Y-102656719D01*
X121433977Y-102915351D01*
X121175345Y-103302420D01*
X121084526Y-103759000D01*
X121175345Y-104215580D01*
X121433977Y-104602649D01*
X121821046Y-104861281D01*
X122277626Y-104952100D01*
X122324374Y-104952100D01*
X122780954Y-104861281D01*
X123168023Y-104602649D01*
X123426655Y-104215580D01*
X123517474Y-103759000D01*
X123517474Y-105071938D01*
X123184706Y-105404706D01*
X123156161Y-105447425D01*
X122780954Y-105196719D01*
X122324374Y-105105900D01*
X122277626Y-105105900D01*
X121821046Y-105196719D01*
X121433977Y-105455351D01*
X121175345Y-105842420D01*
X121149979Y-105969940D01*
X121052548Y-105734137D01*
X120835008Y-105516217D01*
X120550634Y-105398134D01*
X120242717Y-105397866D01*
X119958137Y-105515452D01*
X119740217Y-105732992D01*
X119622134Y-106017366D01*
X119621885Y-106303354D01*
X118598691Y-107326548D01*
X118288760Y-107264900D01*
X117931240Y-107264900D01*
X117474660Y-107355719D01*
X117087591Y-107614351D01*
X116939500Y-107835984D01*
X116939500Y-106540015D01*
X117087591Y-106761649D01*
X117474660Y-107020281D01*
X117931240Y-107111100D01*
X118288760Y-107111100D01*
X118745340Y-107020281D01*
X119132409Y-106761649D01*
X119391041Y-106374580D01*
X119481860Y-105918000D01*
X119391041Y-105461420D01*
X119132409Y-105074351D01*
X118745340Y-104815719D01*
X118288760Y-104724900D01*
X117931240Y-104724900D01*
X117474660Y-104815719D01*
X117087591Y-105074351D01*
X116939500Y-105295984D01*
X116939500Y-86791084D01*
X116960591Y-86822649D01*
X117347660Y-87081281D01*
X117804240Y-87172100D01*
X118161760Y-87172100D01*
X118618340Y-87081281D01*
X119005409Y-86822649D01*
X119264041Y-86435580D01*
X119354860Y-85979000D01*
X119264041Y-85522420D01*
X119005409Y-85135351D01*
X118618340Y-84876719D01*
X118161760Y-84785900D01*
X117804240Y-84785900D01*
X117347660Y-84876719D01*
X116960591Y-85135351D01*
X116939500Y-85166915D01*
X116939500Y-84251084D01*
X116960591Y-84282649D01*
X117347660Y-84541281D01*
X117804240Y-84632100D01*
X118161760Y-84632100D01*
X118618340Y-84541281D01*
X119005409Y-84282649D01*
X119264041Y-83895580D01*
X119354860Y-83439000D01*
X119264041Y-82982420D01*
X119005409Y-82595351D01*
X118618340Y-82336719D01*
X118161760Y-82245900D01*
X117804240Y-82245900D01*
X117347660Y-82336719D01*
X116960591Y-82595351D01*
X116939500Y-82626915D01*
X116939500Y-81711084D01*
X116960591Y-81742649D01*
X117347660Y-82001281D01*
X117804240Y-82092100D01*
X118161760Y-82092100D01*
X118618340Y-82001281D01*
X119005409Y-81742649D01*
X119264041Y-81355580D01*
X119354860Y-80899000D01*
X119264041Y-80442420D01*
X119005409Y-80055351D01*
X118618340Y-79796719D01*
X118161760Y-79705900D01*
X117804240Y-79705900D01*
X117347660Y-79796719D01*
X116960591Y-80055351D01*
X116939500Y-80086915D01*
X116939500Y-79171084D01*
X116960591Y-79202649D01*
X117347660Y-79461281D01*
X117804240Y-79552100D01*
X118161760Y-79552100D01*
X118618340Y-79461281D01*
X119005409Y-79202649D01*
X119264041Y-78815580D01*
X119354860Y-78359000D01*
X119264041Y-77902420D01*
X119005409Y-77515351D01*
X118618340Y-77256719D01*
X118161760Y-77165900D01*
X117804240Y-77165900D01*
X117347660Y-77256719D01*
X116960591Y-77515351D01*
X116939500Y-77546915D01*
X116939500Y-76631084D01*
X116960591Y-76662649D01*
X117347660Y-76921281D01*
X117804240Y-77012100D01*
X118161760Y-77012100D01*
X118618340Y-76921281D01*
X119005409Y-76662649D01*
X119264041Y-76275580D01*
X119354860Y-75819000D01*
X119264041Y-75362420D01*
X119005409Y-74975351D01*
X118618340Y-74716719D01*
X118161760Y-74625900D01*
X117804240Y-74625900D01*
X117347660Y-74716719D01*
X116960591Y-74975351D01*
X116939500Y-75006915D01*
X116939500Y-74091084D01*
X116960591Y-74122649D01*
X117347660Y-74381281D01*
X117804240Y-74472100D01*
X118161760Y-74472100D01*
X118618340Y-74381281D01*
X119005409Y-74122649D01*
X119264041Y-73735580D01*
X119354860Y-73279000D01*
X119264041Y-72822420D01*
X119005409Y-72435351D01*
X118618340Y-72176719D01*
X118161760Y-72085900D01*
X117804240Y-72085900D01*
X117347660Y-72176719D01*
X116960591Y-72435351D01*
X116939500Y-72466915D01*
X116939500Y-71551084D01*
X116960591Y-71582649D01*
X117347660Y-71841281D01*
X117804240Y-71932100D01*
X118161760Y-71932100D01*
X118618340Y-71841281D01*
X119005409Y-71582649D01*
X119264041Y-71195580D01*
X119264454Y-71193500D01*
X119824500Y-71193500D01*
X119998429Y-71158903D01*
X119998430Y-71158903D01*
X120145880Y-71060380D01*
X121288880Y-69917380D01*
X121387403Y-69769930D01*
X121387403Y-69769929D01*
X121422000Y-69596000D01*
X121422000Y-69024724D01*
X121433977Y-69042649D01*
X121821046Y-69301281D01*
X122277626Y-69392100D01*
X122324374Y-69392100D01*
X122780954Y-69301281D01*
X123168023Y-69042649D01*
X123426655Y-68655580D01*
X123517474Y-68199000D01*
X123426655Y-67742420D01*
X123168023Y-67355351D01*
X122780954Y-67096719D01*
X122324374Y-67005900D01*
X122277626Y-67005900D01*
X121821046Y-67096719D01*
X121433977Y-67355351D01*
X121422000Y-67373275D01*
X121422000Y-66484724D01*
X121433977Y-66502649D01*
X121821046Y-66761281D01*
X122277626Y-66852100D01*
X122324374Y-66852100D01*
X122780954Y-66761281D01*
X123168023Y-66502649D01*
X123426655Y-66115580D01*
X123517474Y-65659000D01*
X123426655Y-65202420D01*
X123179753Y-64832907D01*
X123300429Y-64808903D01*
X123300430Y-64808903D01*
X123447880Y-64710380D01*
X123828880Y-64329380D01*
X123927403Y-64181930D01*
X123927403Y-64181929D01*
X123962000Y-64008000D01*
X123962000Y-63944724D01*
X123973977Y-63962649D01*
X124361046Y-64221281D01*
X124817626Y-64312100D01*
X124864374Y-64312100D01*
X125320954Y-64221281D01*
X125708023Y-63962649D01*
X125966655Y-63575580D01*
X126057474Y-63119000D01*
X125966655Y-62662420D01*
X125708023Y-62275351D01*
X125320954Y-62016719D01*
X124864374Y-61925900D01*
X124817626Y-61925900D01*
X124361046Y-62016719D01*
X123973977Y-62275351D01*
X123962000Y-62293275D01*
X123962000Y-61404724D01*
X123973977Y-61422649D01*
X124361046Y-61681281D01*
X124817626Y-61772100D01*
X124864374Y-61772100D01*
X125320954Y-61681281D01*
X125708023Y-61422649D01*
X125966655Y-61035580D01*
X126057474Y-60579000D01*
X126057474Y-58039000D01*
X126057474Y-55499000D01*
X125966655Y-55042420D01*
X125708023Y-54655351D01*
X125320954Y-54396719D01*
X124864374Y-54305900D01*
X124817626Y-54305900D01*
X124361046Y-54396719D01*
X123973977Y-54655351D01*
X123715345Y-55042420D01*
X123624526Y-55499000D01*
X123715345Y-55955580D01*
X123973977Y-56342649D01*
X124361046Y-56601281D01*
X124817626Y-56692100D01*
X124864374Y-56692100D01*
X125320954Y-56601281D01*
X125708023Y-56342649D01*
X125966655Y-55955580D01*
X126057474Y-55499000D01*
X126057474Y-58039000D01*
X125966655Y-57582420D01*
X125708023Y-57195351D01*
X125320954Y-56936719D01*
X124864374Y-56845900D01*
X124817626Y-56845900D01*
X124361046Y-56936719D01*
X123973977Y-57195351D01*
X123715345Y-57582420D01*
X123624526Y-58039000D01*
X123715345Y-58495580D01*
X123973977Y-58882649D01*
X124361046Y-59141281D01*
X124817626Y-59232100D01*
X124864374Y-59232100D01*
X125320954Y-59141281D01*
X125708023Y-58882649D01*
X125966655Y-58495580D01*
X126057474Y-58039000D01*
X126057474Y-60579000D01*
X125966655Y-60122420D01*
X125708023Y-59735351D01*
X125320954Y-59476719D01*
X124864374Y-59385900D01*
X124817626Y-59385900D01*
X124361046Y-59476719D01*
X123973977Y-59735351D01*
X123962000Y-59753275D01*
X123962000Y-59296300D01*
X123927403Y-59122371D01*
X123927403Y-59122370D01*
X123828880Y-58974920D01*
X123395767Y-58541807D01*
X123426655Y-58495580D01*
X123517474Y-58039000D01*
X123517474Y-55499000D01*
X123426655Y-55042420D01*
X123168023Y-54655351D01*
X122780954Y-54396719D01*
X122324374Y-54305900D01*
X122277626Y-54305900D01*
X121821046Y-54396719D01*
X121433977Y-54655351D01*
X121175345Y-55042420D01*
X121084526Y-55499000D01*
X121175345Y-55955580D01*
X121433977Y-56342649D01*
X121821046Y-56601281D01*
X122277626Y-56692100D01*
X122324374Y-56692100D01*
X122780954Y-56601281D01*
X123168023Y-56342649D01*
X123426655Y-55955580D01*
X123517474Y-55499000D01*
X123517474Y-58039000D01*
X123426655Y-57582420D01*
X123168023Y-57195351D01*
X122780954Y-56936719D01*
X122324374Y-56845900D01*
X122277626Y-56845900D01*
X121821046Y-56936719D01*
X121433977Y-57195351D01*
X121175345Y-57582420D01*
X121084526Y-58039000D01*
X121175345Y-58495580D01*
X121433977Y-58882649D01*
X121821046Y-59141281D01*
X122277626Y-59232100D01*
X122324374Y-59232100D01*
X122721539Y-59153099D01*
X123053000Y-59484560D01*
X123053000Y-59658494D01*
X122780954Y-59476719D01*
X122324374Y-59385900D01*
X122277626Y-59385900D01*
X121821046Y-59476719D01*
X121433977Y-59735351D01*
X121175345Y-60122420D01*
X121084526Y-60579000D01*
X121175345Y-61035580D01*
X121433977Y-61422649D01*
X121821046Y-61681281D01*
X122277626Y-61772100D01*
X122324374Y-61772100D01*
X122780954Y-61681281D01*
X123053000Y-61499505D01*
X123053000Y-62198494D01*
X122780954Y-62016719D01*
X122324374Y-61925900D01*
X122277626Y-61925900D01*
X121821046Y-62016719D01*
X121433977Y-62275351D01*
X121175345Y-62662420D01*
X121084526Y-63119000D01*
X121175345Y-63575580D01*
X121429695Y-63956242D01*
X121365070Y-63969097D01*
X121217620Y-64067620D01*
X120850500Y-64434740D01*
X120850500Y-54036260D01*
X121136030Y-53750729D01*
X121274840Y-53778340D01*
X121417734Y-53778340D01*
X121433977Y-53802649D01*
X121821046Y-54061281D01*
X122277626Y-54152100D01*
X122324374Y-54152100D01*
X122780954Y-54061281D01*
X123168023Y-53802649D01*
X123426655Y-53415580D01*
X123517474Y-52959000D01*
X123426655Y-52502420D01*
X123168023Y-52115351D01*
X122780954Y-51856719D01*
X122324374Y-51765900D01*
X122277626Y-51765900D01*
X121821046Y-51856719D01*
X121542157Y-52043067D01*
X121162000Y-51662910D01*
X121162000Y-51463312D01*
X121198358Y-51518661D01*
X121307862Y-51592577D01*
X121437400Y-51618555D01*
X123164600Y-51618555D01*
X123290237Y-51594179D01*
X123400661Y-51521642D01*
X123474577Y-51412138D01*
X123500555Y-51282600D01*
X123500555Y-50940675D01*
X123574281Y-51118687D01*
X123938463Y-51550179D01*
X124440048Y-51809459D01*
X124662498Y-51709188D01*
X124662498Y-51796756D01*
X124361046Y-51856719D01*
X123973977Y-52115351D01*
X123715345Y-52502420D01*
X123624526Y-52959000D01*
X123715345Y-53415580D01*
X123973977Y-53802649D01*
X124361046Y-54061281D01*
X124817626Y-54152100D01*
X124864374Y-54152100D01*
X125320954Y-54061281D01*
X125708023Y-53802649D01*
X125966655Y-53415580D01*
X126057474Y-52959000D01*
X125966655Y-52502420D01*
X125940364Y-52463073D01*
X126010283Y-52463134D01*
X126294863Y-52345548D01*
X126512783Y-52128008D01*
X126630866Y-51843634D01*
X126631134Y-51535717D01*
X126627630Y-51527236D01*
X126657903Y-51481930D01*
X126657903Y-51481929D01*
X126692500Y-51308000D01*
X126692500Y-49657000D01*
X126657904Y-49483071D01*
X126657903Y-49483070D01*
X126559380Y-49335620D01*
X126511888Y-49288128D01*
X126518283Y-49288134D01*
X126802863Y-49170548D01*
X127005263Y-48968500D01*
X127884567Y-48968500D01*
X127833023Y-49044862D01*
X127807045Y-49174400D01*
X127807045Y-50901600D01*
X127831421Y-51027237D01*
X127903958Y-51137661D01*
X128013462Y-51211577D01*
X128143000Y-51237555D01*
X130175000Y-51237555D01*
X130300637Y-51213179D01*
X130411061Y-51140642D01*
X130484977Y-51031138D01*
X130510955Y-50901600D01*
X130510955Y-49174400D01*
X130486579Y-49048763D01*
X130414042Y-48938339D01*
X130304538Y-48864423D01*
X130175000Y-48838445D01*
X128967792Y-48838445D01*
X128972380Y-48835380D01*
X129607380Y-48200380D01*
X129705903Y-48052930D01*
X129705904Y-48052929D01*
X129740500Y-47879000D01*
X129740500Y-46223252D01*
X129921340Y-46187281D01*
X130308409Y-45928649D01*
X130567041Y-45541580D01*
X130657860Y-45085000D01*
X130567041Y-44628420D01*
X130308409Y-44241351D01*
X129921340Y-43982719D01*
X129464760Y-43891900D01*
X129107240Y-43891900D01*
X128650660Y-43982719D01*
X128263591Y-44241351D01*
X128004959Y-44628420D01*
X127914140Y-45085000D01*
X128004959Y-45541580D01*
X128263591Y-45928649D01*
X128650660Y-46187281D01*
X128831500Y-46223252D01*
X128831500Y-47690740D01*
X128462740Y-48059500D01*
X127004940Y-48059500D01*
X126804008Y-47858217D01*
X126519634Y-47740134D01*
X126211717Y-47739866D01*
X125930500Y-47856062D01*
X125930500Y-46162260D01*
X128527663Y-43565096D01*
X128650660Y-43647281D01*
X129107240Y-43738100D01*
X129464760Y-43738100D01*
X129921340Y-43647281D01*
X130308409Y-43388649D01*
X130567041Y-43001580D01*
X130657860Y-42545000D01*
X130657860Y-40005000D01*
X130657860Y-37465000D01*
X130657860Y-34925000D01*
X130657860Y-32385000D01*
X130657860Y-29845000D01*
X130567041Y-29388420D01*
X130308409Y-29001351D01*
X129921340Y-28742719D01*
X129464760Y-28651900D01*
X129107240Y-28651900D01*
X128650660Y-28742719D01*
X128263591Y-29001351D01*
X128004959Y-29388420D01*
X127914140Y-29845000D01*
X128004959Y-30301580D01*
X128263591Y-30688649D01*
X128650660Y-30947281D01*
X129107240Y-31038100D01*
X129464760Y-31038100D01*
X129921340Y-30947281D01*
X130308409Y-30688649D01*
X130567041Y-30301580D01*
X130657860Y-29845000D01*
X130657860Y-32385000D01*
X130567041Y-31928420D01*
X130308409Y-31541351D01*
X129921340Y-31282719D01*
X129464760Y-31191900D01*
X129107240Y-31191900D01*
X128650660Y-31282719D01*
X128263591Y-31541351D01*
X128004959Y-31928420D01*
X127914140Y-32385000D01*
X128004959Y-32841580D01*
X128263591Y-33228649D01*
X128650660Y-33487281D01*
X129107240Y-33578100D01*
X129464760Y-33578100D01*
X129921340Y-33487281D01*
X130308409Y-33228649D01*
X130567041Y-32841580D01*
X130657860Y-32385000D01*
X130657860Y-34925000D01*
X130567041Y-34468420D01*
X130308409Y-34081351D01*
X129921340Y-33822719D01*
X129464760Y-33731900D01*
X129107240Y-33731900D01*
X128650660Y-33822719D01*
X128263591Y-34081351D01*
X128004959Y-34468420D01*
X127914140Y-34925000D01*
X128004959Y-35381580D01*
X128263591Y-35768649D01*
X128650660Y-36027281D01*
X129107240Y-36118100D01*
X129464760Y-36118100D01*
X129921340Y-36027281D01*
X130308409Y-35768649D01*
X130567041Y-35381580D01*
X130657860Y-34925000D01*
X130657860Y-37465000D01*
X130567041Y-37008420D01*
X130308409Y-36621351D01*
X129921340Y-36362719D01*
X129464760Y-36271900D01*
X129107240Y-36271900D01*
X128650660Y-36362719D01*
X128263591Y-36621351D01*
X128004959Y-37008420D01*
X127914140Y-37465000D01*
X128004959Y-37921580D01*
X128263591Y-38308649D01*
X128650660Y-38567281D01*
X129107240Y-38658100D01*
X129464760Y-38658100D01*
X129921340Y-38567281D01*
X130308409Y-38308649D01*
X130567041Y-37921580D01*
X130657860Y-37465000D01*
X130657860Y-40005000D01*
X130567041Y-39548420D01*
X130308409Y-39161351D01*
X129921340Y-38902719D01*
X129464760Y-38811900D01*
X129107240Y-38811900D01*
X128650660Y-38902719D01*
X128263591Y-39161351D01*
X128004959Y-39548420D01*
X127914140Y-40005000D01*
X128004959Y-40461580D01*
X128263591Y-40848649D01*
X128650660Y-41107281D01*
X129107240Y-41198100D01*
X129464760Y-41198100D01*
X129921340Y-41107281D01*
X130308409Y-40848649D01*
X130567041Y-40461580D01*
X130657860Y-40005000D01*
X130657860Y-42545000D01*
X130567041Y-42088420D01*
X130308409Y-41701351D01*
X129921340Y-41442719D01*
X129464760Y-41351900D01*
X129107240Y-41351900D01*
X128650660Y-41442719D01*
X128263591Y-41701351D01*
X128004959Y-42088420D01*
X127914140Y-42545000D01*
X127971893Y-42835346D01*
X126525133Y-44282106D01*
X126525133Y-32645845D01*
X126484044Y-31917592D01*
X126284402Y-31435612D01*
X126012395Y-31299042D01*
X125759958Y-31551479D01*
X125759958Y-31046605D01*
X125623388Y-30774598D01*
X124934845Y-30533867D01*
X124206592Y-30574956D01*
X123724612Y-30774598D01*
X123588042Y-31046605D01*
X124674000Y-32132563D01*
X125759958Y-31046605D01*
X125759958Y-31551479D01*
X124926437Y-32385000D01*
X126012395Y-33470958D01*
X126284402Y-33334388D01*
X126525133Y-32645845D01*
X126525133Y-44282106D01*
X126256028Y-44551211D01*
X126256028Y-42334958D01*
X126256028Y-41485042D01*
X125976024Y-40927281D01*
X125503888Y-40519130D01*
X125335770Y-40449500D01*
X125503888Y-40379870D01*
X125976024Y-39971719D01*
X126256028Y-39413958D01*
X126256028Y-38564042D01*
X125976024Y-38006281D01*
X125759958Y-37819496D01*
X125759958Y-33723395D01*
X124674000Y-32637437D01*
X123588042Y-33723395D01*
X123724612Y-33995402D01*
X124413155Y-34236133D01*
X125141408Y-34195044D01*
X125623388Y-33995402D01*
X125759958Y-33723395D01*
X125759958Y-37819496D01*
X125503888Y-37598130D01*
X125138956Y-37446984D01*
X124892500Y-37546376D01*
X124892500Y-38810500D01*
X126157646Y-38810500D01*
X126256028Y-38564042D01*
X126256028Y-39413958D01*
X126157646Y-39167500D01*
X124892500Y-39167500D01*
X124892500Y-40431624D01*
X124936825Y-40449500D01*
X124892500Y-40467376D01*
X124892500Y-41731500D01*
X126157646Y-41731500D01*
X126256028Y-41485042D01*
X126256028Y-42334958D01*
X126157646Y-42088500D01*
X124892500Y-42088500D01*
X124892500Y-43352624D01*
X125138956Y-43452016D01*
X125503888Y-43300870D01*
X125976024Y-42892719D01*
X126256028Y-42334958D01*
X126256028Y-44551211D01*
X125154620Y-45652620D01*
X125056097Y-45800070D01*
X125021500Y-45974000D01*
X125021500Y-48895000D01*
X125056097Y-49068930D01*
X125078376Y-49102273D01*
X125019500Y-49128812D01*
X125019500Y-50240500D01*
X125039500Y-50240500D01*
X125039500Y-50597500D01*
X125019500Y-50597500D01*
X125019500Y-50617500D01*
X124662500Y-50617500D01*
X124662500Y-50597500D01*
X124642500Y-50597500D01*
X124642500Y-50240500D01*
X124662500Y-50240500D01*
X124662500Y-49128812D01*
X124440048Y-49028541D01*
X123938463Y-49287821D01*
X123574281Y-49719313D01*
X123500555Y-49897324D01*
X123500555Y-49555400D01*
X123476179Y-49429763D01*
X123403642Y-49319339D01*
X123294138Y-49245423D01*
X123164600Y-49219445D01*
X121437400Y-49219445D01*
X121311763Y-49243821D01*
X121201339Y-49316358D01*
X121162000Y-49374637D01*
X121162000Y-43261955D01*
X123190000Y-43261955D01*
X123315637Y-43237579D01*
X123426061Y-43165042D01*
X123499977Y-43055538D01*
X123520712Y-42952140D01*
X123924112Y-43300870D01*
X124289044Y-43452016D01*
X124535500Y-43352624D01*
X124535500Y-42088500D01*
X124515500Y-42088500D01*
X124515500Y-41731500D01*
X124535500Y-41731500D01*
X124535500Y-40467376D01*
X124491174Y-40449500D01*
X124535500Y-40431624D01*
X124535500Y-39167500D01*
X124515500Y-39167500D01*
X124515500Y-38810500D01*
X124535500Y-38810500D01*
X124535500Y-37546376D01*
X124289044Y-37446984D01*
X123924112Y-37598130D01*
X123520858Y-37946733D01*
X123501579Y-37847363D01*
X123429042Y-37736939D01*
X123319538Y-37663023D01*
X123190000Y-37637045D01*
X123003500Y-37637045D01*
X123003500Y-33189298D01*
X123063598Y-33334388D01*
X123335605Y-33470958D01*
X124421563Y-32385000D01*
X123335605Y-31299042D01*
X123063598Y-31435612D01*
X123003500Y-31607505D01*
X123003500Y-27140590D01*
X123851090Y-26293000D01*
X127972754Y-26293000D01*
X127960023Y-26311862D01*
X127934045Y-26441400D01*
X127934045Y-28168600D01*
X127958421Y-28294237D01*
X128030958Y-28404661D01*
X128140462Y-28478577D01*
X128270000Y-28504555D01*
X130302000Y-28504555D01*
X130427637Y-28480179D01*
X130538061Y-28407642D01*
X130611977Y-28298138D01*
X130637955Y-28168600D01*
X130637955Y-26441400D01*
X130613579Y-26315763D01*
X130598626Y-26293000D01*
X140765336Y-26293000D01*
X140761045Y-26314400D01*
X140761045Y-28041600D01*
X140785421Y-28167237D01*
X140857958Y-28277661D01*
X140967462Y-28351577D01*
X141097000Y-28377555D01*
X141495212Y-28377555D01*
X141183079Y-28499153D01*
X140775832Y-28889477D01*
X140570155Y-29317050D01*
X140671676Y-29539500D01*
X141934500Y-29539500D01*
X141934500Y-29519500D01*
X142291500Y-29519500D01*
X142291500Y-29539500D01*
X143554324Y-29539500D01*
X143655845Y-29317050D01*
X143450168Y-28889477D01*
X143042921Y-28499153D01*
X142730787Y-28377555D01*
X143129000Y-28377555D01*
X143254637Y-28353179D01*
X143365061Y-28280642D01*
X143438977Y-28171138D01*
X143464955Y-28041600D01*
X143464955Y-26314400D01*
X143460802Y-26293000D01*
X143547410Y-26293000D01*
X147633500Y-30379090D01*
X147633500Y-40182110D01*
X146995140Y-40820470D01*
X146995140Y-40106600D01*
X146995140Y-37566600D01*
X146995140Y-35026600D01*
X146975235Y-34926530D01*
X146975235Y-33350200D01*
X146975235Y-31623000D01*
X146950859Y-31497363D01*
X146878322Y-31386939D01*
X146768818Y-31313023D01*
X146639280Y-31287045D01*
X144607280Y-31287045D01*
X144481643Y-31311421D01*
X144371219Y-31383958D01*
X144297303Y-31493462D01*
X144271325Y-31623000D01*
X144271325Y-33350200D01*
X144295701Y-33475837D01*
X144368238Y-33586261D01*
X144477742Y-33660177D01*
X144607280Y-33686155D01*
X146639280Y-33686155D01*
X146764917Y-33661779D01*
X146875341Y-33589242D01*
X146949257Y-33479738D01*
X146975235Y-33350200D01*
X146975235Y-34926530D01*
X146904321Y-34570020D01*
X146645689Y-34182951D01*
X146258620Y-33924319D01*
X145802040Y-33833500D01*
X145444520Y-33833500D01*
X144987940Y-33924319D01*
X144600871Y-34182951D01*
X144342239Y-34570020D01*
X144251420Y-35026600D01*
X144342239Y-35483180D01*
X144600871Y-35870249D01*
X144987940Y-36128881D01*
X145444520Y-36219700D01*
X145802040Y-36219700D01*
X146258620Y-36128881D01*
X146645689Y-35870249D01*
X146904321Y-35483180D01*
X146995140Y-35026600D01*
X146995140Y-37566600D01*
X146904321Y-37110020D01*
X146645689Y-36722951D01*
X146258620Y-36464319D01*
X145802040Y-36373500D01*
X145444520Y-36373500D01*
X144987940Y-36464319D01*
X144600871Y-36722951D01*
X144342239Y-37110020D01*
X144251420Y-37566600D01*
X144342239Y-38023180D01*
X144600871Y-38410249D01*
X144987940Y-38668881D01*
X145444520Y-38759700D01*
X145802040Y-38759700D01*
X146258620Y-38668881D01*
X146645689Y-38410249D01*
X146904321Y-38023180D01*
X146995140Y-37566600D01*
X146995140Y-40106600D01*
X146904321Y-39650020D01*
X146645689Y-39262951D01*
X146258620Y-39004319D01*
X145802040Y-38913500D01*
X145444520Y-38913500D01*
X144987940Y-39004319D01*
X144600871Y-39262951D01*
X144342239Y-39650020D01*
X144251420Y-40106600D01*
X144342239Y-40563180D01*
X144600871Y-40950249D01*
X144987940Y-41208881D01*
X145444520Y-41299700D01*
X145802040Y-41299700D01*
X146258620Y-41208881D01*
X146645689Y-40950249D01*
X146904321Y-40563180D01*
X146995140Y-40106600D01*
X146995140Y-40820470D01*
X146125510Y-41690100D01*
X143655845Y-41690100D01*
X143655845Y-30118950D01*
X143554324Y-29896500D01*
X142291500Y-29896500D01*
X142291500Y-29916500D01*
X141934500Y-29916500D01*
X141934500Y-29896500D01*
X140671676Y-29896500D01*
X140570155Y-30118950D01*
X140775832Y-30546523D01*
X141183079Y-30936847D01*
X141654576Y-31120528D01*
X141477660Y-31155719D01*
X141090591Y-31414351D01*
X140831959Y-31801420D01*
X140741140Y-32258000D01*
X140831959Y-32714580D01*
X141090591Y-33101649D01*
X141477660Y-33360281D01*
X141934240Y-33451100D01*
X142291760Y-33451100D01*
X142748340Y-33360281D01*
X143135409Y-33101649D01*
X143394041Y-32714580D01*
X143484860Y-32258000D01*
X143394041Y-31801420D01*
X143135409Y-31414351D01*
X142748340Y-31155719D01*
X142571423Y-31120528D01*
X143042921Y-30936847D01*
X143450168Y-30546523D01*
X143655845Y-30118950D01*
X143655845Y-41690100D01*
X143484860Y-41690100D01*
X143484860Y-39878000D01*
X143484860Y-37338000D01*
X143484860Y-34798000D01*
X143394041Y-34341420D01*
X143135409Y-33954351D01*
X142748340Y-33695719D01*
X142291760Y-33604900D01*
X141934240Y-33604900D01*
X141477660Y-33695719D01*
X141090591Y-33954351D01*
X140831959Y-34341420D01*
X140741140Y-34798000D01*
X140831959Y-35254580D01*
X141090591Y-35641649D01*
X141477660Y-35900281D01*
X141934240Y-35991100D01*
X142291760Y-35991100D01*
X142748340Y-35900281D01*
X143135409Y-35641649D01*
X143394041Y-35254580D01*
X143484860Y-34798000D01*
X143484860Y-37338000D01*
X143394041Y-36881420D01*
X143135409Y-36494351D01*
X142748340Y-36235719D01*
X142291760Y-36144900D01*
X141934240Y-36144900D01*
X141477660Y-36235719D01*
X141090591Y-36494351D01*
X140831959Y-36881420D01*
X140741140Y-37338000D01*
X140831959Y-37794580D01*
X141090591Y-38181649D01*
X141477660Y-38440281D01*
X141934240Y-38531100D01*
X142291760Y-38531100D01*
X142748340Y-38440281D01*
X143135409Y-38181649D01*
X143394041Y-37794580D01*
X143484860Y-37338000D01*
X143484860Y-39878000D01*
X143394041Y-39421420D01*
X143135409Y-39034351D01*
X142748340Y-38775719D01*
X142291760Y-38684900D01*
X141934240Y-38684900D01*
X141477660Y-38775719D01*
X141090591Y-39034351D01*
X140831959Y-39421420D01*
X140741140Y-39878000D01*
X140831959Y-40334580D01*
X141090591Y-40721649D01*
X141477660Y-40980281D01*
X141934240Y-41071100D01*
X142291760Y-41071100D01*
X142748340Y-40980281D01*
X143135409Y-40721649D01*
X143394041Y-40334580D01*
X143484860Y-39878000D01*
X143484860Y-41690100D01*
X143212750Y-41690100D01*
X143135409Y-41574351D01*
X142748340Y-41315719D01*
X142291760Y-41224900D01*
X141934240Y-41224900D01*
X141477660Y-41315719D01*
X141090591Y-41574351D01*
X140831959Y-41961420D01*
X140741140Y-42418000D01*
X140831959Y-42874580D01*
X141090591Y-43261649D01*
X141477660Y-43520281D01*
X141654576Y-43555471D01*
X141183079Y-43739153D01*
X140775832Y-44129477D01*
X140570155Y-44557050D01*
X140671676Y-44779500D01*
X141934500Y-44779500D01*
X141934500Y-44759500D01*
X142291500Y-44759500D01*
X142291500Y-44779500D01*
X143554324Y-44779500D01*
X143655845Y-44557050D01*
X143450168Y-44129477D01*
X143042921Y-43739153D01*
X142571423Y-43555471D01*
X142748340Y-43520281D01*
X143004529Y-43349100D01*
X146125509Y-43349100D01*
X147491500Y-44715090D01*
X147491500Y-63537410D01*
X146852900Y-64176010D01*
X146852900Y-62819280D01*
X146852900Y-60279280D01*
X146852900Y-57739280D01*
X146832995Y-57639210D01*
X146832995Y-56062880D01*
X146832995Y-54335680D01*
X146808619Y-54210043D01*
X146736082Y-54099619D01*
X146626578Y-54025703D01*
X146497040Y-53999725D01*
X144465040Y-53999725D01*
X144339403Y-54024101D01*
X144228979Y-54096638D01*
X144155063Y-54206142D01*
X144129085Y-54335680D01*
X144129085Y-56062880D01*
X144153461Y-56188517D01*
X144225998Y-56298941D01*
X144335502Y-56372857D01*
X144465040Y-56398835D01*
X146497040Y-56398835D01*
X146622677Y-56374459D01*
X146733101Y-56301922D01*
X146807017Y-56192418D01*
X146832995Y-56062880D01*
X146832995Y-57639210D01*
X146762081Y-57282700D01*
X146503449Y-56895631D01*
X146116380Y-56636999D01*
X145659800Y-56546180D01*
X145302280Y-56546180D01*
X144845700Y-56636999D01*
X144458631Y-56895631D01*
X144199999Y-57282700D01*
X144109180Y-57739280D01*
X144199999Y-58195860D01*
X144458631Y-58582929D01*
X144845700Y-58841561D01*
X145302280Y-58932380D01*
X145659800Y-58932380D01*
X146116380Y-58841561D01*
X146503449Y-58582929D01*
X146762081Y-58195860D01*
X146852900Y-57739280D01*
X146852900Y-60279280D01*
X146762081Y-59822700D01*
X146503449Y-59435631D01*
X146116380Y-59176999D01*
X145659800Y-59086180D01*
X145302280Y-59086180D01*
X144845700Y-59176999D01*
X144458631Y-59435631D01*
X144199999Y-59822700D01*
X144109180Y-60279280D01*
X144199999Y-60735860D01*
X144458631Y-61122929D01*
X144845700Y-61381561D01*
X145302280Y-61472380D01*
X145659800Y-61472380D01*
X146116380Y-61381561D01*
X146503449Y-61122929D01*
X146762081Y-60735860D01*
X146852900Y-60279280D01*
X146852900Y-62819280D01*
X146762081Y-62362700D01*
X146503449Y-61975631D01*
X146116380Y-61716999D01*
X145659800Y-61626180D01*
X145302280Y-61626180D01*
X144845700Y-61716999D01*
X144458631Y-61975631D01*
X144199999Y-62362700D01*
X144109180Y-62819280D01*
X144199999Y-63275860D01*
X144458631Y-63662929D01*
X144845700Y-63921561D01*
X145302280Y-64012380D01*
X145659800Y-64012380D01*
X146116380Y-63921561D01*
X146503449Y-63662929D01*
X146762081Y-63275860D01*
X146852900Y-62819280D01*
X146852900Y-64176010D01*
X146524410Y-64504500D01*
X143655845Y-64504500D01*
X143655845Y-45358950D01*
X143554324Y-45136500D01*
X142291500Y-45136500D01*
X142291500Y-46257616D01*
X142517303Y-46381612D01*
X143042921Y-46176847D01*
X143450168Y-45786523D01*
X143655845Y-45358950D01*
X143655845Y-64504500D01*
X143528845Y-64504500D01*
X143528845Y-52978950D01*
X143528845Y-52177050D01*
X143323168Y-51749477D01*
X142915921Y-51359153D01*
X142603787Y-51237555D01*
X143002000Y-51237555D01*
X143127637Y-51213179D01*
X143238061Y-51140642D01*
X143311977Y-51031138D01*
X143337955Y-50901600D01*
X143337955Y-49174400D01*
X143313579Y-49048763D01*
X143241042Y-48938339D01*
X143131538Y-48864423D01*
X143002000Y-48838445D01*
X141934500Y-48838445D01*
X141934500Y-46257616D01*
X141934500Y-45136500D01*
X140671676Y-45136500D01*
X140570155Y-45358950D01*
X140775832Y-45786523D01*
X141183079Y-46176847D01*
X141708697Y-46381612D01*
X141934500Y-46257616D01*
X141934500Y-48838445D01*
X140970000Y-48838445D01*
X140844363Y-48862821D01*
X140733939Y-48935358D01*
X140660023Y-49044862D01*
X140634045Y-49174400D01*
X140634045Y-50901600D01*
X140658421Y-51027237D01*
X140730958Y-51137661D01*
X140840462Y-51211577D01*
X140970000Y-51237555D01*
X141368212Y-51237555D01*
X141056079Y-51359153D01*
X140648832Y-51749477D01*
X140443155Y-52177050D01*
X140544676Y-52399500D01*
X141807500Y-52399500D01*
X141807500Y-52379500D01*
X142164500Y-52379500D01*
X142164500Y-52399500D01*
X143427324Y-52399500D01*
X143528845Y-52177050D01*
X143528845Y-52978950D01*
X143427324Y-52756500D01*
X142164500Y-52756500D01*
X142164500Y-52776500D01*
X141807500Y-52776500D01*
X141807500Y-52756500D01*
X140544676Y-52756500D01*
X140443155Y-52978950D01*
X140648832Y-53406523D01*
X141056079Y-53796847D01*
X141527576Y-53980528D01*
X141350660Y-54015719D01*
X140963591Y-54274351D01*
X140704959Y-54661420D01*
X140614140Y-55118000D01*
X140704959Y-55574580D01*
X140963591Y-55961649D01*
X141350660Y-56220281D01*
X141807240Y-56311100D01*
X142164760Y-56311100D01*
X142621340Y-56220281D01*
X143008409Y-55961649D01*
X143267041Y-55574580D01*
X143357860Y-55118000D01*
X143267041Y-54661420D01*
X143008409Y-54274351D01*
X142621340Y-54015719D01*
X142444423Y-53980528D01*
X142915921Y-53796847D01*
X143323168Y-53406523D01*
X143528845Y-52978950D01*
X143528845Y-64504500D01*
X143357860Y-64504500D01*
X143357860Y-62738000D01*
X143357860Y-60198000D01*
X143357860Y-57658000D01*
X143267041Y-57201420D01*
X143008409Y-56814351D01*
X142621340Y-56555719D01*
X142164760Y-56464900D01*
X141807240Y-56464900D01*
X141350660Y-56555719D01*
X140963591Y-56814351D01*
X140704959Y-57201420D01*
X140614140Y-57658000D01*
X140704959Y-58114580D01*
X140963591Y-58501649D01*
X141350660Y-58760281D01*
X141807240Y-58851100D01*
X142164760Y-58851100D01*
X142621340Y-58760281D01*
X143008409Y-58501649D01*
X143267041Y-58114580D01*
X143357860Y-57658000D01*
X143357860Y-60198000D01*
X143267041Y-59741420D01*
X143008409Y-59354351D01*
X142621340Y-59095719D01*
X142164760Y-59004900D01*
X141807240Y-59004900D01*
X141350660Y-59095719D01*
X140963591Y-59354351D01*
X140704959Y-59741420D01*
X140614140Y-60198000D01*
X140704959Y-60654580D01*
X140963591Y-61041649D01*
X141350660Y-61300281D01*
X141807240Y-61391100D01*
X142164760Y-61391100D01*
X142621340Y-61300281D01*
X143008409Y-61041649D01*
X143267041Y-60654580D01*
X143357860Y-60198000D01*
X143357860Y-62738000D01*
X143267041Y-62281420D01*
X143008409Y-61894351D01*
X142621340Y-61635719D01*
X142164760Y-61544900D01*
X141807240Y-61544900D01*
X141350660Y-61635719D01*
X140963591Y-61894351D01*
X140704959Y-62281420D01*
X140614140Y-62738000D01*
X140704959Y-63194580D01*
X140963591Y-63581649D01*
X141350660Y-63840281D01*
X141807240Y-63931100D01*
X142164760Y-63931100D01*
X142621340Y-63840281D01*
X143008409Y-63581649D01*
X143267041Y-63194580D01*
X143357860Y-62738000D01*
X143357860Y-64504500D01*
X143055281Y-64504500D01*
X143008409Y-64434351D01*
X142621340Y-64175719D01*
X142164760Y-64084900D01*
X141807240Y-64084900D01*
X141350660Y-64175719D01*
X140963591Y-64434351D01*
X140704959Y-64821420D01*
X140614140Y-65278000D01*
X140704959Y-65734580D01*
X140963591Y-66121649D01*
X141350660Y-66380281D01*
X141527576Y-66415471D01*
X141056079Y-66599153D01*
X140648832Y-66989477D01*
X140443155Y-67417050D01*
X140544676Y-67639500D01*
X141807500Y-67639500D01*
X141807500Y-67619500D01*
X142164500Y-67619500D01*
X142164500Y-67639500D01*
X143427324Y-67639500D01*
X143528845Y-67417050D01*
X143323168Y-66989477D01*
X142915921Y-66599153D01*
X142444423Y-66415471D01*
X142621340Y-66380281D01*
X142945774Y-66163500D01*
X146524410Y-66163500D01*
X147633500Y-67272590D01*
X147633500Y-85030890D01*
X146751300Y-85913090D01*
X146751300Y-84470240D01*
X146751300Y-81930240D01*
X146751300Y-79390240D01*
X146731395Y-79290170D01*
X146731395Y-77713840D01*
X146731395Y-75986640D01*
X146707019Y-75861003D01*
X146634482Y-75750579D01*
X146524978Y-75676663D01*
X146395440Y-75650685D01*
X144363440Y-75650685D01*
X144237803Y-75675061D01*
X144127379Y-75747598D01*
X144053463Y-75857102D01*
X144027485Y-75986640D01*
X144027485Y-77713840D01*
X144051861Y-77839477D01*
X144124398Y-77949901D01*
X144233902Y-78023817D01*
X144363440Y-78049795D01*
X146395440Y-78049795D01*
X146521077Y-78025419D01*
X146631501Y-77952882D01*
X146705417Y-77843378D01*
X146731395Y-77713840D01*
X146731395Y-79290170D01*
X146660481Y-78933660D01*
X146401849Y-78546591D01*
X146014780Y-78287959D01*
X145558200Y-78197140D01*
X145200680Y-78197140D01*
X144744100Y-78287959D01*
X144357031Y-78546591D01*
X144098399Y-78933660D01*
X144007580Y-79390240D01*
X144098399Y-79846820D01*
X144357031Y-80233889D01*
X144744100Y-80492521D01*
X145200680Y-80583340D01*
X145558200Y-80583340D01*
X146014780Y-80492521D01*
X146401849Y-80233889D01*
X146660481Y-79846820D01*
X146751300Y-79390240D01*
X146751300Y-81930240D01*
X146660481Y-81473660D01*
X146401849Y-81086591D01*
X146014780Y-80827959D01*
X145558200Y-80737140D01*
X145200680Y-80737140D01*
X144744100Y-80827959D01*
X144357031Y-81086591D01*
X144098399Y-81473660D01*
X144007580Y-81930240D01*
X144098399Y-82386820D01*
X144357031Y-82773889D01*
X144744100Y-83032521D01*
X145200680Y-83123340D01*
X145558200Y-83123340D01*
X146014780Y-83032521D01*
X146401849Y-82773889D01*
X146660481Y-82386820D01*
X146751300Y-81930240D01*
X146751300Y-84470240D01*
X146660481Y-84013660D01*
X146401849Y-83626591D01*
X146014780Y-83367959D01*
X145558200Y-83277140D01*
X145200680Y-83277140D01*
X144744100Y-83367959D01*
X144357031Y-83626591D01*
X144098399Y-84013660D01*
X144007580Y-84470240D01*
X144098399Y-84926820D01*
X144357031Y-85313889D01*
X144744100Y-85572521D01*
X145200680Y-85663340D01*
X145558200Y-85663340D01*
X146014780Y-85572521D01*
X146401849Y-85313889D01*
X146660481Y-84926820D01*
X146751300Y-84470240D01*
X146751300Y-85913090D01*
X146483650Y-86180740D01*
X143528845Y-86180740D01*
X143528845Y-68218950D01*
X143427324Y-67996500D01*
X142164500Y-67996500D01*
X142164500Y-69117616D01*
X142390303Y-69241612D01*
X142915921Y-69036847D01*
X143323168Y-68646523D01*
X143528845Y-68218950D01*
X143528845Y-86180740D01*
X143401845Y-86180740D01*
X143401845Y-74695950D01*
X143401845Y-73894050D01*
X143196168Y-73466477D01*
X142788921Y-73076153D01*
X142476787Y-72954555D01*
X142875000Y-72954555D01*
X143000637Y-72930179D01*
X143111061Y-72857642D01*
X143184977Y-72748138D01*
X143210955Y-72618600D01*
X143210955Y-70891400D01*
X143186579Y-70765763D01*
X143114042Y-70655339D01*
X143004538Y-70581423D01*
X142875000Y-70555445D01*
X141807500Y-70555445D01*
X141807500Y-69117616D01*
X141807500Y-67996500D01*
X140544676Y-67996500D01*
X140443155Y-68218950D01*
X140648832Y-68646523D01*
X141056079Y-69036847D01*
X141581697Y-69241612D01*
X141807500Y-69117616D01*
X141807500Y-70555445D01*
X140843000Y-70555445D01*
X140717363Y-70579821D01*
X140606939Y-70652358D01*
X140533023Y-70761862D01*
X140507045Y-70891400D01*
X140507045Y-72618600D01*
X140531421Y-72744237D01*
X140603958Y-72854661D01*
X140713462Y-72928577D01*
X140843000Y-72954555D01*
X141241212Y-72954555D01*
X140929079Y-73076153D01*
X140521832Y-73466477D01*
X140316155Y-73894050D01*
X140417676Y-74116500D01*
X141680500Y-74116500D01*
X141680500Y-74096500D01*
X142037500Y-74096500D01*
X142037500Y-74116500D01*
X143300324Y-74116500D01*
X143401845Y-73894050D01*
X143401845Y-74695950D01*
X143300324Y-74473500D01*
X142037500Y-74473500D01*
X142037500Y-74493500D01*
X141680500Y-74493500D01*
X141680500Y-74473500D01*
X140417676Y-74473500D01*
X140316155Y-74695950D01*
X140521832Y-75123523D01*
X140929079Y-75513847D01*
X141400576Y-75697528D01*
X141223660Y-75732719D01*
X140836591Y-75991351D01*
X140577959Y-76378420D01*
X140487140Y-76835000D01*
X140577959Y-77291580D01*
X140836591Y-77678649D01*
X141223660Y-77937281D01*
X141680240Y-78028100D01*
X142037760Y-78028100D01*
X142494340Y-77937281D01*
X142881409Y-77678649D01*
X143140041Y-77291580D01*
X143230860Y-76835000D01*
X143140041Y-76378420D01*
X142881409Y-75991351D01*
X142494340Y-75732719D01*
X142317423Y-75697528D01*
X142788921Y-75513847D01*
X143196168Y-75123523D01*
X143401845Y-74695950D01*
X143401845Y-86180740D01*
X143230860Y-86180740D01*
X143230860Y-84455000D01*
X143230860Y-81915000D01*
X143230860Y-79375000D01*
X143140041Y-78918420D01*
X142881409Y-78531351D01*
X142494340Y-78272719D01*
X142037760Y-78181900D01*
X141680240Y-78181900D01*
X141223660Y-78272719D01*
X140836591Y-78531351D01*
X140577959Y-78918420D01*
X140487140Y-79375000D01*
X140577959Y-79831580D01*
X140836591Y-80218649D01*
X141223660Y-80477281D01*
X141680240Y-80568100D01*
X142037760Y-80568100D01*
X142494340Y-80477281D01*
X142881409Y-80218649D01*
X143140041Y-79831580D01*
X143230860Y-79375000D01*
X143230860Y-81915000D01*
X143140041Y-81458420D01*
X142881409Y-81071351D01*
X142494340Y-80812719D01*
X142037760Y-80721900D01*
X141680240Y-80721900D01*
X141223660Y-80812719D01*
X140836591Y-81071351D01*
X140577959Y-81458420D01*
X140487140Y-81915000D01*
X140577959Y-82371580D01*
X140836591Y-82758649D01*
X141223660Y-83017281D01*
X141680240Y-83108100D01*
X142037760Y-83108100D01*
X142494340Y-83017281D01*
X142881409Y-82758649D01*
X143140041Y-82371580D01*
X143230860Y-81915000D01*
X143230860Y-84455000D01*
X143140041Y-83998420D01*
X142881409Y-83611351D01*
X142494340Y-83352719D01*
X142037760Y-83261900D01*
X141680240Y-83261900D01*
X141223660Y-83352719D01*
X140836591Y-83611351D01*
X140577959Y-83998420D01*
X140487140Y-84455000D01*
X140577959Y-84911580D01*
X140836591Y-85298649D01*
X141223660Y-85557281D01*
X141680240Y-85648100D01*
X142037760Y-85648100D01*
X142494340Y-85557281D01*
X142881409Y-85298649D01*
X143140041Y-84911580D01*
X143230860Y-84455000D01*
X143230860Y-86180740D01*
X142901046Y-86180740D01*
X142881409Y-86151351D01*
X142494340Y-85892719D01*
X142037760Y-85801900D01*
X141680240Y-85801900D01*
X141223660Y-85892719D01*
X140836591Y-86151351D01*
X140577959Y-86538420D01*
X140487140Y-86995000D01*
X140577959Y-87451580D01*
X140836591Y-87838649D01*
X141223660Y-88097281D01*
X141400576Y-88132471D01*
X140929079Y-88316153D01*
X140521832Y-88706477D01*
X140316155Y-89134050D01*
X140417676Y-89356500D01*
X141680500Y-89356500D01*
X141680500Y-89336500D01*
X142037500Y-89336500D01*
X142037500Y-89356500D01*
X143300324Y-89356500D01*
X143401845Y-89134050D01*
X143196168Y-88706477D01*
X142788921Y-88316153D01*
X142317423Y-88132471D01*
X142494340Y-88097281D01*
X142879776Y-87839740D01*
X146483649Y-87839740D01*
X147570000Y-88926090D01*
X147570000Y-107755500D01*
X146771620Y-107755500D01*
X146771620Y-106055160D01*
X146771620Y-103515160D01*
X146771620Y-100975160D01*
X146751715Y-100875090D01*
X146751715Y-99298760D01*
X146751715Y-97571560D01*
X146727339Y-97445923D01*
X146654802Y-97335499D01*
X146545298Y-97261583D01*
X146415760Y-97235605D01*
X144383760Y-97235605D01*
X144258123Y-97259981D01*
X144147699Y-97332518D01*
X144073783Y-97442022D01*
X144047805Y-97571560D01*
X144047805Y-99298760D01*
X144072181Y-99424397D01*
X144144718Y-99534821D01*
X144254222Y-99608737D01*
X144383760Y-99634715D01*
X146415760Y-99634715D01*
X146541397Y-99610339D01*
X146651821Y-99537802D01*
X146725737Y-99428298D01*
X146751715Y-99298760D01*
X146751715Y-100875090D01*
X146680801Y-100518580D01*
X146422169Y-100131511D01*
X146035100Y-99872879D01*
X145578520Y-99782060D01*
X145221000Y-99782060D01*
X144764420Y-99872879D01*
X144377351Y-100131511D01*
X144118719Y-100518580D01*
X144027900Y-100975160D01*
X144118719Y-101431740D01*
X144377351Y-101818809D01*
X144764420Y-102077441D01*
X145221000Y-102168260D01*
X145578520Y-102168260D01*
X146035100Y-102077441D01*
X146422169Y-101818809D01*
X146680801Y-101431740D01*
X146771620Y-100975160D01*
X146771620Y-103515160D01*
X146680801Y-103058580D01*
X146422169Y-102671511D01*
X146035100Y-102412879D01*
X145578520Y-102322060D01*
X145221000Y-102322060D01*
X144764420Y-102412879D01*
X144377351Y-102671511D01*
X144118719Y-103058580D01*
X144027900Y-103515160D01*
X144118719Y-103971740D01*
X144377351Y-104358809D01*
X144764420Y-104617441D01*
X145221000Y-104708260D01*
X145578520Y-104708260D01*
X146035100Y-104617441D01*
X146422169Y-104358809D01*
X146680801Y-103971740D01*
X146771620Y-103515160D01*
X146771620Y-106055160D01*
X146680801Y-105598580D01*
X146422169Y-105211511D01*
X146035100Y-104952879D01*
X145578520Y-104862060D01*
X145221000Y-104862060D01*
X144764420Y-104952879D01*
X144377351Y-105211511D01*
X144118719Y-105598580D01*
X144027900Y-106055160D01*
X144118719Y-106511740D01*
X144377351Y-106898809D01*
X144764420Y-107157441D01*
X145221000Y-107248260D01*
X145578520Y-107248260D01*
X146035100Y-107157441D01*
X146422169Y-106898809D01*
X146680801Y-106511740D01*
X146771620Y-106055160D01*
X146771620Y-107755500D01*
X143401845Y-107755500D01*
X143401845Y-96285950D01*
X143401845Y-95484050D01*
X143401845Y-89935950D01*
X143300324Y-89713500D01*
X142037500Y-89713500D01*
X142037500Y-90834616D01*
X142263303Y-90958612D01*
X142788921Y-90753847D01*
X143196168Y-90363523D01*
X143401845Y-89935950D01*
X143401845Y-95484050D01*
X143196168Y-95056477D01*
X142788921Y-94666153D01*
X142476787Y-94544555D01*
X142875000Y-94544555D01*
X143000637Y-94520179D01*
X143111061Y-94447642D01*
X143184977Y-94338138D01*
X143210955Y-94208600D01*
X143210955Y-92481400D01*
X143186579Y-92355763D01*
X143114042Y-92245339D01*
X143004538Y-92171423D01*
X142875000Y-92145445D01*
X141680500Y-92145445D01*
X141680500Y-90834616D01*
X141680500Y-89713500D01*
X140417676Y-89713500D01*
X140316155Y-89935950D01*
X140521832Y-90363523D01*
X140929079Y-90753847D01*
X141454697Y-90958612D01*
X141680500Y-90834616D01*
X141680500Y-92145445D01*
X140843000Y-92145445D01*
X140717363Y-92169821D01*
X140606939Y-92242358D01*
X140533023Y-92351862D01*
X140507045Y-92481400D01*
X140507045Y-94208600D01*
X140531421Y-94334237D01*
X140603958Y-94444661D01*
X140713462Y-94518577D01*
X140843000Y-94544555D01*
X141241212Y-94544555D01*
X140929079Y-94666153D01*
X140521832Y-95056477D01*
X140316155Y-95484050D01*
X140417676Y-95706500D01*
X141680500Y-95706500D01*
X141680500Y-95686500D01*
X142037500Y-95686500D01*
X142037500Y-95706500D01*
X143300324Y-95706500D01*
X143401845Y-95484050D01*
X143401845Y-96285950D01*
X143300324Y-96063500D01*
X142037500Y-96063500D01*
X142037500Y-96083500D01*
X141680500Y-96083500D01*
X141680500Y-96063500D01*
X140417676Y-96063500D01*
X140316155Y-96285950D01*
X140521832Y-96713523D01*
X140929079Y-97103847D01*
X141400576Y-97287528D01*
X141223660Y-97322719D01*
X140836591Y-97581351D01*
X140577959Y-97968420D01*
X140487140Y-98425000D01*
X140577959Y-98881580D01*
X140836591Y-99268649D01*
X141223660Y-99527281D01*
X141680240Y-99618100D01*
X142037760Y-99618100D01*
X142494340Y-99527281D01*
X142881409Y-99268649D01*
X143140041Y-98881580D01*
X143230860Y-98425000D01*
X143140041Y-97968420D01*
X142881409Y-97581351D01*
X142494340Y-97322719D01*
X142317423Y-97287528D01*
X142788921Y-97103847D01*
X143196168Y-96713523D01*
X143401845Y-96285950D01*
X143401845Y-107755500D01*
X143230860Y-107755500D01*
X143230860Y-106045000D01*
X143230860Y-103505000D01*
X143230860Y-100965000D01*
X143140041Y-100508420D01*
X142881409Y-100121351D01*
X142494340Y-99862719D01*
X142037760Y-99771900D01*
X141680240Y-99771900D01*
X141223660Y-99862719D01*
X140836591Y-100121351D01*
X140577959Y-100508420D01*
X140487140Y-100965000D01*
X140577959Y-101421580D01*
X140836591Y-101808649D01*
X141223660Y-102067281D01*
X141680240Y-102158100D01*
X142037760Y-102158100D01*
X142494340Y-102067281D01*
X142881409Y-101808649D01*
X143140041Y-101421580D01*
X143230860Y-100965000D01*
X143230860Y-103505000D01*
X143140041Y-103048420D01*
X142881409Y-102661351D01*
X142494340Y-102402719D01*
X142037760Y-102311900D01*
X141680240Y-102311900D01*
X141223660Y-102402719D01*
X140836591Y-102661351D01*
X140577959Y-103048420D01*
X140487140Y-103505000D01*
X140577959Y-103961580D01*
X140836591Y-104348649D01*
X141223660Y-104607281D01*
X141680240Y-104698100D01*
X142037760Y-104698100D01*
X142494340Y-104607281D01*
X142881409Y-104348649D01*
X143140041Y-103961580D01*
X143230860Y-103505000D01*
X143230860Y-106045000D01*
X143140041Y-105588420D01*
X142881409Y-105201351D01*
X142494340Y-104942719D01*
X142037760Y-104851900D01*
X141680240Y-104851900D01*
X141223660Y-104942719D01*
X140836591Y-105201351D01*
X140577959Y-105588420D01*
X140487140Y-106045000D01*
X140577959Y-106501580D01*
X140836591Y-106888649D01*
X141223660Y-107147281D01*
X141680240Y-107238100D01*
X142037760Y-107238100D01*
X142494340Y-107147281D01*
X142881409Y-106888649D01*
X143140041Y-106501580D01*
X143230860Y-106045000D01*
X143230860Y-107755500D01*
X142890863Y-107755500D01*
X142881409Y-107741351D01*
X142494340Y-107482719D01*
X142037760Y-107391900D01*
X141680240Y-107391900D01*
X141223660Y-107482719D01*
X140836591Y-107741351D01*
X140577959Y-108128420D01*
X140487140Y-108585000D01*
X140577959Y-109041580D01*
X140836591Y-109428649D01*
X141223660Y-109687281D01*
X141400576Y-109722471D01*
X140929079Y-109906153D01*
X140521832Y-110296477D01*
X140316155Y-110724050D01*
X140417676Y-110946500D01*
X141680500Y-110946500D01*
X141680500Y-110926500D01*
X142037500Y-110926500D01*
X142037500Y-110946500D01*
X143300324Y-110946500D01*
X143401845Y-110724050D01*
X143196168Y-110296477D01*
X142788921Y-109906153D01*
X142317423Y-109722471D01*
X142494340Y-109687281D01*
X142881409Y-109428649D01*
X142890863Y-109414500D01*
X148018500Y-109414500D01*
X148335936Y-109351358D01*
X148605045Y-109171545D01*
X148986045Y-108790545D01*
X149165858Y-108521436D01*
X149229000Y-108204000D01*
X149229000Y-88582500D01*
X149165858Y-88265064D01*
X148986045Y-87995955D01*
X148000330Y-87010240D01*
X149049545Y-85961025D01*
X149229358Y-85691916D01*
X149252500Y-85575573D01*
X149252500Y-112995181D01*
M02*
