G04 #@! TF.FileFunction,Soldermask,Top*
%FSLAX46Y46*%
G04 Gerber Fmt 4.6, Leading zero omitted, Abs format (unit mm)*
G04 Created by KiCad (PCBNEW (2015-01-16 BZR 5376)-product) date 27.11.2015 11:03:24*
%MOMM*%
G01*
G04 APERTURE LIST*
%ADD10C,0.100000*%
%ADD11R,2.032000X2.032000*%
%ADD12O,2.032000X2.032000*%
%ADD13R,1.600200X3.599180*%
%ADD14R,1.727200X1.727200*%
%ADD15O,1.727200X1.727200*%
%ADD16R,0.900000X1.200000*%
%ADD17R,1.200000X0.900000*%
%ADD18R,2.032000X1.727200*%
%ADD19O,2.032000X1.727200*%
%ADD20R,1.800000X1.100000*%
%ADD21C,2.500000*%
G04 APERTURE END LIST*
D10*
D11*
X122174000Y-38989000D03*
D12*
X124714000Y-38989000D03*
D11*
X122174000Y-41910000D03*
D12*
X124714000Y-41910000D03*
D13*
X136606280Y-27612340D03*
X136606280Y-33113980D03*
X136611360Y-50452020D03*
X136611360Y-55953660D03*
X136484360Y-72138540D03*
X136484360Y-77640180D03*
X136453880Y-93764100D03*
X136453880Y-99265740D03*
D14*
X135500000Y-41798240D03*
D15*
X132960000Y-41798240D03*
X135500000Y-39258240D03*
X132960000Y-39258240D03*
X135500000Y-36718240D03*
X132960000Y-36718240D03*
D14*
X135400000Y-64587120D03*
D15*
X132860000Y-64587120D03*
X135400000Y-62047120D03*
X132860000Y-62047120D03*
X135400000Y-59507120D03*
X132860000Y-59507120D03*
D14*
X135427720Y-86207600D03*
D15*
X132887720Y-86207600D03*
X135427720Y-83667600D03*
X132887720Y-83667600D03*
X135427720Y-81127600D03*
X132887720Y-81127600D03*
D14*
X135360000Y-107792520D03*
D15*
X132820000Y-107792520D03*
X135360000Y-105252520D03*
X132820000Y-105252520D03*
X135360000Y-102712520D03*
X132820000Y-102712520D03*
D16*
X131978400Y-27530880D03*
X131978400Y-29730880D03*
X131886960Y-50131800D03*
X131886960Y-52331800D03*
X131800600Y-71879280D03*
X131800600Y-74079280D03*
X131820920Y-93443880D03*
X131820920Y-95643880D03*
D17*
X132123000Y-44444920D03*
X134323000Y-44444920D03*
X132123000Y-46009560D03*
X134323000Y-46009560D03*
X132026480Y-67203320D03*
X134226480Y-67203320D03*
X132036640Y-68803520D03*
X134236640Y-68803520D03*
X132006160Y-88859360D03*
X134206160Y-88859360D03*
X132006160Y-90500200D03*
X134206160Y-90500200D03*
X131970600Y-110449360D03*
X134170600Y-110449360D03*
X131980760Y-112074960D03*
X134180760Y-112074960D03*
D18*
X145623280Y-32486600D03*
D19*
X145623280Y-35026600D03*
X145623280Y-37566600D03*
X145623280Y-40106600D03*
D18*
X145481040Y-55199280D03*
D19*
X145481040Y-57739280D03*
X145481040Y-60279280D03*
X145481040Y-62819280D03*
D18*
X145379440Y-76850240D03*
D19*
X145379440Y-79390240D03*
X145379440Y-81930240D03*
X145379440Y-84470240D03*
D18*
X145399760Y-98435160D03*
D19*
X145399760Y-100975160D03*
X145399760Y-103515160D03*
X145399760Y-106055160D03*
D18*
X117983000Y-63119000D03*
D19*
X117983000Y-65659000D03*
X117983000Y-68199000D03*
X117983000Y-70739000D03*
X117983000Y-73279000D03*
X117983000Y-75819000D03*
X117983000Y-78359000D03*
X117983000Y-80899000D03*
X117983000Y-83439000D03*
X117983000Y-85979000D03*
D20*
X118566000Y-44251000D03*
X124766000Y-44251000D03*
X118566000Y-47951000D03*
X124766000Y-47951000D03*
D18*
X118110000Y-110998000D03*
D19*
X118110000Y-108458000D03*
X118110000Y-105918000D03*
D16*
X119888000Y-102954000D03*
X119888000Y-100754000D03*
X118110000Y-100754000D03*
X118110000Y-102954000D03*
X137922000Y-38438000D03*
X137922000Y-36238000D03*
X137668000Y-61298000D03*
X137668000Y-59098000D03*
X137668000Y-82634000D03*
X137668000Y-80434000D03*
X137541000Y-104351000D03*
X137541000Y-102151000D03*
D14*
X122301000Y-50419000D03*
D15*
X124841000Y-50419000D03*
X122301000Y-52959000D03*
X124841000Y-52959000D03*
X122301000Y-55499000D03*
X124841000Y-55499000D03*
X122301000Y-58039000D03*
X124841000Y-58039000D03*
X122301000Y-60579000D03*
X124841000Y-60579000D03*
X122301000Y-63119000D03*
X124841000Y-63119000D03*
X122301000Y-65659000D03*
X124841000Y-65659000D03*
X122301000Y-68199000D03*
X124841000Y-68199000D03*
X122301000Y-70739000D03*
X124841000Y-70739000D03*
X122301000Y-73279000D03*
X124841000Y-73279000D03*
X122301000Y-75819000D03*
X124841000Y-75819000D03*
X122301000Y-78359000D03*
X124841000Y-78359000D03*
X122301000Y-80899000D03*
X124841000Y-80899000D03*
X122301000Y-83439000D03*
X124841000Y-83439000D03*
X122301000Y-85979000D03*
X124841000Y-85979000D03*
X122301000Y-88519000D03*
X124841000Y-88519000D03*
X122301000Y-91059000D03*
X124841000Y-91059000D03*
X122301000Y-93599000D03*
X124841000Y-93599000D03*
X122301000Y-96139000D03*
X124841000Y-96139000D03*
X122301000Y-98679000D03*
X124841000Y-98679000D03*
X122301000Y-101219000D03*
X124841000Y-101219000D03*
X122301000Y-103759000D03*
X124841000Y-103759000D03*
X122301000Y-106299000D03*
X124841000Y-106299000D03*
X122301000Y-108839000D03*
X124841000Y-108839000D03*
X122301000Y-111379000D03*
X124841000Y-111379000D03*
D18*
X129286000Y-27305000D03*
D19*
X129286000Y-29845000D03*
X129286000Y-32385000D03*
X129286000Y-34925000D03*
X129286000Y-37465000D03*
X129286000Y-40005000D03*
X129286000Y-42545000D03*
X129286000Y-45085000D03*
D18*
X142113000Y-27178000D03*
D19*
X142113000Y-29718000D03*
X142113000Y-32258000D03*
X142113000Y-34798000D03*
X142113000Y-37338000D03*
X142113000Y-39878000D03*
X142113000Y-42418000D03*
X142113000Y-44958000D03*
D18*
X129159000Y-50038000D03*
D19*
X129159000Y-52578000D03*
X129159000Y-55118000D03*
X129159000Y-57658000D03*
X129159000Y-60198000D03*
X129159000Y-62738000D03*
X129159000Y-65278000D03*
X129159000Y-67818000D03*
D18*
X141986000Y-50038000D03*
D19*
X141986000Y-52578000D03*
X141986000Y-55118000D03*
X141986000Y-57658000D03*
X141986000Y-60198000D03*
X141986000Y-62738000D03*
X141986000Y-65278000D03*
X141986000Y-67818000D03*
D18*
X129159000Y-71755000D03*
D19*
X129159000Y-74295000D03*
X129159000Y-76835000D03*
X129159000Y-79375000D03*
X129159000Y-81915000D03*
X129159000Y-84455000D03*
X129159000Y-86995000D03*
X129159000Y-89535000D03*
D18*
X141859000Y-71755000D03*
D19*
X141859000Y-74295000D03*
X141859000Y-76835000D03*
X141859000Y-79375000D03*
X141859000Y-81915000D03*
X141859000Y-84455000D03*
X141859000Y-86995000D03*
X141859000Y-89535000D03*
D18*
X129159000Y-93345000D03*
D19*
X129159000Y-95885000D03*
X129159000Y-98425000D03*
X129159000Y-100965000D03*
X129159000Y-103505000D03*
X129159000Y-106045000D03*
X129159000Y-108585000D03*
X129159000Y-111125000D03*
D18*
X141859000Y-93345000D03*
D19*
X141859000Y-95885000D03*
X141859000Y-98425000D03*
X141859000Y-100965000D03*
X141859000Y-103505000D03*
X141859000Y-106045000D03*
X141859000Y-108585000D03*
X141859000Y-111125000D03*
D21*
X119674000Y-32385000D03*
X124674000Y-32385000D03*
M02*
