M48
;DRILL file {kicad (2015-01-16 BZR 5376)-product} date 27.11.2015 11:03:33
;FORMAT={-:-/ absolute / metric / decimal}
FMAT,2
METRIC,TZ
T1C0.635
T2C1.016
T3C1.300
%
G90
G05
M71
T1
X118.618Y-45.847
X119.38Y-104.394
X119.888Y-35.941
X120.396Y-106.172
X124.079Y-45.847
X124.46Y-35.941
X125.857Y-51.689
X126.365Y-48.514
X126.682Y-86.995
X126.81Y-71.819
X126.81Y-89.662
X127.318Y-66.611
X127.381Y-105.982
X136.296Y-103.988
X136.462Y-60.77
X136.525Y-82.423
X136.779Y-37.973
T2
X117.983Y-63.119
X117.983Y-65.659
X117.983Y-68.199
X117.983Y-70.739
X117.983Y-73.279
X117.983Y-75.819
X117.983Y-78.359
X117.983Y-80.899
X117.983Y-83.439
X117.983Y-85.979
X118.11Y-105.918
X118.11Y-108.458
X118.11Y-110.998
X122.174Y-38.989
X122.174Y-41.91
X122.301Y-50.419
X122.301Y-52.959
X122.301Y-55.499
X122.301Y-58.039
X122.301Y-60.579
X122.301Y-63.119
X122.301Y-65.659
X122.301Y-68.199
X122.301Y-70.739
X122.301Y-73.279
X122.301Y-75.819
X122.301Y-78.359
X122.301Y-80.899
X122.301Y-83.439
X122.301Y-85.979
X122.301Y-88.519
X122.301Y-91.059
X122.301Y-93.599
X122.301Y-96.139
X122.301Y-98.679
X122.301Y-101.219
X122.301Y-103.759
X122.301Y-106.299
X122.301Y-108.839
X122.301Y-111.379
X124.714Y-38.989
X124.714Y-41.91
X124.841Y-50.419
X124.841Y-52.959
X124.841Y-55.499
X124.841Y-58.039
X124.841Y-60.579
X124.841Y-63.119
X124.841Y-65.659
X124.841Y-68.199
X124.841Y-70.739
X124.841Y-73.279
X124.841Y-75.819
X124.841Y-78.359
X124.841Y-80.899
X124.841Y-83.439
X124.841Y-85.979
X124.841Y-88.519
X124.841Y-91.059
X124.841Y-93.599
X124.841Y-96.139
X124.841Y-98.679
X124.841Y-101.219
X124.841Y-103.759
X124.841Y-106.299
X124.841Y-108.839
X124.841Y-111.379
X129.159Y-50.038
X129.159Y-52.578
X129.159Y-55.118
X129.159Y-57.658
X129.159Y-60.198
X129.159Y-62.738
X129.159Y-65.278
X129.159Y-67.818
X129.159Y-71.755
X129.159Y-74.295
X129.159Y-76.835
X129.159Y-79.375
X129.159Y-81.915
X129.159Y-84.455
X129.159Y-86.995
X129.159Y-89.535
X129.159Y-93.345
X129.159Y-95.885
X129.159Y-98.425
X129.159Y-100.965
X129.159Y-103.505
X129.159Y-106.045
X129.159Y-108.585
X129.159Y-111.125
X129.286Y-27.305
X129.286Y-29.845
X129.286Y-32.385
X129.286Y-34.925
X129.286Y-37.465
X129.286Y-40.005
X129.286Y-42.545
X129.286Y-45.085
X132.82Y-102.713
X132.82Y-105.253
X132.82Y-107.793
X132.86Y-59.507
X132.86Y-62.047
X132.86Y-64.587
X132.888Y-81.128
X132.888Y-83.668
X132.888Y-86.208
X132.96Y-36.718
X132.96Y-39.258
X132.96Y-41.798
X135.36Y-102.713
X135.36Y-105.253
X135.36Y-107.793
X135.4Y-59.507
X135.4Y-62.047
X135.4Y-64.587
X135.428Y-81.128
X135.428Y-83.668
X135.428Y-86.208
X135.5Y-36.718
X135.5Y-39.258
X135.5Y-41.798
X141.859Y-71.755
X141.859Y-74.295
X141.859Y-76.835
X141.859Y-79.375
X141.859Y-81.915
X141.859Y-84.455
X141.859Y-86.995
X141.859Y-89.535
X141.859Y-93.345
X141.859Y-95.885
X141.859Y-98.425
X141.859Y-100.965
X141.859Y-103.505
X141.859Y-106.045
X141.859Y-108.585
X141.859Y-111.125
X141.986Y-50.038
X141.986Y-52.578
X141.986Y-55.118
X141.986Y-57.658
X141.986Y-60.198
X141.986Y-62.738
X141.986Y-65.278
X141.986Y-67.818
X142.113Y-27.178
X142.113Y-29.718
X142.113Y-32.258
X142.113Y-34.798
X142.113Y-37.338
X142.113Y-39.878
X142.113Y-42.418
X142.113Y-44.958
X145.379Y-76.85
X145.379Y-79.39
X145.379Y-81.93
X145.379Y-84.47
X145.4Y-98.435
X145.4Y-100.975
X145.4Y-103.515
X145.4Y-106.055
X145.481Y-55.199
X145.481Y-57.739
X145.481Y-60.279
X145.481Y-62.819
X145.623Y-32.487
X145.623Y-35.027
X145.623Y-37.567
X145.623Y-40.107
T3
X119.674Y-32.385
X124.674Y-32.385
T0
M30
